<?xml version="1.0" encoding="UTF-8"?>
<svg version="1.1" xmlns="http://www.w3.org/2000/svg" width="204" height="211">
<path d="M0 0 C67.32 0 134.64 0 204 0 C204 69.63 204 139.26 204 211 C136.68 211 69.36 211 0 211 C0 141.37 0 71.74 0 0 Z " fill="#162F5A" transform="translate(0,0)"/>
<path d="M0 0 C67.32 0 134.64 0 204 0 C204 69.63 204 139.26 204 211 C136.68 211 69.36 211 0 211 C0 141.37 0 71.74 0 0 Z M74 24 C73.12859375 24.26554687 72.2571875 24.53109375 71.359375 24.8046875 C51.74812442 31.62316866 35.49473824 46.80914637 26 65 C25.44828125 66.03640625 24.8965625 67.0728125 24.328125 68.140625 C13.97077048 88.9578821 12.85929328 112.33834872 20.1015625 134.34765625 C28.50271502 157.5185769 44.36973073 175.22645969 66.71362305 185.82763672 C88.28145318 195.59664071 111.18151416 195.26562674 133.40234375 187.8671875 C144.92789591 183.38750056 154.12661187 176.48823272 163 168 C163.69996094 167.37480469 164.39992187 166.74960938 165.12109375 166.10546875 C171.0800517 160.58791509 175.07162766 154.06446791 179 147 C179.33942627 146.39124023 179.67885254 145.78248047 180.02856445 145.15527344 C182.757264 140.02267367 184.31279613 134.88142357 185.6875 129.25 C185.89955078 128.41339844 186.11160156 127.57679687 186.33007812 126.71484375 C186.89538273 124.47859146 187.44952029 122.23993759 188 120 C188.18248291 119.32445068 188.36496582 118.64890137 188.55297852 117.95288086 C192.75286637 99.60503653 186.48247425 77.02123071 176.859375 61.39453125 C163.51014079 40.93611538 143.96409575 26.41026141 120 21 C104.43886335 18.5808317 88.97217269 19.06677259 74 24 Z " fill="#FBFCFC" transform="translate(0,0)"/>
<path d="M0 0 C0.85106323 -0.00563965 1.70212646 -0.0112793 2.57897949 -0.01708984 C3.9747245 -0.01101715 3.9747245 -0.01101715 5.39866638 -0.00482178 C6.3810025 -0.00832642 7.36333862 -0.01183105 8.3754425 -0.01544189 C11.6286166 -0.02425813 14.88157398 -0.01841082 18.13475037 -0.01165771 C20.3901168 -0.01300429 22.64548295 -0.01494475 24.90084839 -0.01745605 C29.62947857 -0.02040708 34.35803325 -0.0161099 39.08665466 -0.0067749 C45.15890535 0.00462609 51.23097939 -0.00194414 57.30322361 -0.01391983 C61.96050355 -0.0211334 66.61774133 -0.01885293 71.27502251 -0.01366425 C73.51461241 -0.0123267 75.75420609 -0.01397913 77.99379158 -0.01862335 C81.11843694 -0.02368102 84.24279269 -0.01598928 87.36741638 -0.00482178 C88.29993729 -0.00887024 89.23245819 -0.0129187 90.1932373 -0.01708984 C91.04148071 -0.0114502 91.88972412 -0.00581055 92.76367188 0 C93.50274056 0.00075405 94.24180925 0.0015081 95.00327396 0.002285 C96.81834412 0.25396729 96.81834412 0.25396729 98.81834412 2.25396729 C99.0723114 5.17645264 99.0723114 5.17645264 99.07713318 8.96685791 C99.08063782 9.65644089 99.08414246 10.34602386 99.0877533 11.0565033 C99.09657241 13.34117634 99.09072099 15.62554097 99.08396912 17.91021729 C99.08531572 19.49440572 99.08725621 21.07859375 99.08976746 22.66278076 C99.09271896 25.98504567 99.08842029 29.30720313 99.0790863 32.62945557 C99.06769169 36.89358319 99.07425104 41.15745907 99.08623123 45.42157745 C99.09344917 48.69346014 99.09116222 51.96528289 99.08597565 55.23716736 C99.08463896 56.8096876 99.08628753 58.38221323 99.09093475 59.95472717 C99.09599897 62.15032421 99.08829161 64.34551032 99.07713318 66.54107666 C99.07554199 67.7919104 99.07395081 69.04274414 99.0723114 70.33148193 C98.81834412 73.25396729 98.81834412 73.25396729 96.81834412 75.25396729 C94.98486328 75.50564957 94.98486328 75.50564957 92.71897888 75.50793457 C91.4318248 75.51639404 91.4318248 75.51639404 90.1186676 75.52502441 C89.17522491 75.52097595 88.23178223 75.51692749 87.25975037 75.51275635 C86.2678067 75.51626099 85.27586304 75.51976562 84.25386047 75.52337646 C80.96278461 75.53220577 77.67192231 75.52634036 74.38084412 75.51959229 C72.1016282 75.52093859 69.82241256 75.52287883 67.54319763 75.52539062 C62.76151298 75.52834352 57.97990293 75.52403892 53.19822693 75.51470947 C47.05756695 75.5033149 40.91708178 75.50987348 34.77642822 75.5218544 C30.06853408 75.52906853 25.36068163 75.52678713 20.65278625 75.52159882 C18.38807657 75.52026108 16.12336315 75.52191434 13.85865784 75.52655792 C10.69798194 75.53161578 7.53759234 75.52392326 4.37693787 75.51275635 C2.96177383 75.51882904 2.96177383 75.51882904 1.51802063 75.52502441 C0.65991791 75.51938477 -0.19818481 75.51374512 -1.08229065 75.50793457 C-1.8300325 75.50718052 -2.57777435 75.50642647 -3.34817505 75.50564957 C-5.18165588 75.25396729 -5.18165588 75.25396729 -7.18165588 73.25396729 C-7.44235229 70.33148193 -7.44235229 70.33148193 -7.45631409 66.54107666 C-7.46142502 65.85149368 -7.46653595 65.16191071 -7.47180176 64.45143127 C-7.48572825 62.16677224 -7.48473893 59.88241378 -7.48243713 57.59771729 C-7.48632206 56.01352831 -7.4906563 54.42934038 -7.49542236 52.84515381 C-7.5028909 49.52289454 -7.50258851 46.20074153 -7.49732971 42.878479 C-7.49153056 38.61426989 -7.50847345 34.35049448 -7.53167439 30.08635712 C-7.54638189 26.81446781 -7.54728759 23.54268372 -7.54416466 20.27076721 C-7.54467926 18.69823853 -7.5499429 17.12570416 -7.55997658 15.5532074 C-7.57226812 13.35746786 -7.56559455 11.16258303 -7.55397034 8.96685791 C-7.55459976 7.71602417 -7.55522919 6.46519043 -7.55587769 5.17645264 C-7.43238449 4.21203247 -7.3088913 3.2476123 -7.18165588 2.25396729 C-4.10090914 0.20013613 -3.47548887 0.00354414 0 0 Z " fill="#F5FAFA" transform="translate(60.18165588378906,58.74603271484375)"/>
<path d="M0 0 C0.85106323 -0.00563965 1.70212646 -0.0112793 2.57897949 -0.01708984 C3.9747245 -0.01101715 3.9747245 -0.01101715 5.39866638 -0.00482178 C6.3810025 -0.00832642 7.36333862 -0.01183105 8.3754425 -0.01544189 C11.6286166 -0.02425813 14.88157398 -0.01841082 18.13475037 -0.01165771 C20.3901168 -0.01300429 22.64548295 -0.01494475 24.90084839 -0.01745605 C29.62947857 -0.02040708 34.35803325 -0.0161099 39.08665466 -0.0067749 C45.15890535 0.00462609 51.23097939 -0.00194414 57.30322361 -0.01391983 C61.96050355 -0.0211334 66.61774133 -0.01885293 71.27502251 -0.01366425 C73.51461241 -0.0123267 75.75420609 -0.01397913 77.99379158 -0.01862335 C81.11843694 -0.02368102 84.24279269 -0.01598928 87.36741638 -0.00482178 C88.29993729 -0.00887024 89.23245819 -0.0129187 90.1932373 -0.01708984 C91.04148071 -0.0114502 91.88972412 -0.00581055 92.76367188 0 C93.50274056 0.00075405 94.24180925 0.0015081 95.00327396 0.002285 C96.81834412 0.25396729 96.81834412 0.25396729 98.81834412 2.25396729 C99.0723114 5.17645264 99.0723114 5.17645264 99.07713318 8.96685791 C99.08063782 9.65644089 99.08414246 10.34602386 99.0877533 11.0565033 C99.09657241 13.34117634 99.09072099 15.62554097 99.08396912 17.91021729 C99.08531572 19.49440572 99.08725621 21.07859375 99.08976746 22.66278076 C99.09271896 25.98504567 99.08842029 29.30720313 99.0790863 32.62945557 C99.06769169 36.89358319 99.07425104 41.15745907 99.08623123 45.42157745 C99.09344917 48.69346014 99.09116222 51.96528289 99.08597565 55.23716736 C99.08463896 56.8096876 99.08628753 58.38221323 99.09093475 59.95472717 C99.09599897 62.15032421 99.08829161 64.34551032 99.07713318 66.54107666 C99.07554199 67.7919104 99.07395081 69.04274414 99.0723114 70.33148193 C98.81834412 73.25396729 98.81834412 73.25396729 96.81834412 75.25396729 C94.98486328 75.50564957 94.98486328 75.50564957 92.71897888 75.50793457 C91.4318248 75.51639404 91.4318248 75.51639404 90.1186676 75.52502441 C89.17522491 75.52097595 88.23178223 75.51692749 87.25975037 75.51275635 C86.2678067 75.51626099 85.27586304 75.51976562 84.25386047 75.52337646 C80.96278461 75.53220577 77.67192231 75.52634036 74.38084412 75.51959229 C72.1016282 75.52093859 69.82241256 75.52287883 67.54319763 75.52539062 C62.76151298 75.52834352 57.97990293 75.52403892 53.19822693 75.51470947 C47.05756695 75.5033149 40.91708178 75.50987348 34.77642822 75.5218544 C30.06853408 75.52906853 25.36068163 75.52678713 20.65278625 75.52159882 C18.38807657 75.52026108 16.12336315 75.52191434 13.85865784 75.52655792 C10.69798194 75.53161578 7.53759234 75.52392326 4.37693787 75.51275635 C2.96177383 75.51882904 2.96177383 75.51882904 1.51802063 75.52502441 C0.65991791 75.51938477 -0.19818481 75.51374512 -1.08229065 75.50793457 C-1.8300325 75.50718052 -2.57777435 75.50642647 -3.34817505 75.50564957 C-5.18165588 75.25396729 -5.18165588 75.25396729 -7.18165588 73.25396729 C-7.44235229 70.33148193 -7.44235229 70.33148193 -7.45631409 66.54107666 C-7.46142502 65.85149368 -7.46653595 65.16191071 -7.47180176 64.45143127 C-7.48572825 62.16677224 -7.48473893 59.88241378 -7.48243713 57.59771729 C-7.48632206 56.01352831 -7.4906563 54.42934038 -7.49542236 52.84515381 C-7.5028909 49.52289454 -7.50258851 46.20074153 -7.49732971 42.878479 C-7.49153056 38.61426989 -7.50847345 34.35049448 -7.53167439 30.08635712 C-7.54638189 26.81446781 -7.54728759 23.54268372 -7.54416466 20.27076721 C-7.54467926 18.69823853 -7.5499429 17.12570416 -7.55997658 15.5532074 C-7.57226812 13.35746786 -7.56559455 11.16258303 -7.55397034 8.96685791 C-7.55459976 7.71602417 -7.55522919 6.46519043 -7.55587769 5.17645264 C-7.43238449 4.21203247 -7.3088913 3.2476123 -7.18165588 2.25396729 C-4.10090914 0.20013613 -3.47548887 0.00354414 0 0 Z M-1.18165588 7.25396729 C-1.49443796 9.45523202 -1.49443796 9.45523202 -1.45631409 12.02325439 C-1.4658461 13.01445786 -1.47537811 14.00566132 -1.48519897 15.02690125 C-1.48428757 16.10085648 -1.48337616 17.17481171 -1.48243713 18.28131104 C-1.48672226 19.38116837 -1.49100739 20.4810257 -1.49542236 21.61421204 C-1.50117334 23.94358633 -1.5016603 26.27297859 -1.49732971 28.60235596 C-1.49417187 32.17338613 -1.51761286 35.74358664 -1.54298401 39.31451416 C-1.54525706 41.57427874 -1.54596047 43.83404555 -1.54493713 46.09381104 C-1.55414688 47.16574203 -1.56335663 48.23767303 -1.57284546 49.34208679 C-1.56661667 50.33644241 -1.56038788 51.33079803 -1.55397034 52.35528564 C-1.55459976 53.23083603 -1.55522919 54.10638641 -1.55587769 55.00846863 C-1.34244725 57.30496719 -1.34244725 57.30496719 0.09083557 59.03311157 C2.17147886 60.50353281 3.29899081 60.64640651 5.83079529 60.68634033 C6.63139877 60.70613449 7.43200226 60.72592865 8.25686646 60.74632263 C9.54606743 60.75590752 9.54606743 60.75590752 10.86131287 60.76568604 C11.74490982 60.78363724 12.62850677 60.80158844 13.53887939 60.82008362 C16.36115242 60.87426724 19.18325556 60.90810789 22.00584412 60.94146729 C23.91927926 60.97463328 25.83269196 61.00912226 27.74607849 61.04498291 C32.43671127 61.12999828 37.12729296 61.19677091 41.81834412 61.25396729 C41.80674255 61.89205322 41.79514099 62.53013916 41.78318787 63.18756104 C41.77416443 64.0138501 41.76514099 64.84013916 41.75584412 65.69146729 C41.74424255 66.51517822 41.73264099 67.33888916 41.72068787 68.18756104 C41.58567064 70.24560667 41.58567064 70.24560667 42.81834412 71.25396729 C44.48451527 71.29460561 46.15222506 71.29668829 47.81834412 71.25396729 C47.81834412 70.59396729 47.81834412 69.93396729 47.81834412 69.25396729 C48.80834412 68.92396729 49.79834412 68.59396729 50.81834412 68.25396729 C51.74227576 66.39199782 51.74227576 66.39199782 51.81834412 64.25396729 C51.15834412 63.26396729 50.49834412 62.27396729 49.81834412 61.25396729 C51.60450134 61.22423828 51.60450134 61.22423828 53.42674255 61.19390869 C57.84752943 61.11779734 62.26798955 61.02908834 66.6884613 60.93658447 C68.60115606 60.89831761 70.51392222 60.86346071 72.42674255 60.83209229 C75.17732754 60.78639202 77.92742195 60.72840584 80.67771912 60.66802979 C81.95917816 60.65070297 81.95917816 60.65070297 83.26652527 60.63302612 C84.06705322 60.61315643 84.86758118 60.59328674 85.69236755 60.57281494 C86.39408081 60.55949127 87.09579407 60.5461676 87.81877136 60.53244019 C90.13677491 60.20962064 91.78968096 59.3952369 93.81834412 58.25396729 C93.89429664 51.18820059 93.94690272 44.12253884 93.98313904 37.05645752 C93.99824227 34.6517951 94.0187262 32.2471603 94.04466248 29.84259033 C94.08097762 26.38980298 94.09805512 22.93737925 94.11131287 19.48443604 C94.12679672 18.40623093 94.14228058 17.32802582 94.15823364 16.21714783 C94.15846024 15.21633682 94.15868683 14.21552582 94.15892029 13.18438721 C94.16558212 12.30280441 94.17224396 11.42122162 94.17910767 10.51292419 C93.73316 7.72057847 92.99176244 7.00798012 90.81834412 5.25396729 C87.89044193 4.96287555 85.17609073 4.8546082 82.24778748 4.88165283 C81.37274063 4.87800217 80.49769379 4.8743515 79.59613037 4.87059021 C76.69995293 4.86247545 73.80433331 4.87610142 70.90818787 4.89068604 C68.89944458 4.89120448 66.89070079 4.89068737 64.88195801 4.88917542 C60.67114188 4.88926518 56.46051705 4.89970364 52.2497406 4.91778564 C46.84334513 4.94048748 41.43722894 4.9410147 36.03079891 4.934268 C31.88306176 4.93093218 27.73538867 4.93755055 23.58766365 4.94739723 C21.59369301 4.95125512 19.59971525 4.95239502 17.6057415 4.95081139 C14.82352401 4.95044194 12.04166939 4.96302655 9.25950623 4.97930908 C8.42984344 4.97683167 7.60018066 4.97435425 6.74537659 4.97180176 C2.31123424 4.83154593 2.31123424 4.83154593 -1.18165588 7.25396729 Z " fill="#F9FCFC" transform="translate(60.18165588378906,58.74603271484375)"/>
<path d="M0 0 C0.82966278 0.00247742 1.65932556 0.00495483 2.51412964 0.00750732 C3.38742416 0.00239639 4.26071869 -0.00271454 5.16047668 -0.00798035 C8.05715727 -0.02191952 10.95360108 -0.02091632 13.85031128 -0.01861572 C15.85808908 -0.02250032 17.86586606 -0.0268345 19.87364197 -0.03160095 C24.08618837 -0.03907251 28.29865098 -0.03876516 32.51119995 -0.0335083 C37.9164561 -0.02771292 43.32136969 -0.04464185 48.72656918 -0.06785297 C52.87434402 -0.08256656 57.02203592 -0.08346525 61.16983223 -0.08034325 C63.16298666 -0.08085767 65.1561456 -0.08611803 67.14927483 -0.09615517 C69.93388158 -0.10845608 72.71781536 -0.10176616 75.50241089 -0.09014893 C76.33004944 -0.09779266 77.15768799 -0.1054364 78.01040649 -0.11331177 C83.64752094 -0.06118245 83.64752094 -0.06118245 85.78567314 1.66436958 C87.56432522 3.899675 87.43496655 5.37762788 87.4135437 8.21258545 C87.41331711 9.21339645 87.41309052 10.21420746 87.41285706 11.24534607 C87.3973732 12.32355118 87.38188934 13.40175629 87.36593628 14.51263428 C87.36169144 15.61819168 87.35744659 16.72374908 87.35307312 17.86280823 C87.3362619 21.39867364 87.29860438 24.93397198 87.26046753 28.46966553 C87.24542389 30.8648396 87.23173493 33.26002259 87.2194519 35.6552124 C87.18635038 41.53105738 87.13612646 47.40657094 87.07296753 53.28216553 C84.25041663 54.87005437 82.17920552 55.53964202 78.94699097 55.60101318 C78.14646301 55.62088287 77.34593506 55.64075256 76.52114868 55.66122437 C75.23968964 55.67855118 75.23968964 55.67855118 73.93234253 55.69622803 C73.05016052 55.71559418 72.16797852 55.73496033 71.25906372 55.75491333 C68.44712937 55.81459401 65.63515383 55.86104836 62.82296753 55.90716553 C60.91409572 55.94535591 59.00524094 55.98440826 57.09640503 56.02435303 C52.42206457 56.1202861 47.74764344 56.20435969 43.07296753 56.28216553 C43.4210144 56.89575928 43.76906128 57.50935303 44.12765503 58.14154053 C44.43960815 58.84794678 44.75156128 59.55435303 45.07296753 60.28216553 C44.19796753 62.53216553 44.19796753 62.53216553 43.07296753 64.28216553 C42.41296753 64.28216553 41.75296753 64.28216553 41.07296753 64.28216553 C41.07296753 64.94216553 41.07296753 65.60216553 41.07296753 66.28216553 C39.40684848 66.32488653 37.73913868 66.32280385 36.07296753 66.28216553 C35.07296753 65.28216553 35.07296753 65.28216553 34.97531128 63.21575928 C34.98691284 62.39204834 34.9985144 61.5683374 35.01046753 60.71966553 C35.01949097 59.89337646 35.0285144 59.0670874 35.03781128 58.21575928 C35.04941284 57.57767334 35.0610144 56.9395874 35.07296753 56.28216553 C33.27895508 56.26029175 33.27895508 56.26029175 31.44869995 56.23797607 C27.01480078 56.18003966 22.58141195 56.10280678 18.1479187 56.01971436 C16.22840655 55.98644303 14.30879605 55.95841799 12.38912964 55.93572998 C9.63097181 55.90222432 6.8737171 55.8499115 4.11593628 55.79388428 C2.82673531 55.78429939 2.82673531 55.78429939 1.51148987 55.77452087 C0.71088638 55.75472672 -0.0897171 55.73493256 -0.9145813 55.71453857 C-1.61851517 55.70343552 -2.32244904 55.69233246 -3.04771423 55.68089294 C-5.56567445 55.14666742 -6.43441818 54.36907635 -7.92703247 52.28216553 C-8.30125427 50.03666687 -8.30125427 50.03666687 -8.29934692 47.38348389 C-8.30557571 46.38912827 -8.3118045 45.39477264 -8.31822205 44.37028503 C-8.30440742 42.76238853 -8.30440742 42.76238853 -8.29031372 41.12200928 C-8.29106148 39.47078819 -8.29106148 39.47078819 -8.29182434 37.78620911 C-8.28948303 35.45858963 -8.27975125 33.13096767 -8.26321411 30.80340576 C-8.23960302 27.23034161 -8.24265523 23.65802231 -8.2492981 20.0848999 C-8.24372218 17.82643189 -8.23661284 15.56796703 -8.22781372 13.30950928 C-8.22872513 12.23555405 -8.22963654 11.16159882 -8.23057556 10.05509949 C-8.22104355 9.06389603 -8.21151154 8.07269257 -8.20169067 7.05145264 C-8.19708328 6.17669785 -8.19247589 5.30194305 -8.18772888 4.40068054 C-7.583135 -0.5124719 -4.13617904 0.03877797 0 0 Z M-5.92703247 3.28216553 C-5.96767079 4.94833668 -5.96975347 6.61604648 -5.92703247 8.28216553 C-1.33720454 8.33181419 3.25246507 8.36800225 7.84249878 8.39202881 C9.40209682 8.4020511 10.96167623 8.41567258 12.52120972 8.43304443 C14.77028007 8.45745963 17.01910075 8.46868643 19.26828003 8.47747803 C20.30458054 8.49296188 20.30458054 8.49296188 21.36181641 8.50875854 C25.63658089 8.50973662 29.13931716 7.98229623 33.07296753 6.28216553 C33.40296753 5.62216553 33.73296753 4.96216553 34.07296753 4.28216553 C35.06296753 4.28216553 36.05296753 4.28216553 37.07296753 4.28216553 C37.07296753 5.27216553 37.07296753 6.26216553 37.07296753 7.28216553 C35.43328003 7.49872803 35.43328003 7.49872803 33.76046753 7.71966553 C30.14173766 8.16504657 30.14173766 8.16504657 27.07296753 9.28216553 C24.56241848 9.43513023 22.07408228 9.53911731 19.56124878 9.59857178 C18.83302414 9.61935287 18.1047995 9.64013397 17.35450745 9.6615448 C15.03158878 9.72685299 12.70855847 9.7858379 10.38546753 9.84466553 C8.80928418 9.88786858 7.23311205 9.93148345 5.6569519 9.9755249 C1.79573778 10.08251512 -2.0655885 10.18383514 -5.92703247 10.28216553 C-5.92703247 14.90216553 -5.92703247 19.52216553 -5.92703247 24.28216553 C-2.29703247 24.28216553 1.33296753 24.28216553 5.07296753 24.28216553 C5.07296753 23.29216553 5.07296753 22.30216553 5.07296753 21.28216553 C6.72296753 20.95216553 8.37296753 20.62216553 10.07296753 20.28216553 C9.74296753 18.96216553 9.41296753 17.64216553 9.07296753 16.28216553 C11.71296753 15.95216553 14.35296753 15.62216553 17.07296753 15.28216553 C17.07296753 14.29216553 17.07296753 13.30216553 17.07296753 12.28216553 C18.72296753 11.95216553 20.37296753 11.62216553 22.07296753 11.28216553 C22.07296753 12.27216553 22.07296753 13.26216553 22.07296753 14.28216553 C23.39296753 14.28216553 24.71296753 14.28216553 26.07296753 14.28216553 C26.07296753 13.62216553 26.07296753 12.96216553 26.07296753 12.28216553 C28.54796753 12.77716553 28.54796753 12.77716553 31.07296753 13.28216553 C31.13484253 13.90091553 31.19671753 14.51966553 31.26046753 15.15716553 C31.52859253 15.85841553 31.79671753 16.55966553 32.07296753 17.28216553 C32.89796753 17.57091553 33.72296753 17.85966553 34.57296753 18.15716553 C35.39796753 18.52841553 36.22296753 18.89966553 37.07296753 19.28216553 C37.88546753 22.40716553 37.88546753 22.40716553 38.07296753 25.28216553 C39.06296753 25.28216553 40.05296753 25.28216553 41.07296753 25.28216553 C41.07296753 26.93216553 41.07296753 28.58216553 41.07296753 30.28216553 C40.41296753 30.28216553 39.75296753 30.28216553 39.07296753 30.28216553 C39.07296753 32.92216553 39.07296753 35.56216553 39.07296753 38.28216553 C38.08296753 38.61216553 37.09296753 38.94216553 36.07296753 39.28216553 C34.84776489 42.29063971 34.84776489 42.29063971 34.07296753 45.28216553 C30.60796753 45.77716553 30.60796753 45.77716553 27.07296753 46.28216553 C27.07296753 47.27216553 27.07296753 48.26216553 27.07296753 49.28216553 C25.42296753 49.28216553 23.77296753 49.28216553 22.07296753 49.28216553 C22.07296753 48.62216553 22.07296753 47.96216553 22.07296753 47.28216553 C19.43296753 47.28216553 16.79296753 47.28216553 14.07296753 47.28216553 C13.84609253 46.66341553 13.61921753 46.04466553 13.38546753 45.40716553 C11.69366918 42.66806344 10.08052592 42.23192081 7.07296753 41.28216553 C7.07296753 39.63216553 7.07296753 37.98216553 7.07296753 36.28216553 C6.08296753 36.28216553 5.09296753 36.28216553 4.07296753 36.28216553 C4.07296753 35.29216553 4.07296753 34.30216553 4.07296753 33.28216553 C0.77296753 33.28216553 -2.52703247 33.28216553 -5.92703247 33.28216553 C-5.92703247 39.55216553 -5.92703247 45.82216553 -5.92703247 52.28216553 C23.77296753 52.28216553 53.47296753 52.28216553 84.07296753 52.28216553 C84.07296753 50.30216553 84.07296753 48.32216553 84.07296753 46.28216553 C79.4831396 46.23251686 74.89346999 46.1963288 70.30343628 46.17230225 C68.74383824 46.16227995 67.18425883 46.14865847 65.62472534 46.13128662 C63.37565499 46.10687143 61.12683431 46.09564463 58.87765503 46.08685303 C58.18678802 46.07653046 57.49592102 46.06620789 56.78411865 46.05557251 C52.50935417 46.05459444 49.0066179 46.58203483 45.07296753 48.28216553 C44.57796753 49.27216553 44.57796753 49.27216553 44.07296753 50.28216553 C42.01046753 50.90716553 42.01046753 50.90716553 40.07296753 51.28216553 C40.07296753 49.96216553 40.07296753 48.64216553 40.07296753 47.28216553 C41.74359253 47.31310303 41.74359253 47.31310303 43.44796753 47.34466553 C46.90512674 47.5459727 46.90512674 47.5459727 49.07296753 46.28216553 C51.69677066 46.1255567 54.29821605 46.02387473 56.92453003 45.96575928 C57.69856171 45.94497818 58.47259338 45.92419708 59.27008057 45.90278625 C61.74595145 45.83733105 64.22192955 45.77842466 66.69796753 45.71966553 C68.37506201 45.67647646 70.0521456 45.63286205 71.72921753 45.58880615 C75.84369061 45.48165382 79.95827167 45.38037508 84.07296753 45.28216553 C84.07296753 43.30216553 84.07296753 41.32216553 84.07296753 39.28216553 C80.67720691 39.22385766 77.28157603 39.18846607 73.88546753 39.15716553 C72.9257605 39.14040771 71.96605347 39.1236499 70.9772644 39.10638428 C70.04591675 39.09993896 69.11456909 39.09349365 68.15499878 39.08685303 C67.30139771 39.07637939 66.44779663 39.06590576 65.56832886 39.05511475 C62.76569938 39.31012359 60.62567334 40.12675131 58.07296753 41.28216553 C58.07296753 41.94216553 58.07296753 42.60216553 58.07296753 43.28216553 C56.75296753 43.28216553 55.43296753 43.28216553 54.07296753 43.28216553 C54.07296753 41.96216553 54.07296753 40.64216553 54.07296753 39.28216553 C55.71265503 39.31310303 55.71265503 39.31310303 57.38546753 39.34466553 C61.01680943 39.46761005 61.01680943 39.46761005 64.07296753 38.28216553 C65.62563406 38.13569412 67.18292415 38.03522479 68.74093628 37.96575928 C69.54555298 37.92765137 70.35016968 37.88954346 71.1791687 37.85028076 C72.19599731 37.80717773 73.21282593 37.76407471 74.26046753 37.71966553 C77.49859253 37.57529053 80.73671753 37.43091553 84.07296753 37.28216553 C84.07296753 27.38216553 84.07296753 17.48216553 84.07296753 7.28216553 C77.66925232 7.98402313 77.66925232 7.98402313 74.07296753 9.28216553 C73.74296753 9.94216553 73.41296753 10.60216553 73.07296753 11.28216553 C71.01046753 11.90716553 71.01046753 11.90716553 69.07296753 12.28216553 C69.07296753 10.63216553 69.07296753 8.98216553 69.07296753 7.28216553 C69.87734253 7.48841553 70.68171753 7.69466553 71.51046753 7.90716553 C76.0307507 8.38298481 79.72411279 7.45152425 84.07296753 6.28216553 C83.57796753 4.30216553 83.57796753 4.30216553 83.07296753 2.28216553 C71.61646737 2.25904311 60.15997272 2.24125096 48.70345402 2.23035336 C43.3843154 2.2251243 38.06519269 2.21802626 32.74606323 2.20672607 C27.61732768 2.19589798 22.48860747 2.18988886 17.35986137 2.18728828 C15.39855139 2.18543389 13.43724229 2.18181302 11.4759388 2.17643547 C8.73881306 2.16922607 6.00175155 2.16817454 3.26461792 2.16864014 C2.44534821 2.16504486 1.62607849 2.16144958 0.78198242 2.15774536 C-2.87206685 1.81661053 -2.87206685 1.81661053 -5.92703247 3.28216553 Z " fill="#295478" transform="translate(66.92703247070313,63.71783447265625)"/>
<path d="M0 0 C3.3 0 6.6 0 10 0 C10 0.99 10 1.98 10 3 C10.99 3 11.98 3 13 3 C13 4.65 13 6.3 13 8 C14.4540625 8.6496875 14.4540625 8.6496875 15.9375 9.3125 C19 11 19 11 20 14 C22.64 14 25.28 14 28 14 C28 14.66 28 15.32 28 16 C29.65 16 31.3 16 33 16 C33 15.01 33 14.02 33 13 C36.465 12.505 36.465 12.505 40 12 C40.268125 11.030625 40.53625 10.06125 40.8125 9.0625 C41.204375 8.051875 41.59625 7.04125 42 6 C42.99 5.67 43.98 5.34 45 5 C46.20882096 2.99983534 46.20882096 2.99983534 47 1 C47 3.31 47 5.62 47 8 C46.34 8.33 45.68 8.66 45 9 C45 9.66 45 10.32 45 11 C46.8871875 11.0309375 46.8871875 11.0309375 48.8125 11.0625 C49.52019531 11.07410156 50.22789063 11.08570312 50.95703125 11.09765625 C53.20305461 11.08263217 53.20305461 11.08263217 56 10 C57.39439664 9.93334624 58.79169875 9.91461801 60.1875 9.9375 C62.0746875 9.9684375 62.0746875 9.9684375 64 10 C64 9.34 64 8.68 64 8 C67.51827628 6.40754605 70.22697352 5.75738618 74.08203125 5.8046875 C75.01337891 5.81113281 75.94472656 5.81757812 76.90429688 5.82421875 C77.86400391 5.84097656 78.82371094 5.85773438 79.8125 5.875 C80.79154297 5.88402344 81.77058594 5.89304687 82.77929688 5.90234375 C85.18645061 5.92582818 87.59309743 5.9586716 90 6 C90 7.98 90 9.96 90 12 C88.95021973 12.02505615 87.90043945 12.0501123 86.81884766 12.07592773 C82.93118676 12.16996267 79.04370619 12.2701928 75.15625 12.37231445 C73.47237358 12.41567817 71.78845277 12.4573522 70.10449219 12.49731445 C67.68671276 12.55498234 65.26915705 12.6186865 62.8515625 12.68359375 C61.71867294 12.70866249 61.71867294 12.70866249 60.56289673 12.73423767 C56.65260201 12.77555107 56.65260201 12.77555107 53 14 C50.6670134 14.04022391 48.33293334 14.04320247 46 14 C46 15.32 46 16.64 46 18 C47.97536745 17.65213292 47.97536745 17.65213292 50 17 C50.33 16.34 50.66 15.68 51 15 C55.60497125 13.00972321 59.86372584 12.73086225 64.8046875 12.8046875 C65.5286673 12.8075174 66.25264709 12.81034729 66.99856567 12.81326294 C69.2908849 12.82437913 71.58280063 12.84946688 73.875 12.875 C75.43749432 12.8850409 76.99999482 12.89416481 78.5625 12.90234375 C82.37515338 12.92429027 86.18750848 12.95875987 90 13 C90 14.98 90 16.96 90 19 C60.3 19 30.6 19 0 19 C0 12.73 0 6.46 0 0 Z " fill="#EEF6F8" transform="translate(61,97)"/>
<path d="M0 0 C14.52 0 29.04 0 44 0 C44 5.28 44 10.56 44 16 C29.48 16 14.96 16 0 16 C0 10.72 0 5.44 0 0 Z " fill="#F7FAFC" transform="translate(85,137)"/>
<path d="M0 0 C0 0.66 0 1.32 0 2 C1.32 2 2.64 2 4 2 C4 1.34 4 0.68 4 0 C8.75 0.875 8.75 0.875 11 2 C11.625 4.5625 11.625 4.5625 12 7 C13.32 7.33 14.64 7.66 16 8 C16 9.98 16 11.96 16 14 C15.01 14 14.02 14 13 14 C13 15.65 13 17.3 13 19 C13.66 19 14.32 19 15 19 C14.01 21.475 14.01 21.475 13 24 C10.69 24 8.38 24 6 24 C6 25.32 6 26.64 6 28 C3.69 28 1.38 28 -1 28 C-1.33 27.01 -1.66 26.02 -2 25 C-2.763125 25.0825 -3.52625 25.165 -4.3125 25.25 C-7 25 -7 25 -8.8125 23.125 C-10 21 -10 21 -10 19 C-9.34 19 -8.68 19 -8 19 C-8.33 17.35 -8.66 15.7 -9 14 C-9.66 14 -10.32 14 -11 14 C-11 12.02 -11 10.04 -11 8 C-9.68 7.67 -8.36 7.34 -7 7 C-6.9175 6.21625 -6.835 5.4325 -6.75 4.625 C-6 2 -6 2 -4.0625 0.6875 C-2 0 -2 0 0 0 Z " fill="#2A6291" transform="translate(122,72)"/>
<path d="M0 0 C0 0.99 0 1.98 0 3 C1.32 3 2.64 3 4 3 C4 2.34 4 1.68 4 1 C6.375 1.25 6.375 1.25 9 2 C9.69937532 3.31647119 10.36729133 4.65022151 11 6 C13.05000871 6.80528889 13.05000871 6.80528889 15 7 C16 11.75 16 11.75 16 14 C16.99 14 17.98 14 19 14 C19 15.65 19 17.3 19 19 C18.34 19 17.68 19 17 19 C17.20625 20.27875 17.4125 21.5575 17.625 22.875 C17.9765625 25.0546875 17.9765625 25.0546875 18 27 C17.34 27.66 16.68 28.32 16 29 C15.34 28.67 14.68 28.34 14 28 C14.04125 28.78375 14.0825 29.5675 14.125 30.375 C14 33 14 33 12 35 C8.375 35.125 8.375 35.125 5 35 C5 35.99 5 36.98 5 38 C3.35 38 1.7 38 0 38 C0 37.34 0 36.68 0 36 C-2.64 36.33 -5.28 36.66 -8 37 C-8.226875 36.38125 -8.45375 35.7625 -8.6875 35.125 C-10.38416443 32.3780195 -12.05251711 32.13364727 -15 31 C-16 28 -16 28 -15 25 C-15.99 24.67 -16.98 24.34 -18 24 C-17.34 23.67 -16.68 23.34 -16 23 C-16.66 22.34 -17.32 21.68 -18 21 C-18.33 20.34 -18.66 19.68 -19 19 C-18.01 19 -17.02 19 -16 19 C-15.67 18.34 -15.34 17.68 -15 17 C-14.67 18.32 -14.34 19.64 -14 21 C-12.27054347 20.85764543 -10.54144346 20.71095618 -8.8125 20.5625 C-7.84957031 20.48128906 -6.88664062 20.40007812 -5.89453125 20.31640625 C-3.21350398 20.02333849 -0.6337014 19.57296246 2 19 C2.33 18.01 2.66 17.02 3 16 C4.32 16.33 5.64 16.66 7 17 C6.67 18.32 6.34 19.64 6 21 C-0.04829486 21.89604368 -5.8894576 22.11269443 -12 22 C-11.21448343 23.31618998 -10.4213763 24.62785228 -9.625 25.9375 C-9.18414062 26.66839844 -8.74328125 27.39929688 -8.2890625 28.15234375 C-7.1226016 30.13772272 -7.1226016 30.13772272 -5 31 C0.16232393 31.44395986 5.3600535 31.48972739 10 29 C12.27038492 24.66562878 12.77689641 19.8148395 12 15 C10.31108473 11.62216946 8.96839703 9.63637519 5.8125 7.5625 C1.73451065 6.74690213 -1.97718111 6.92674795 -6 8 C-8.54906626 9.87432505 -8.54906626 9.87432505 -10 12 C-7.64828869 11.40138258 -5.3140622 10.73075648 -3 10 C-2.67 9.34 -2.34 8.68 -2 8 C-0.68 8 0.64 8 2 8 C2 9.65 2 11.3 2 13 C1.00097656 13.04898438 0.00195312 13.09796875 -1.02734375 13.1484375 C-2.31769531 13.22320312 -3.60804687 13.29796875 -4.9375 13.375 C-6.22527344 13.44460937 -7.51304688 13.51421875 -8.83984375 13.5859375 C-9.88269531 13.72257812 -10.92554687 13.85921875 -12 14 C-12.33 14.66 -12.66 15.32 -13 16 C-15 14.6875 -15 14.6875 -17 13 C-17 12.01 -17 11.02 -17 10 C-15.35 9.67 -13.7 9.34 -12 9 C-12.33 7.68 -12.66 6.36 -13 5 C-10.64561267 3.57055055 -9.51967567 2.91338739 -6.75 3.375 C-6.1725 3.58125 -5.595 3.7875 -5 4 C-5 3.01 -5 2.02 -5 1 C-3 0 -3 0 0 0 Z " fill="#265F8F" transform="translate(89,75)"/>
<path d="M0 0 C0.81926971 0.00359528 1.63853943 0.00719055 2.4826355 0.01089478 C3.34109573 0.01074875 4.19955597 0.01060272 5.08403015 0.01045227 C7.93559249 0.0111517 10.78709036 0.01894547 13.63864136 0.02676392 C15.61019353 0.02862799 17.58174615 0.03005194 19.55329895 0.03105164 C24.75324778 0.03487765 29.95316886 0.04470865 35.15310669 0.05575562 C40.45492172 0.06596794 45.75674121 0.07054887 51.05856323 0.07559204 C61.46938274 0.08633084 71.88018162 0.10340826 82.29098511 0.12442017 C82.78598511 2.10442017 82.78598511 2.10442017 83.29098511 4.12442017 C81.35515001 4.48757683 79.41723263 4.83964748 77.47848511 5.18692017 C76.39953979 5.38414673 75.32059448 5.58137329 74.20895386 5.78457642 C71.29098511 6.12442017 71.29098511 6.12442017 68.29098511 5.12442017 C68.29098511 6.77442017 68.29098511 8.42442017 68.29098511 10.12442017 C70.26635256 9.77655308 70.26635256 9.77655308 72.29098511 9.12442017 C72.62098511 8.46442017 72.95098511 7.80442017 73.29098511 7.12442017 C75.85348511 6.49942017 75.85348511 6.49942017 78.29098511 6.12442017 C77.48661011 6.74317017 76.68223511 7.36192017 75.85348511 7.99942017 C72.55284763 11.20734311 72.65344115 14.59703688 72.52926636 19.01504517 C72.45063354 19.71113892 72.37200073 20.40723267 72.29098511 21.12442017 C71.63098511 21.45442017 70.97098511 21.78442017 70.29098511 22.12442017 C69.79598511 23.60942017 69.79598511 23.60942017 69.29098511 25.12442017 C68.63098511 25.12442017 67.97098511 25.12442017 67.29098511 25.12442017 C67.29098511 23.47442017 67.29098511 21.82442017 67.29098511 20.12442017 C68.28098511 20.12442017 69.27098511 20.12442017 70.29098511 20.12442017 C69.79598511 17.15442017 69.79598511 17.15442017 69.29098511 14.12442017 C68.33192261 13.96973267 68.33192261 13.96973267 67.35348511 13.81192017 C66.67286011 13.58504517 65.99223511 13.35817017 65.29098511 13.12442017 C64.79598511 11.63942017 64.79598511 11.63942017 64.29098511 10.12442017 C64.62098511 9.46442017 64.95098511 8.80442017 65.29098511 8.12442017 C62.98098511 7.46442017 60.67098511 6.80442017 58.29098511 6.12442017 C58.29098511 6.78442017 58.29098511 7.44442017 58.29098511 8.12442017 C56.97098511 8.12442017 55.65098511 8.12442017 54.29098511 8.12442017 C54.29098511 7.46442017 54.29098511 6.80442017 54.29098511 6.12442017 C51.98098511 7.11442017 49.67098511 8.10442017 47.29098511 9.12442017 C46.63098511 8.46442017 45.97098511 7.80442017 45.29098511 7.12442017 C45.78598511 6.69129517 46.28098511 6.25817017 46.79098511 5.81192017 C48.62316703 4.12701534 48.62316703 4.12701534 48.29098511 1.12442017 C45.85176149 1.21142814 43.41620097 1.31828018 40.97848511 1.43692017 C39.94304565 1.47075806 39.94304565 1.47075806 38.88668823 1.50527954 C34.8995232 1.65002059 34.8995232 1.65002059 31.56051636 3.60488892 C31.14157104 4.10633423 30.72262573 4.60777954 30.29098511 5.12442017 C26.54074939 6.50142862 22.61942726 6.25106173 18.68161011 6.22207642 C17.95480042 6.22066147 17.22799072 6.21924652 16.47915649 6.2177887 C14.16639017 6.21220809 11.85372199 6.19965921 9.54098511 6.18692017 C7.96937193 6.18190266 6.39775722 6.17734019 4.82614136 6.17324829 C0.98105168 6.16224501 -2.86396499 6.14499378 -6.70901489 6.12442017 C-6.75173589 4.45830111 -6.74965321 2.79059132 -6.70901489 1.12442017 C-4.89785866 -0.68673607 -2.41023988 0.00446641 0 0 Z " fill="#F2FAFA" transform="translate(67.70901489257813,65.87557983398438)"/>
<path d="M0 0 C3.43615111 2.12017834 5.80717883 4.09622164 7 8 C7.4477318 13.55187433 7.29052206 17.28358505 4 22 C-0.65944861 25.32817758 -5.44044409 25.91291601 -11 25 C-15.61380177 22.44768413 -16.50638026 19.88942786 -18 15 C-15.56281065 14.66424944 -13.12529385 14.33130715 -10.6875 14 C-9.99720703 13.90460938 -9.30691406 13.80921875 -8.59570312 13.7109375 C-5.70352927 13.31972558 -2.92235023 13 0 13 C0 12.01 0 11.02 0 10 C-0.99 10 -1.98 10 -3 10 C-3.33 10.66 -3.66 11.32 -4 12 C-8.70095261 14.72958539 -13.74719188 14.18359329 -19 14 C-18.67 11.69 -18.34 9.38 -18 7 C-16.23103898 6.63659714 -14.45973374 6.28459117 -12.6875 5.9375 C-11.70136719 5.74027344 -10.71523437 5.54304688 -9.69921875 5.33984375 C-7 5 -7 5 -4 6 C-4 4.35 -4 2.7 -4 1 C-5.32 1 -6.64 1 -8 1 C-8.33 1.99 -8.66 2.98 -9 4 C-11.375 5.25 -11.375 5.25 -14 6 C-14.99 5.67 -15.98 5.34 -17 5 C-11.41667625 -0.88512503 -7.76523962 -1.77413207 0 0 Z " fill="#F1F8F9" transform="translate(95,82)"/>
<path d="M0 0 C0.83123383 0.00404846 1.66246765 0.00809692 2.51889038 0.01226807 C3.3937912 0.00876343 4.26869202 0.00525879 5.17010498 0.00164795 C8.07160296 -0.00717824 10.97285852 -0.00131709 13.87435913 0.00543213 C15.88453214 0.00408573 17.89470482 0.00214542 19.90487671 -0.00036621 C24.12162368 -0.00331868 28.33828604 0.00098411 32.55502319 0.01031494 C37.96928137 0.02170952 43.38334127 0.01515071 48.79759216 0.00317001 C52.94961042 -0.00404527 57.10158142 -0.00176218 61.25360107 0.0034256 C63.25036645 0.00476301 65.24713607 0.00311119 67.24389648 -0.00153351 C70.03098983 -0.0065933 72.81775879 0.00110375 75.60482788 0.01226807 C76.43606171 0.0082196 77.26729553 0.00417114 78.12371826 0 C83.83333114 0.04252914 83.83333114 0.04252914 86.06185913 2.27105713 C86.30236816 4.37179565 86.30236816 4.37179565 86.28890991 6.99615479 C86.28875885 7.97702057 86.28860779 8.95788635 86.28845215 9.96847534 C86.27812958 11.02996796 86.26780701 12.09146057 86.25717163 13.18511963 C86.25434174 14.26989594 86.25151184 15.35467224 86.24859619 16.47232056 C86.23737491 19.94701026 86.21226675 23.42144495 86.18685913 26.89605713 C86.17683185 29.24761591 86.16770557 31.59917873 86.15951538 33.95074463 C86.13742924 39.72426957 86.10393258 45.49764514 86.06185913 51.27105713 C85.73185913 51.27105713 85.40185913 51.27105713 85.06185913 51.27105713 C85.06185913 49.62105713 85.06185913 47.97105713 85.06185913 46.27105713 C80.32944511 46.38980659 75.59721972 46.51408607 70.86508179 46.64337158 C69.25704846 46.68653918 67.64897465 46.72822614 66.04086304 46.76837158 C63.72221708 46.82651719 61.40377152 46.89008104 59.08529663 46.95465088 C58.37255585 46.97136337 57.65981506 46.98807587 56.92547607 47.0052948 C52.88841407 47.12366277 49.02808974 47.50873784 45.06185913 48.27105713 C44.73185913 49.26105713 44.40185913 50.25105713 44.06185913 51.27105713 C42.74185913 51.27105713 41.42185913 51.27105713 40.06185913 51.27105713 C40.06185913 49.95105713 40.06185913 48.63105713 40.06185913 47.27105713 C49.00630684 44.63850821 57.89279408 45.04774045 67.12435913 45.14605713 C68.76953598 45.1561055 70.41471877 45.16522807 72.05990601 45.17340088 C76.06070529 45.1952709 80.06121579 45.22969859 84.06185913 45.27105713 C84.06185913 43.29105713 84.06185913 41.31105713 84.06185913 39.27105713 C80.66573499 39.41056243 77.27004455 39.55878035 73.87435913 39.70855713 C72.9146521 39.74787354 71.95494507 39.78718994 70.96615601 39.82769775 C70.03480835 39.86959229 69.10346069 39.91148682 68.14389038 39.95465088 C67.29028931 39.99130859 66.43668823 40.02796631 65.55722046 40.06573486 C62.99731319 40.27636807 60.5685267 40.71947249 58.06185913 41.27105713 C58.06185913 41.93105713 58.06185913 42.59105713 58.06185913 43.27105713 C56.74185913 43.27105713 55.42185913 43.27105713 54.06185913 43.27105713 C54.06185913 41.95105713 54.06185913 40.63105713 54.06185913 39.27105713 C64.05845479 36.60529829 73.7707728 37.13384264 84.06185913 37.27105713 C84.06185913 27.37105713 84.06185913 17.47105713 84.06185913 7.27105713 C80.76185913 7.93105713 77.46185913 8.59105713 74.06185913 9.27105713 C73.73185913 10.26105713 73.40185913 11.25105713 73.06185913 12.27105713 C71.74185913 12.27105713 70.42185913 12.27105713 69.06185913 12.27105713 C69.06185913 10.62105713 69.06185913 8.97105713 69.06185913 7.27105713 C70.01060913 7.29168213 70.95935913 7.31230713 71.93685913 7.33355713 C74.96852196 7.49657539 74.96852196 7.49657539 77.06185913 6.27105713 C79.39484573 6.23083322 81.72892579 6.22785466 84.06185913 6.27105713 C83.56685913 4.78605713 83.56685913 4.78605713 83.06185913 3.27105713 C54.02185913 3.27105713 24.98185913 3.27105713 -4.93814087 3.27105713 C-5.59814087 4.92105713 -6.25814087 6.57105713 -6.93814087 8.27105713 C-7.26814087 8.27105713 -7.59814087 8.27105713 -7.93814087 8.27105713 C-8.06314087 5.39605713 -8.06314087 5.39605713 -7.93814087 2.27105713 C-5.33864418 -0.32843956 -3.54130862 0.02637811 0 0 Z " fill="#31638E" transform="translate(66.93814086914063,63.72894287109375)"/>
<path d="M0 0 C31.35 0 62.7 0 95 0 C94.67 1.32 94.34 2.64 94 4 C93.34 4 92.68 4 92 4 C91.67 4.99 91.34 5.98 91 7 C90.01 6.01 90.01 6.01 89 5 C86.13996411 4.78222956 83.37392207 4.68856381 80.51123047 4.68115234 C79.63311707 4.67110672 78.75500366 4.6610611 77.85028076 4.65071106 C74.93925652 4.61974744 72.02832478 4.60280745 69.1171875 4.5859375 C67.10221554 4.56723644 65.0872515 4.54766384 63.07229614 4.5272522 C57.76227475 4.47581275 52.45222793 4.43625038 47.14208984 4.39910889 C41.72617239 4.35914312 36.31036176 4.308017 30.89453125 4.2578125 C20.26309575 4.16091342 9.63160009 4.07655355 -1 4 C-0.01 3.67 0.98 3.34 2 3 C2 2.34 2 1.68 2 1 C1.34 0.67 0.68 0.34 0 0 Z " fill="#F8FDFD" transform="translate(62,60)"/>
<path d="M0 0 C0.85395355 -0.00274933 1.7079071 -0.00549866 2.58773804 -0.0083313 C3.98819618 0.00245453 3.98819618 0.00245453 5.41694641 0.01345825 C6.40249512 0.0131662 7.38804382 0.01287415 8.40345764 0.01257324 C11.66626236 0.01396837 14.92883971 0.02953831 18.19160461 0.04519653 C20.45176061 0.04892601 22.71191822 0.05177329 24.97207642 0.05377197 C30.92497714 0.06141356 36.87778049 0.08106663 42.8306427 0.10317993 C48.9034239 0.12362701 54.9762208 0.13277126 61.04902649 0.14285278 C72.96768909 0.16431197 84.88627939 0.1984543 96.80488586 0.24050903 C96.80488586 0.57050903 96.80488586 0.90050903 96.80488586 1.24050903 C50.76988586 1.73550903 50.76988586 1.73550903 3.80488586 2.24050903 C3.80488586 2.90050903 3.80488586 3.56050903 3.80488586 4.24050903 C2.81488586 4.24050903 1.82488586 4.24050903 0.80488586 4.24050903 C-0.1589149 7.13191133 -0.34623438 9.06704826 -0.4004364 12.07913208 C-0.42038162 13.05992233 -0.44032684 14.04071259 -0.46087646 15.05122375 C-0.47758896 16.10755508 -0.49430145 17.16388641 -0.51152039 18.25222778 C-0.53230148 19.33558914 -0.55308258 20.4189505 -0.57449341 21.53514099 C-0.6399321 24.9993652 -0.69884767 28.46366583 -0.75761414 31.92800903 C-0.80080474 34.27502218 -0.84441921 36.62202757 -0.88847351 38.96902466 C-0.9956077 44.72610508 -1.09738478 50.4832617 -1.19511414 56.24050903 C-1.52511414 56.24050903 -1.85511414 56.24050903 -2.19511414 56.24050903 C-2.52511414 41.06050903 -2.85511414 25.88050903 -3.19511414 10.24050903 C-3.85511414 10.24050903 -4.51511414 10.24050903 -5.19511414 10.24050903 C-5.52511414 31.03050903 -5.85511414 51.82050903 -6.19511414 73.24050903 C-6.52511414 73.24050903 -6.85511414 73.24050903 -7.19511414 73.24050903 C-7.26453367 64.01783817 -7.31788422 54.79525682 -7.35055065 45.57238197 C-7.36622657 41.29011451 -7.38749963 37.0080254 -7.4214325 32.7258606 C-7.45395778 28.59561783 -7.47195263 24.46554692 -7.47974586 20.335186 C-7.48530172 18.75705635 -7.4961506 17.17893642 -7.51230431 15.60087967 C-7.53398852 13.39542342 -7.53708495 11.19068312 -7.53569031 8.98513794 C-7.54235214 7.72827179 -7.54901398 6.47140564 -7.55587769 5.17645264 C-7.43682571 4.20759125 -7.31777374 3.23872986 -7.19511414 2.24050903 C-4.10617344 0.18121524 -3.48559611 -0.00865987 0 0 Z " fill="#C3D1E7" transform="translate(60.19511413574219,58.759490966796875)"/>
<path d="M0 0 C0.66 0.33 1.32 0.66 2 1 C2 24.43 2 47.86 2 72 C1.67 72 1.34 72 1 72 C0.96241577 70.8718689 0.96241577 70.8718689 0.92407227 69.72094727 C0.80849486 66.33460804 0.68559655 62.94857387 0.5625 59.5625 C0.52318359 58.37849609 0.48386719 57.19449219 0.44335938 55.97460938 C0.40146484 54.84990234 0.35957031 53.72519531 0.31640625 52.56640625 C0.27974854 51.52427979 0.24309082 50.48215332 0.20532227 49.40844727 C0.26484659 47.0500174 0.26484659 47.0500174 -1 46 C-1.33 49.63 -1.66 53.26 -2 57 C-2.33 57 -2.66 57 -3 57 C-3 39.51 -3 22.02 -3 4 C-2.34 3.67 -1.68 3.34 -1 3 C-0.67 2.01 -0.34 1.02 0 0 Z " fill="#E0E7EF" transform="translate(157,60)"/>
<path d="M0 0 C3.0625 2.5625 3.0625 2.5625 5 5 C4.01 5.66 3.02 6.32 2 7 C1.01 8.485 1.01 8.485 0 10 C-0.99 10 -1.98 10 -3 10 C-3.33 10.66 -3.66 11.32 -4 12 C-8.70095261 14.72958539 -13.74719188 14.18359329 -19 14 C-18.67 11.69 -18.34 9.38 -18 7 C-16.23103898 6.63659714 -14.45973374 6.28459117 -12.6875 5.9375 C-11.70136719 5.74027344 -10.71523437 5.54304688 -9.69921875 5.33984375 C-7 5 -7 5 -4 6 C-4 4.35 -4 2.7 -4 1 C-5.32 1 -6.64 1 -8 1 C-8.33 1.99 -8.66 2.98 -9 4 C-11.375 5.25 -11.375 5.25 -14 6 C-14.99 5.67 -15.98 5.34 -17 5 C-11.53817726 -0.7570564 -7.65831418 -2.02522844 0 0 Z " fill="#E5F2F7" transform="translate(95,82)"/>
<path d="M0 0 C0.99 0 1.98 0 3 0 C3 0.66 3 1.32 3 2 C3.99 1.67 4.98 1.34 6 1 C6.97608217 3.92824652 7.08226668 5.95613276 7 9 C9.31 9.33 11.62 9.66 14 10 C14 10.66 14 11.32 14 12 C13.01 12 12.02 12 11 12 C12.76973468 16.51801377 12.76973468 16.51801377 16.5625 19.25 C17.366875 19.4975 18.17125 19.745 19 20 C21 22 21 22 21 24 C22.65 24.66 24.3 25.32 26 26 C26.66 25.34 27.32 24.68 28 24 C28.99 24 29.98 24 31 24 C31 25.98 31 27.96 31 30 C33.97 30.33 36.94 30.66 40 31 C40 31.66 40 32.32 40 33 C40.99 33.33 41.98 33.66 43 34 C43.33 34.66 43.66 35.32 44 36 C30.13159456 35.72807048 16.51140195 24.6175232 7.03125 15.08984375 C-0.19540613 7.37518067 -0.19540613 7.37518067 -2 2 C-1.34 2 -0.68 2 0 2 C0 1.34 0 0.68 0 0 Z " fill="#0E2440" transform="translate(33,152)"/>
<path d="M0 0 C1 3 1 3 -0.37890625 5.86328125 C-1.08940595 7.02383204 -1.81881841 8.17292743 -2.5625 9.3125 C-3.16118896 10.23204468 -3.16118896 10.23204468 -3.77197266 11.17016602 C-11.38637234 22.37192723 -21.2024657 31.40173303 -33 38 C-33.99 38.66 -34.98 39.32 -36 40 C-36.99 40 -37.98 40 -39 40 C-39.495 38.515 -39.495 38.515 -40 37 C-34.61313869 32.36131387 -34.61313869 32.36131387 -31 32 C-30.01 32.33 -29.02 32.66 -28 33 C-28 32.34 -28 31.68 -28 31 C-27.34 31 -26.68 31 -26 31 C-25.67 29.02 -25.34 27.04 -25 25 C-21.535 24.505 -21.535 24.505 -18 24 C-17.67 21.36 -17.34 18.72 -17 16 C-15.02 16.33 -13.04 16.66 -11 17 C-10.83564453 16.04287109 -10.83564453 16.04287109 -10.66796875 15.06640625 C-10.50941406 14.24011719 -10.35085937 13.41382813 -10.1875 12.5625 C-10.03667969 11.73878906 -9.88585937 10.91507813 -9.73046875 10.06640625 C-9.48941406 9.38449219 -9.24835938 8.70257813 -9 8 C-8.01 7.67 -7.02 7.34 -6 7 C-5.67 6.01 -5.34 5.02 -5 4 C-3.68 4 -2.36 4 -1 4 C-0.67 2.68 -0.34 1.36 0 0 Z " fill="#0E1C33" transform="translate(178,144)"/>
<path d="M0 0 C29.04 0 58.08 0 88 0 C88 0.33 88 0.66 88 1 C74.8 1.33 61.6 1.66 48 2 C48.66 3.32 49.32 4.64 50 6 C49.125 8.25 49.125 8.25 48 10 C47.34 10 46.68 10 46 10 C46 10.66 46 11.32 46 12 C44.33388095 12.042721 42.66617115 12.04063832 41 12 C40.505 11.505 40.505 11.505 40 11 C40 8.03 40 5.06 40 2 C20.2 1.505 20.2 1.505 0 1 C0 0.67 0 0.34 0 0 Z " fill="#A5BED0" transform="translate(62,118)"/>
<path d="M0 0 C12.87 0 25.74 0 39 0 C39 0.99 39 1.98 39 3 C34.32115947 4.83970736 30.16490518 5.26956554 25.1953125 5.1953125 C24.4713327 5.1924826 23.74735291 5.18965271 23.00143433 5.18673706 C20.7091151 5.17562087 18.41719937 5.15053312 16.125 5.125 C14.56250568 5.1149591 13.00000518 5.10583519 11.4375 5.09765625 C7.62484662 5.07570973 3.81249152 5.04124013 0 5 C0 3.35 0 1.7 0 0 Z " fill="#F6FCFC" transform="translate(61,67)"/>
<path d="M0 0 C0.33 0 0.66 0 1 0 C1 15.84 1 31.68 1 48 C0.67 48 0.34 48 0 48 C0 46.35 0 44.7 0 43 C-4.73241403 43.11874946 -9.46463941 43.24302895 -14.19677734 43.37231445 C-15.80481067 43.41548205 -17.41288448 43.45716901 -19.02099609 43.49731445 C-21.33964205 43.55546006 -23.65808761 43.61902391 -25.9765625 43.68359375 C-27.04567368 43.70866249 -27.04567368 43.70866249 -28.13638306 43.73423767 C-32.17344506 43.85260564 -36.03376939 44.23768071 -40 45 C-40.33 45.99 -40.66 46.98 -41 48 C-42.32 48 -43.64 48 -45 48 C-45 46.68 -45 45.36 -45 44 C-36.05555229 41.36745108 -27.16906505 41.77668332 -17.9375 41.875 C-16.29232315 41.88504837 -14.64714036 41.89417094 -13.00195312 41.90234375 C-9.00115385 41.92421377 -5.00064334 41.95864146 -1 42 C-1 40.02 -1 38.04 -1 36 C-4.39612414 36.1395053 -7.79181458 36.28772322 -11.1875 36.4375 C-12.14720703 36.47681641 -13.10691406 36.51613281 -14.09570312 36.55664062 C-15.02705078 36.59853516 -15.95839844 36.64042969 -16.91796875 36.68359375 C-17.77156982 36.72025146 -18.6251709 36.75690918 -19.50463867 36.79467773 C-22.06454594 37.00531094 -24.49333243 37.44841536 -27 38 C-27 38.66 -27 39.32 -27 40 C-28.32 40 -29.64 40 -31 40 C-31 38.68 -31 37.36 -31 36 C-23.86797676 34.28048257 -17.19436733 33.74243252 -9.875 33.875 C-4.986875 33.936875 -4.986875 33.936875 0 34 C0 22.78 0 11.56 0 0 Z " fill="#12395C" transform="translate(152,67)"/>
<path d="M0 0 C2 1.625 2 1.625 3 4 C2.88081199 7.39685818 2.58128695 9.94000615 0.9375 12.9375 C-2.25902171 14.69043126 -5.44932174 14.51780725 -9 14 C-11 13 -11 13 -12 11 C-12.39309578 7.90437069 -12.62338668 5.95663395 -12 3 C-8.38525112 -1.49105164 -5.37641793 -1.59301272 0 0 Z " fill="#F6FAFA" transform="translate(129,79)"/>
<path d="M0 0 C0.33 0 0.66 0 1 0 C1 16.5 1 33 1 50 C-3.28947418 51.07236855 -7.15673489 51.09179198 -11.53222656 51.02172852 C-12.39112488 51.01212097 -13.25002319 51.00251343 -14.13494873 50.99261475 C-16.97025867 50.95966773 -19.80541246 50.91931898 -22.640625 50.87890625 C-24.60788423 50.85460094 -26.57514922 50.83075758 -28.54241943 50.80735779 C-33.71771813 50.7445578 -38.89291477 50.67547952 -44.06811523 50.60510254 C-49.35005042 50.53438224 -54.6320579 50.46958738 -59.9140625 50.40429688 C-70.27612113 50.27533718 -80.63808162 50.1397461 -91 50 C-91 49.67 -91 49.34 -91 49 C-61.63 49 -32.26 49 -2 49 C-2 47.02 -2 45.04 -2 43 C-1.67 43 -1.34 43 -1 43 C-0.67 28.81 -0.34 14.62 0 0 Z " fill="#779DC0" transform="translate(153,67)"/>
<path d="M0 0 C1.39702148 0.00966797 1.39702148 0.00966797 2.82226562 0.01953125 C3.78197266 0.03628906 4.74167969 0.05304688 5.73046875 0.0703125 C6.70951172 0.07933594 7.68855469 0.08835937 8.69726562 0.09765625 C11.10441936 0.12114068 13.51106618 0.1539841 15.91796875 0.1953125 C15.91796875 1.8453125 15.91796875 3.4953125 15.91796875 5.1953125 C7.33796875 5.1953125 -1.24203125 5.1953125 -10.08203125 5.1953125 C-10.08203125 4.2053125 -10.08203125 3.2153125 -10.08203125 2.1953125 C-6.56375497 0.60285855 -3.85505773 -0.04730132 0 0 Z " fill="#F3FBFC" transform="translate(135.08203125,102.8046875)"/>
<path d="M0 0 C15.07766852 5.15533704 15.07766852 5.15533704 17 9 C7.65814373 9.88038436 1.80547698 8.16267768 -6 3 C-6 2.34 -6 1.68 -6 1 C-8.31 1.33 -10.62 1.66 -13 2 C-13 1.34 -13 0.68 -13 0 C-8.93547147 -2.03226426 -4.30082316 -0.89437573 0 0 Z " fill="#0F2642" transform="translate(128,23)"/>
<path d="M0 0 C19.14 0 38.28 0 58 0 C53.50587726 3.37059205 52.66711946 3.32680581 47.3203125 3.0390625 C46.67109833 3.01024994 46.02188416 2.98143738 45.35299683 2.95175171 C43.27595998 2.85772077 41.20080776 2.7428997 39.125 2.625 C36.41970339 2.48152751 33.71416549 2.34850419 31.0078125 2.2265625 C30.34501282 2.19637024 29.68221313 2.16617798 28.99932861 2.1350708 C22.27945892 1.8816802 15.6892892 2.3547604 9 3 C9 2.34 9 1.68 9 1 C6.03 1 3.06 1 0 1 C0 0.67 0 0.34 0 0 Z " fill="#1F365F" transform="translate(77,157)"/>
<path d="M0 0 C29.04 0 58.08 0 88 0 C88.495 1.98 88.495 1.98 89 4 C87.35 4 85.7 4 84 4 C84.33 3.34 84.66 2.68 85 2 C83.77522949 2.00523682 82.55045898 2.01047363 81.28857422 2.01586914 C54.17283243 2.12131953 27.10153215 1.90716426 0 1 C0 0.67 0 0.34 0 0 Z " fill="#C3DDEF" transform="translate(62,66)"/>
<path d="M0 0 C0.33 0.66 0.66 1.32 1 2 C1.99 2 2.98 2 4 2 C3.67 2.66 3.34 3.32 3 4 C0.78515625 4.5625 0.78515625 4.5625 -1.9375 5 C-5.92315275 5.5548011 -5.92315275 5.5548011 -9 8 C-9.45811675 9.97235333 -9.45811675 9.97235333 -9.625 12.125 C-9.810625 14.043125 -9.810625 14.043125 -10 16 C-11.32 15.67 -12.64 15.34 -14 15 C-14 14.01 -14 13.02 -14 12 C-14.66 12 -15.32 12 -16 12 C-16 10.02 -16 8.04 -16 6 C-15.21625 5.731875 -14.4325 5.46375 -13.625 5.1875 C-10.71885077 4.15185568 -10.71885077 4.15185568 -9 1 C-6.8359375 0.48828125 -6.8359375 0.48828125 -4.375 0.3125 C-3.55773437 0.24675781 -2.74046875 0.18101563 -1.8984375 0.11328125 C-1.27195312 0.07589844 -0.64546875 0.03851563 0 0 Z " fill="#165181" transform="translate(127,74)"/>
<path d="M0 0 C0.33 0 0.66 0 1 0 C1 2.31 1 4.62 1 7 C0.01 7.495 0.01 7.495 -1 8 C-1 8.66 -1 9.32 -1 10 C0.8871875 10.0309375 0.8871875 10.0309375 2.8125 10.0625 C3.52019531 10.07410156 4.22789063 10.08570312 4.95703125 10.09765625 C7.20305461 10.08263217 7.20305461 10.08263217 10 9 C12.58968807 8.98374482 15.14479659 9.02510165 17.73046875 9.12109375 C18.48088943 9.14470474 19.23131012 9.16831573 20.00447083 9.19264221 C22.39901219 9.26915673 24.79322013 9.35323326 27.1875 9.4375 C28.8118327 9.49073294 30.43618162 9.54347326 32.06054688 9.59570312 C36.04057534 9.72475527 40.02032144 9.86058954 44 10 C44 10.33 44 10.66 44 11 C42.95021973 11.02505615 41.90043945 11.0501123 40.81884766 11.07592773 C36.93118676 11.16996267 33.04370619 11.2701928 29.15625 11.37231445 C27.47237358 11.41567817 25.78845277 11.4573522 24.10449219 11.49731445 C21.68671276 11.55498234 19.26915705 11.6186865 16.8515625 11.68359375 C15.71867294 11.70866249 15.71867294 11.70866249 14.56289673 11.73423767 C10.65260201 11.77555107 10.65260201 11.77555107 7 13 C4.32421248 13.04247282 1.67319787 13.04764115 -1 13 C-1.99 13 -2.98 13 -4 13 C-5.125 7.25 -5.125 7.25 -4 5 C-3.01 4.67 -2.02 4.34 -1 4 C-0.26676204 1.98491642 -0.26676204 1.98491642 0 0 Z " fill="#D6EBF5" transform="translate(107,98)"/>
<path d="M0 0 C7.92 0 15.84 0 24 0 C25.53937439 3.07874877 25.00296786 6.26736697 24.87890625 9.6328125 C24.85529526 10.38464813 24.83168427 11.13648376 24.80735779 11.91110229 C24.7306938 14.31592566 24.64668156 16.72042918 24.5625 19.125 C24.50928203 20.75389052 24.45654161 22.38279672 24.40429688 24.01171875 C24.27507502 28.0080156 24.13926173 32.00404092 24 36 C23.67 36 23.34 36 23 36 C23 26.1 23 16.2 23 6 C19.7 6.66 16.4 7.32 13 8 C12.67 8.99 12.34 9.98 12 11 C10.68 11 9.36 11 8 11 C8 9.35 8 7.7 8 6 C8.94875 6.020625 9.8975 6.04125 10.875 6.0625 C13.90666283 6.22551826 13.90666283 6.22551826 16 5 C18.3329866 4.95977609 20.66706666 4.95679753 23 5 C22.67 4.01 22.34 3.02 22 2 C14.74 1.67 7.48 1.34 0 1 C0 0.67 0 0.34 0 0 Z " fill="#3E698C" transform="translate(128,65)"/>
<path d="M0 0 C0.1875 2.375 0.1875 2.375 0 5 C-3.31371 7.20914 -4.3446021 7.22481553 -8.1875 7.125 C-9.08855469 7.10695313 -9.98960938 7.08890625 -10.91796875 7.0703125 C-11.60503906 7.04710938 -12.29210937 7.02390625 -13 7 C-12.67 4.69 -12.34 2.38 -12 0 C-7.74433453 -1.16063604 -4.3164922 -0.76173392 0 0 Z " fill="#EAF4F7" transform="translate(89,89)"/>
<path d="M0 0 C8.11779056 3.29674464 12.13339652 13.79820737 15.93359375 21.140625 C17.1052646 24.28224794 17.20169765 26.67444846 17 30 C16.34 30 15.68 30 15 30 C14.34 29.34 13.68 28.68 13 28 C13.375 24.875 13.375 24.875 14 22 C13.34 22 12.68 22 12 22 C9.85714286 14.57142857 9.85714286 14.57142857 9 11 C8.21625 11.185625 7.4325 11.37125 6.625 11.5625 C4 12 4 12 2 11 C2.06510417 9.01432292 2.13020833 7.02864583 2.1953125 5.04296875 C2.13254462 2.68640281 2.13254462 2.68640281 0 0 Z " fill="#1F3046" transform="translate(166,50)"/>
<path d="M0 0 C0.99 0 1.98 0 3 0 C2.67 1.98 2.34 3.96 2 6 C3.32 6 4.64 6 6 6 C7.05566977 9.16700931 6.97926374 9.96428241 6 13 C5.67 13.66 5.34 14.32 5 15 C6.32 15.33 7.64 15.66 9 16 C7.02 17.32 5.04 18.64 3 20 C-0.13902852 13.19877155 -0.33452052 7.43378943 0 0 Z " fill="#0E2846" transform="translate(17,112)"/>
<path d="M0 0 C1.80868813 0.00333092 1.80868813 0.00333092 3.65391541 0.00672913 C4.64899864 0.00651009 4.64899864 0.00651009 5.66418457 0.00628662 C7.86644207 0.00698571 10.06861596 0.01477787 12.27085876 0.02259827 C13.79400588 0.02446246 15.31715359 0.02588636 16.84030151 0.02688599 C20.85657903 0.03071105 24.87282059 0.04054124 28.88908386 0.05158997 C32.98443617 0.06180433 37.07979427 0.06638366 41.17515564 0.07142639 C49.21618779 0.08216352 57.25719069 0.0992398 65.29820251 0.12025452 C65.29820251 0.45025452 65.29820251 0.78025452 65.29820251 1.12025452 C43.51820251 1.45025452 21.73820251 1.78025452 -0.70179749 2.12025452 C-1.36179749 3.77025452 -2.02179749 5.42025452 -2.70179749 7.12025452 C-3.03179749 7.12025452 -3.36179749 7.12025452 -3.70179749 7.12025452 C-3.74434105 5.12070706 -3.74260531 3.11983815 -3.70179749 1.12025452 C-2.70179749 0.12025452 -2.70179749 0.12025452 0 0 Z " fill="#104570" transform="translate(62.70179748535156,64.87974548339844)"/>
<path d="M0 0 C1.62490954 -0.02698189 3.24994633 -0.04638757 4.875 -0.0625 C5.77992187 -0.07410156 6.68484375 -0.08570312 7.6171875 -0.09765625 C10 0 10 0 12 1 C12 2.32 12 3.64 12 5 C11.01 5 10.02 5 9 5 C9 5.66 9 6.32 9 7 C6.03 7 3.06 7 0 7 C0 4.69 0 2.38 0 0 Z " fill="#D7EFFA" transform="translate(61,89)"/>
<path d="M0 0 C5.13217903 2.25315177 8.9096916 5.26063522 13 9 C12.34 10.32 11.68 11.64 11 13 C9.125 12.8125 9.125 12.8125 7 12 C5.75 9.4375 5.75 9.4375 5 7 C3.35 7.33 1.7 7.66 0 8 C-0.66 6.68 -1.32 5.36 -2 4 C-1.34 3.67 -0.68 3.34 0 3 C0 2.01 0 1.02 0 0 Z " fill="#0E2643" transform="translate(146,32)"/>
<path d="M0 0 C4 2 4 2 5.875 3.0625 C8.54074552 4.2385642 11.12431827 4.60786158 14 5 C13.01 5.495 13.01 5.495 12 6 C12.66 6.66 13.32 7.32 14 8 C14.66 8 15.32 8 16 8 C16 8.66 16 9.32 16 10 C14.35 10 12.7 10 11 10 C11 9.34 11 8.68 11 8 C8.36 8.33 5.72 8.66 3 9 C2.62875 8.0409375 2.62875 8.0409375 2.25 7.0625 C1.18437567 4.81258459 1.18437567 4.81258459 -1.125 4.25 C-1.74375 4.1675 -2.3625 4.085 -3 4 C-2 2 -2 2 0 0 Z " fill="#185584" transform="translate(78,103)"/>
<path d="M0 0 C0.90524414 -0.00064453 1.81048828 -0.00128906 2.74316406 -0.00195312 C9.30281435 0.05281435 9.30281435 0.05281435 10.4375 1.1875 C10.47842937 3.52047433 10.47991723 5.85455225 10.4375 8.1875 C10.1075 8.1875 9.7775 8.1875 9.4375 8.1875 C9.4375 6.2075 9.4375 4.2275 9.4375 2.1875 C6.04137586 2.3270053 2.64568542 2.47522322 -0.75 2.625 C-1.70970703 2.66431641 -2.66941406 2.70363281 -3.65820312 2.74414062 C-4.58955078 2.78603516 -5.52089844 2.82792969 -6.48046875 2.87109375 C-7.33406982 2.90775146 -8.1876709 2.94440918 -9.06713867 2.98217773 C-11.62704594 3.19281094 -14.05583243 3.63591536 -16.5625 4.1875 C-16.5625 4.8475 -16.5625 5.5075 -16.5625 6.1875 C-17.8825 6.1875 -19.2025 6.1875 -20.5625 6.1875 C-20.5625 4.8675 -20.5625 3.5475 -20.5625 2.1875 C-13.64846222 0.34375659 -7.11607418 -0.00504507 0 0 Z " fill="#496C88" transform="translate(141.5625,100.8125)"/>
<path d="M0 0 C0.33 0 0.66 0 1 0 C1.27338172 6.06907418 0.46092445 10.77622054 -1.5 16.5 C-1.73847656 17.22703125 -1.97695312 17.9540625 -2.22265625 18.703125 C-2.80460176 20.47223935 -3.40080457 22.23665346 -4 24 C-4.99 24 -5.98 24 -7 24 C-8.85776765 20.86501708 -9.20140476 18.62528568 -9 15 C-8.34 14.67 -7.68 14.34 -7 14 C-6.67 14.99 -6.34 15.98 -6 17 C-5.71125 16.195625 -5.4225 15.39125 -5.125 14.5625 C-4 12 -4 12 -2 11 C-1.30906104 8.42048126 -1.30906104 8.42048126 -0.875 5.4375 C-0.70742187 4.42558594 -0.53984375 3.41367188 -0.3671875 2.37109375 C-0.24601563 1.58863281 -0.12484375 0.80617188 0 0 Z " fill="#0D1C34" transform="translate(186,117)"/>
<path d="M0 0 C2.31 0.66 4.62 1.32 7 2 C6.67 2.99 6.34 3.98 6 5 C-9.74487472 8.62870159 -9.74487472 8.62870159 -17 7 C-16.34 6.01 -15.68 5.02 -15 4 C-14.29875 4.144375 -13.5975 4.28875 -12.875 4.4375 C-9.92443859 5.01478375 -6.96729849 5.51695141 -4 6 C-4 4.68 -4 3.36 -4 2 C-3.01 2 -2.02 2 -1 2 C-0.67 1.34 -0.34 0.68 0 0 Z " fill="#0A1B36" transform="translate(124,184)"/>
<path d="M0 0 C0 0.66 0 1.32 0 2 C1.32 2 2.64 2 4 2 C4 1.34 4 0.68 4 0 C8.75 0.875 8.75 0.875 11 2 C11.625 4.5625 11.625 4.5625 12 7 C13.32 7.33 14.64 7.66 16 8 C15.67 8.66 15.34 9.32 15 10 C14.38125 9.79375 13.7625 9.5875 13.125 9.375 C12.42375 9.25125 11.7225 9.1275 11 9 C10.34 9.66 9.68 10.32 9 11 C7.68 9.35 6.36 7.7 5 6 C6.32 5.34 7.64 4.68 9 4 C5.95161559 3.07434903 3.53510031 2.95844194 0.375 3.3125 C-0.78902344 3.43044922 -0.78902344 3.43044922 -1.9765625 3.55078125 C-4.21592952 3.85789756 -4.21592952 3.85789756 -6 6 C-6.33 5.01 -6.66 4.02 -7 3 C-2.25 0 -2.25 0 0 0 Z " fill="#275F8B" transform="translate(122,72)"/>
<path d="M0 0 C1.32 0.33 2.64 0.66 4 1 C3.67 2.32 3.34 3.64 3 5 C-2.16720401 5.85675385 -7.10780622 6.13467581 -12.33984375 6.09765625 C-13.10680069 6.0962413 -13.87375763 6.09482635 -14.66395569 6.09336853 C-17.0885119 6.08781766 -19.51297219 6.07527463 -21.9375 6.0625 C-23.59179553 6.05747864 -25.24609253 6.05291685 -26.90039062 6.04882812 C-30.93363012 6.03786438 -34.96679886 6.02063424 -39 6 C-39 5.67 -39 5.34 -39 5 C-37.59306885 4.96241577 -37.59306885 4.96241577 -36.15771484 4.92407227 C-32.65760709 4.82859116 -29.15764549 4.72937936 -25.65771484 4.62768555 C-24.14668874 4.58453646 -22.63562014 4.54284844 -21.12451172 4.50268555 C-18.94485706 4.44449437 -16.76541237 4.38094448 -14.5859375 4.31640625 C-13.2767334 4.27974854 -11.9675293 4.24309082 -10.61865234 4.20532227 C-7.33738432 4.01914318 -4.22546854 3.61323184 -1 3 C-0.67 2.01 -0.34 1.02 0 0 Z " fill="#294F6C" transform="translate(101,67)"/>
<path d="M0 0 C0.33 1.32 0.66 2.64 1 4 C2.97536745 3.65213292 2.97536745 3.65213292 5 3 C5.33 2.34 5.66 1.68 6 1 C8.5625 0.375 8.5625 0.375 11 0 C10.195625 0.61875 9.39125 1.2375 8.5625 1.875 C5.26186252 5.08292294 5.36245604 8.47261671 5.23828125 12.890625 C5.12033203 13.93476562 5.12033203 13.93476562 5 15 C4.01 15.495 4.01 15.495 3 16 C2.67 16.99 2.34 17.98 2 19 C1.34 19 0.68 19 0 19 C0 17.35 0 15.7 0 14 C0.99 14 1.98 14 3 14 C2.67 12.02 2.34 10.04 2 8 C1.360625 7.87625 0.72125 7.7525 0.0625 7.625 C-0.618125 7.41875 -1.29875 7.2125 -2 7 C-2.33 6.34 -2.66 5.68 -3 5 C-2.34 4.67 -1.68 4.34 -1 4 C-0.34786708 1.97536745 -0.34786708 1.97536745 0 0 Z " fill="#EBF8FC" transform="translate(135,72)"/>
<path d="M0 0 C1.15900604 3.47701813 0.78310211 4.62389054 -0.25 8.0625 C-0.50265625 8.94035156 -0.7553125 9.81820312 -1.015625 10.72265625 C-2 13 -2 13 -5 15 C-5.99 16.485 -5.99 16.485 -7 18 C-7.66 17.67 -8.32 17.34 -9 17 C-7.68925635 12.53817564 -5.92933989 9.00381243 -3.375 5.125 C-2.74335938 4.15820312 -2.11171875 3.19140625 -1.4609375 2.1953125 C-0.73777344 1.10863281 -0.73777344 1.10863281 0 0 Z " fill="#142A44" transform="translate(33,54)"/>
<path d="M0 0 C0.33 1.65 0.66 3.3 1 5 C-3.873261 6.5912689 -7.80790596 7.21192221 -13 7 C-13.33 8.32 -13.66 9.64 -14 11 C-14.33 9.35 -14.66 7.7 -15 6 C-14.2575 5.855625 -13.515 5.71125 -12.75 5.5625 C-10.47972261 5.09812508 -8.24240521 4.58136431 -6 4 C-6 2.68 -6 1.36 -6 0 C-3.50907189 -1.24546405 -2.58919267 -0.7767578 0 0 Z " fill="#DEEDF4" transform="translate(134,96)"/>
<path d="M0 0 C2.95846138 2.95846138 3.98776958 4.30286594 4.0625 8.5625 C2.82593608 12.56314796 1.47117702 13.77488652 -2 16 C-2.20413361 10.26157749 -2.27141454 5.39460953 0 0 Z " fill="#0A2340" transform="translate(19,84)"/>
<path d="M0 0 C-2.49618675 2.76363533 -4.19933432 4.63219364 -8 5 C-8.99 4.67 -9.98 4.34 -11 4 C-11 4.66 -11 5.32 -11 6 C-12.32 6 -13.64 6 -15 6 C-15 5.01 -15 4.02 -15 3 C-16.65 3.33 -18.3 3.66 -20 4 C-19.67 3.34 -19.34 2.68 -19 2 C-16.34765625 1.40234375 -16.34765625 1.40234375 -13.0625 0.9375 C-2.48349658 -0.58819656 -2.48349658 -0.58819656 0 0 Z " fill="#E6F4FB" transform="translate(104,72)"/>
<path d="M0 0 C3.21328529 0.85687608 5.51447031 1.55998872 8 3.8125 C9 6 9 6 8.1875 8.75 C7.795625 9.4925 7.40375 10.235 7 11 C6.01 11 5.02 11 4 11 C3.32591692 9.73308493 2.66099503 8.46129251 2 7.1875 C1.62875 6.47980469 1.2575 5.77210938 0.875 5.04296875 C0 3 0 3 0 0 Z " fill="#072242" transform="translate(24,141)"/>
<path d="M0 0 C2.475 0.495 2.475 0.495 5 1 C5.92844389 5.33273814 5.92844389 8.66726186 5 13 C4.34 12.34 3.68 11.68 3 11 C2.34 10.67 1.68 10.34 1 10 C0.5859375 7.71484375 0.5859375 7.71484375 0.375 4.9375 C0.30023438 4.01839844 0.22546875 3.09929687 0.1484375 2.15234375 C0.09945312 1.44207031 0.05046875 0.73179687 0 0 Z " fill="#194587" transform="translate(80,136)"/>
<path d="M0 0 C0.99 0.33 1.98 0.66 3 1 C3 2.65 3 4.3 3 6 C-2.75 8 -2.75 8 -5 8 C-5.99 8.495 -5.99 8.495 -7 9 C-5.44499019 5.18315774 -2.96404505 2.80804268 0 0 Z M-4 8 C-3.67 8.99 -3.34 9.98 -3 11 C-3.99 10.67 -4.98 10.34 -6 10 C-5.34 9.34 -4.68 8.68 -4 8 Z " fill="#0C2441" transform="translate(45,41)"/>
<path d="M0 0 C1.01560704 2.58518155 1.14715729 3.6468225 0.0625 6.25 C-3.15383974 8.97901554 -5.87128065 8.2707357 -10 8 C-8.48502075 3.75805811 -4.70198172 0 0 0 Z " fill="#0F2642" transform="translate(59,32)"/>
<path d="M0 0 C2.5 0.125 2.5 0.125 3.5 1.125 C3.54063832 2.79117115 3.542721 4.45888095 3.5 6.125 C1.5085944 6.50633299 -0.49279077 6.83825582 -2.5 7.125 C-3.5 6.125 -3.5 6.125 -3.625 3.625 C-3.45661291 0.25725827 -3.36774173 0.16838709 0 0 Z " fill="#215B89" transform="translate(106.5,121.875)"/>
<path d="M0 0 C0 1.98 0 3.96 0 6 C-0.33 4.68 -0.66 3.36 -1 2 C-2.32 2 -3.64 2 -5 2 C-5.33 2.99 -5.66 3.98 -6 5 C-8.375 6.25 -8.375 6.25 -11 7 C-11.99 6.67 -12.98 6.34 -14 6 C-9.28030222 1.02518343 -6.83049018 -0.15178867 0 0 Z " fill="#C4DFED" transform="translate(92,81)"/>
<path d="M0 0 C4.44907205 1.48302402 6.74579392 5.08285501 9 9 C9 9.66 9 10.32 9 11 C4.25 12.125 4.25 12.125 2 11 C2.06510417 9.01432292 2.13020833 7.02864583 2.1953125 5.04296875 C2.13254462 2.68640281 2.13254462 2.68640281 0 0 Z " fill="#0D223F" transform="translate(166,50)"/>
<path d="M0 0 C1.98 0.66 3.96 1.32 6 2 C6 3.32 6 4.64 6 6 C5.01 6 4.02 6 3 6 C3 7.65 3 9.3 3 11 C3.66 11 4.32 11 5 11 C4.67 11.99 4.34 12.98 4 14 C3.34 14 2.68 14 2 14 C1.66179834 12.4176994 1.32964061 10.83410625 1 9.25 C0.814375 8.36828125 0.62875 7.4865625 0.4375 6.578125 C0 4 0 4 0 0 Z " fill="#165589" transform="translate(132,80)"/>
<path d="M0 0 C1.98 0 3.96 0 6 0 C6.33 1.32 6.66 2.64 7 4 C6.34 4 5.68 4 5 4 C5 4.66 5 5.32 5 6 C5.66 6.33 6.32 6.66 7 7 C5.35 7.33 3.7 7.66 2 8 C2 7.01 2 6.02 2 5 C1.01 5.66 0.02 6.32 -1 7 C-0.67 4.69 -0.34 2.38 0 0 Z " fill="#1C427F" transform="translate(129,136)"/>
<path d="M0 0 C0 1.65 0 3.3 0 5 C-2.97 4.67 -5.94 4.34 -9 4 C-9 3.01 -9 2.02 -9 1 C-5.64919071 -1.10976881 -3.77897651 -1.0497157 0 0 Z " fill="#081D3A" transform="translate(88,186)"/>
<path d="M0 0 C0.66 0 1.32 0 2 0 C2.33 1.65 2.66 3.3 3 5 C-4.59 5 -12.18 5 -20 5 C-20 4.67 -20 4.34 -20 4 C-15.05 3.67 -10.1 3.34 -5 3 C-5 2.67 -5 2.34 -5 2 C-3.35 2 -1.7 2 0 2 C0 1.34 0 0.68 0 0 Z " fill="#F4FEFE" transform="translate(86,111)"/>
<path d="M0 0 C1.32 0.33 2.64 0.66 4 1 C3.67 2.32 3.34 3.64 3 5 C-3.37358711 5.96205088 -9.55929529 6.10655578 -16 6 C-16 5.67 -16 5.34 -16 5 C-15.00419922 4.90912109 -15.00419922 4.90912109 -13.98828125 4.81640625 C-7.45091919 4.20136493 -7.45091919 4.20136493 -1 3 C-0.67 2.01 -0.34 1.02 0 0 Z " fill="#285578" transform="translate(92,91)"/>
<path d="M0 0 C0.33 0.99 0.66 1.98 1 3 C1.66 3 2.32 3 3 3 C3.33 4.65 3.66 6.3 4 8 C3.01 7.67 2.02 7.34 1 7 C0.34 9.31 -0.32 11.62 -1 14 C-1.33 13.34 -1.66 12.68 -2 12 C-2.66 11.67 -3.32 11.34 -4 11 C-3.34 11 -2.68 11 -2 11 C-2 9.35 -2 7.7 -2 6 C-2.99 5.67 -3.98 5.34 -5 5 C-4.360625 4.731875 -3.72125 4.46375 -3.0625 4.1875 C-0.66868314 3.11332248 -0.66868314 3.11332248 0 0 Z " fill="#D5E7EF" transform="translate(110,83)"/>
<path d="M0 0 C0.33 0.66 0.66 1.32 1 2 C1.99 2 2.98 2 4 2 C3.67 2.66 3.34 3.32 3 4 C0.27734375 4.4140625 0.27734375 4.4140625 -3.0625 4.625 C-4.16722656 4.69976562 -5.27195312 4.77453125 -6.41015625 4.8515625 C-7.26480469 4.90054688 -8.11945313 4.94953125 -9 5 C-8.67 3.68 -8.34 2.36 -8 1 C-5.36 0.67 -2.72 0.34 0 0 Z " fill="#125489" transform="translate(127,74)"/>
<path d="M0 0 C0 3.86695678 -1.41909971 6.5088452 -3 10 C-4.32 9.67 -5.64 9.34 -7 9 C-6.875 6.75 -6.875 6.75 -6 4 C-2.9375 1.6875 -2.9375 1.6875 0 0 Z " fill="#0C2544" transform="translate(41,47)"/>
<path d="M0 0 C1.32 0 2.64 0 4 0 C4 1.65 4 3.3 4 5 C-0.95 5.33 -5.9 5.66 -11 6 C-10.34 5.01 -9.68 4.02 -9 3 C-9 3.66 -9 4.32 -9 5 C-7.68445015 4.5504955 -6.37261642 4.09010284 -5.0625 3.625 C-3.96615234 3.24214844 -3.96615234 3.24214844 -2.84765625 2.8515625 C-0.81317884 2.14728587 -0.81317884 2.14728587 0 0 Z " fill="#27567B" transform="translate(87,83)"/>
<path d="M0 0 C0.66 0.33 1.32 0.66 2 1 C1.37806106 2.75109022 0.75232002 4.50083031 0.125 6.25 C-0.22304688 7.22453125 -0.57109375 8.1990625 -0.9296875 9.203125 C-1.83274645 11.56294327 -2.82078418 13.76905116 -4 16 C-5.47058824 7.32352941 -5.47058824 7.32352941 -3 3 C-1.375 1.1875 -1.375 1.1875 0 0 Z " fill="#DEE7EB" transform="translate(22,70)"/>
<path d="M0 0 C2.31 0.66 4.62 1.32 7 2 C6.67 2.99 6.34 3.98 6 5 C2.7 5 -0.6 5 -4 5 C-4 4.01 -4 3.02 -4 2 C-3.01 2 -2.02 2 -1 2 C-0.67 1.34 -0.34 0.68 0 0 Z " fill="#0E2543" transform="translate(124,184)"/>
<path d="M0 0 C0.33 1.65 0.66 3.3 1 5 C-1.31 5 -3.62 5 -6 5 C-6.33 3.68 -6.66 2.36 -7 1 C-4.53721199 -0.231394 -2.7204945 -0.07159196 0 0 Z " fill="#326B9C" transform="translate(127,95)"/>
<path d="M0 0 C0.33 1.65 0.66 3.3 1 5 C-4.75 6.125 -4.75 6.125 -7 5 C-7 3.68 -7 2.36 -7 1 C-4.53721199 -0.231394 -2.7204945 -0.07159196 0 0 Z " fill="#132C44" transform="translate(73,26)"/>
<path d="M0 0 C0.33 0 0.66 0 1 0 C1.33 6.27 1.66 12.54 2 19 C1.01 19 0.02 19 -1 19 C-1.66 16.69 -2.32 14.38 -3 12 C-2.34 11.67 -1.68 11.34 -1 11 C-0.5316735 8.41394668 -0.5316735 8.41394668 -0.375 5.4375 C-0.30023438 4.42558594 -0.22546875 3.41367188 -0.1484375 2.37109375 C-0.09945312 1.58863281 -0.05046875 0.80617188 0 0 Z " fill="#1A366A" transform="translate(51,117)"/>
<path d="M0 0 C2.475 0.495 2.475 0.495 5 1 C4.25 6.75 4.25 6.75 2 9 C2 8.01 2 7.02 2 6 C1.34 6 0.68 6 0 6 C0 4.02 0 2.04 0 0 Z " fill="#276395" transform="translate(111,80)"/>
<path d="M0 0 C1.32 0.33 2.64 0.66 4 1 C3.67 1.99 3.34 2.98 3 4 C4.65 4 6.3 4 8 4 C8 4.33 8 4.66 8 5 C4.37 5.66 0.74 6.32 -3 7 C-2.67 5.68 -2.34 4.36 -2 3 C-1.34 3 -0.68 3 0 3 C0 2.01 0 1.02 0 0 Z " fill="#145083" transform="translate(84,76)"/>
<path d="M0 0 C0.0825 0.61875 0.165 1.2375 0.25 1.875 C0.81258459 4.18437567 0.81258459 4.18437567 3.0625 5.25 C3.701875 5.4975 4.34125 5.745 5 6 C4.01 6.495 4.01 6.495 3 7 C3 7.66 3 8.32 3 9 C1.02 9.66 -0.96 10.32 -3 11 C-2.690625 10.29875 -2.38125 9.5975 -2.0625 8.875 C-0.96697322 5.91063343 -0.43577008 3.12301892 0 0 Z " fill="#306A9B" transform="translate(102,92)"/>
<path d="M0 0 C1.32 0.33 2.64 0.66 4 1 C3.67 2.32 3.34 3.64 3 5 C-1.455 5.495 -1.455 5.495 -6 6 C-6.33 5.34 -6.66 4.68 -7 4 C-5.02 3.67 -3.04 3.34 -1 3 C-0.67 2.01 -0.34 1.02 0 0 Z " fill="#306084" transform="translate(101,67)"/>
<path d="M0 0 C1.32 0 2.64 0 4 0 C3.01 2.97 2.02 5.94 1 9 C0.01 9 -0.98 9 -2 9 C-1.34 6.03 -0.68 3.06 0 0 Z " fill="#122540" transform="translate(169,152)"/>
<path d="M0 0 C0 0.66 0 1.32 0 2 C-1.98 2.33 -3.96 2.66 -6 3 C-6.33 3.99 -6.66 4.98 -7 6 C-8.32 6 -9.64 6 -11 6 C-11 4.68 -11 3.36 -11 2 C-9.5422647 1.664061 -8.08378894 1.33133376 -6.625 1 C-5.40683594 0.7215625 -5.40683594 0.7215625 -4.1640625 0.4375 C-2 0 -2 0 0 0 Z " fill="#2A597E" transform="translate(118,109)"/>
<path d="M0 0 C4.875 2.625 4.875 2.625 6 6 C6.99 6.66 7.98 7.32 9 8 C8.67 8.99 8.34 9.98 8 11 C6.65772182 9.73861805 5.32641323 8.46555441 4 7.1875 C3.2575 6.47980469 2.515 5.77210938 1.75 5.04296875 C0 3 0 3 0 0 Z " fill="#1D2A41" transform="translate(37,161)"/>
<path d="M0 0 C0 0.66 0 1.32 0 2 C-2.95664519 3.4783226 -5.74229737 3.06032783 -9 3 C-9.33 2.01 -9.66 1.02 -10 0 C-6.7169902 -1.6415049 -3.57454967 -0.51888624 0 0 Z " fill="#FAFCFB" transform="translate(72,92)"/>
<path d="M0 0 C0.33 0 0.66 0 1 0 C1.04898438 0.71027344 1.09796875 1.42054687 1.1484375 2.15234375 C1.22320312 3.07144531 1.29796875 3.99054688 1.375 4.9375 C1.44460937 5.85402344 1.51421875 6.77054687 1.5859375 7.71484375 C1.72257813 8.46894531 1.85921875 9.22304687 2 10 C2.66 10.33 3.32 10.66 4 11 C1 11 1 11 -1.1875 9 C-1.785625 8.34 -2.38375 7.68 -3 7 C-2.01 4.69 -1.02 2.38 0 0 Z " fill="#2E6898" transform="translate(132,84)"/>
<path d="M0 0 C1.67542976 0.28604898 3.34385343 0.61781233 5 1 C5 1.99 5 2.98 5 4 C4.34 4 3.68 4 3 4 C2.67 4.99 2.34 5.98 2 7 C1.34 6.67 0.68 6.34 0 6 C-0.6875 3.5 -0.6875 3.5 -1 1 C-0.67 0.67 -0.34 0.34 0 0 Z " fill="#16558B" transform="translate(103,90)"/>
<path d="M0 0 C-0.5775 0.2475 -1.155 0.495 -1.75 0.75 C-4.41578402 2.23099112 -6.08202933 3.61907089 -8 6 C-8.80315654 9.14481791 -8.80315654 9.14481791 -9 12 C-9.33 12 -9.66 12 -10 12 C-10.23822167 9.14133991 -10.42775712 6.80180916 -10 4 C-6.91722952 0.47683374 -4.64436785 -0.5307849 0 0 Z " fill="#BFDBEA" transform="translate(127,78)"/>
<path d="M0 0 C0.433125 0.495 0.86625 0.99 1.3125 1.5 C2.99740483 3.33218192 2.99740483 3.33218192 6 3 C5.67 3.99 5.34 4.98 5 6 C4.34 6 3.68 6 3 6 C3 6.66 3 7.32 3 8 C2.01 8 1.02 8 0 8 C-0.79953138 4.71303767 -1.09658936 3.28976808 0 0 Z " fill="#1B3971" transform="translate(129,145)"/>
<path d="M0 0 C3.63 0 7.26 0 11 0 C10.67 1.32 10.34 2.64 10 4 C6.83179542 4 5.74405092 3.37202546 3 2 C2.01 2 1.02 2 0 2 C0 1.34 0 0.68 0 0 Z " fill="#E0EDF3" transform="translate(62,90)"/>
<path d="M0 0 C1.77049689 -0.05410687 3.54146849 -0.09284119 5.3125 -0.125 C6.29863281 -0.14820312 7.28476563 -0.17140625 8.30078125 -0.1953125 C11 0 11 0 14 2 C14.1875 5.125 14.1875 5.125 14 8 C11 4.25 11 4.25 11 2 C7.37 1.67 3.74 1.34 0 1 C0 0.67 0 0.34 0 0 Z " fill="#174972" transform="translate(62,88)"/>
<path d="M0 0 C3.3 0 6.6 0 10 0 C9.34 1.32 8.68 2.64 8 4 C6.68 4 5.36 4 4 4 C4 3.01 4 2.02 4 1 C2.35 1.33 0.7 1.66 -1 2 C-0.67 1.34 -0.34 0.68 0 0 Z " fill="#DDEFF6" transform="translate(85,74)"/>
<path d="M0 0 C2.97 0.495 2.97 0.495 6 1 C4.38405168 3.04119788 2.7143618 5.04072937 1 7 C0.34 7 -0.32 7 -1 7 C-0.67 4.69 -0.34 2.38 0 0 Z " fill="#0A2443" transform="translate(161,160)"/>
<path d="M0 0 C0 2.31 0 4.62 0 7 C-2.5 5.6875 -2.5 5.6875 -5 4 C-5 3.01 -5 2.02 -5 1 C-2 0 -2 0 0 0 Z " fill="#2A6899" transform="translate(77,84)"/>
<path d="M0 0 C0 0.66 0 1.32 0 2 C1.32 2 2.64 2 4 2 C4.33 1.34 4.66 0.68 5 0 C5 0.99 5 1.98 5 3 C4.37351562 3.04898438 3.74703125 3.09796875 3.1015625 3.1484375 C2.28429687 3.22320312 1.46703125 3.29796875 0.625 3.375 C-0.18710938 3.44460937 -0.99921875 3.51421875 -1.8359375 3.5859375 C-4.20334191 3.82892588 -4.20334191 3.82892588 -6 6 C-6.33 5.01 -6.66 4.02 -7 3 C-2.25 0 -2.25 0 0 0 Z " fill="#5380A3" transform="translate(122,72)"/>
<path d="M0 0 C0.99 0 1.98 0 3 0 C1.87548273 2.9719385 0.77706209 5.33440687 -1 8 C-1.66 7.67 -2.32 7.34 -3 7 C-1.125 1.125 -1.125 1.125 0 0 Z " fill="#0B213B" transform="translate(27,64)"/>
<path d="M0 0 C1.9451 2.91765 2.45276317 4.62537285 3 8 C2.01 7.67 1.02 7.34 0 7 C-1.125 2.25 -1.125 2.25 0 0 Z M-1 8 C-0.01 8.33 0.98 8.66 2 9 C1.67 9.66 1.34 10.32 1 11 C0.34 11 -0.32 11 -1 11 C-1 10.01 -1 9.02 -1 8 Z " fill="#E3E8EB" transform="translate(19,131)"/>
<path d="M0 0 C2 1 2 1 3.125 4.0625 C3.41375 5.031875 3.7025 6.00125 4 7 C1.13275314 6.42655063 0.1385485 6.1385485 -2 4 C-2.33 3.34 -2.66 2.68 -3 2 C-2.01 2 -1.02 2 0 2 C0 1.34 0 0.68 0 0 Z " fill="#24669A" transform="translate(73,92)"/>
<path d="M0 0 C1.98 0.99 1.98 0.99 4 2 C4 2.66 4 3.32 4 4 C6.97 4.495 6.97 4.495 10 5 C10 5.33 10 5.66 10 6 C8.72125 6.061875 7.4425 6.12375 6.125 6.1875 C5.40570313 6.22230469 4.68640625 6.25710937 3.9453125 6.29296875 C3.30335937 6.19628906 2.66140625 6.09960938 2 6 C0 3 0 3 0 0 Z " fill="#DFF1F7" transform="translate(118,87)"/>
<path d="M0 0 C2.67289025 3.87671106 2.01875653 7.79267603 1.625 12.25 C1.53992187 13.36761719 1.53992187 13.36761719 1.453125 14.5078125 C1.31223742 16.33935108 1.15748116 18.16981352 1 20 C0.67 20 0.34 20 0 20 C-0.19522373 17.41703983 -0.38144403 14.83395921 -0.5625 12.25 C-0.61857422 11.52039063 -0.67464844 10.79078125 -0.73242188 10.0390625 C-0.97709908 6.45046349 -0.99666259 3.44972775 0 0 Z " fill="#4E7696" transform="translate(60,68)"/>
<path d="M0 0 C2.56616632 3.84924948 2.55097676 6.4349304 3 11 C0.41050731 9.70525365 0.03964236 8.67336607 -1 6 C-1.1875 3.3125 -1.1875 3.3125 -1 1 C-0.67 0.67 -0.34 0.34 0 0 Z " fill="#051F42" transform="translate(178,131)"/>
<path d="M0 0 C2.97 0 5.94 0 9 0 C9 0.33 9 0.66 9 1 C7.02 1.33 5.04 1.66 3 2 C3.33 3.65 3.66 5.3 4 7 C1.23609263 4.59660228 0.95934081 3.83736322 0 0 Z " fill="#C9E3F3" transform="translate(77,97)"/>
<path d="M0 0 C0.99 0.33 1.98 0.66 3 1 C2.67 2.32 2.34 3.64 2 5 C1.34 4.67 0.68 4.34 0 4 C-0.33 4.99 -0.66 5.98 -1 7 C-1.625 4.625 -1.625 4.625 -2 2 C-1.34 1.34 -0.68 0.68 0 0 Z " fill="#F6FCFD" transform="translate(98,87)"/>
<path d="M0 0 C1.5 1.125 1.5 1.125 3 3 C3.1875 6.1875 3.1875 6.1875 3 9 C2.34 9 1.68 9 1 9 C0.34 8.34 -0.32 7.68 -1 7 C-0.625 3.375 -0.625 3.375 0 0 Z " fill="#0E233F" transform="translate(180,71)"/>
<path d="M0 0 C0 0.66 0 1.32 0 2 C-2.90548882 4.04169485 -4.40142046 5 -8 5 C-8.33 4.01 -8.66 3.02 -9 2 C-2.25 0 -2.25 0 0 0 Z " fill="#0F1D36" transform="translate(147,179)"/>
<path d="M0 0 C1.32 0.33 2.64 0.66 4 1 C4 2.32 4 3.64 4 5 C4.66 5 5.32 5 6 5 C5.34 6.32 4.68 7.64 4 9 C2.68 6.03 1.36 3.06 0 0 Z " fill="#1B2D43" transform="translate(24,143)"/>
<path d="M0 0 C0.103125 0.639375 0.20625 1.27875 0.3125 1.9375 C0.539375 2.618125 0.76625 3.29875 1 4 C1.99 4.33 2.98 4.66 4 5 C3.34 5 2.68 5 2 5 C1.67 5.99 1.34 6.98 1 8 C-0.32 7.34 -1.64 6.68 -3 6 C-2.34 5.34 -1.68 4.68 -1 4 C-0.3574765 1.93125966 -0.3574765 1.93125966 0 0 Z " fill="#C7DCE9" transform="translate(135,72)"/>
<path d="M0 0 C0 0.99 0 1.98 0 3 C-2.375 3.625 -2.375 3.625 -5 4 C-5.66 3.34 -6.32 2.68 -7 2 C-4 0 -4 0 0 0 Z " fill="#E8F5F9" transform="translate(100,67)"/>
<path d="M0 0 C2.4375 0.1875 2.4375 0.1875 5 1 C6.3125 3.0625 6.3125 3.0625 7 5 C1.25 3.25 1.25 3.25 -1 1 C-0.67 0.67 -0.34 0.34 0 0 Z " fill="#E8EFF3" transform="translate(137,25)"/>
<path d="M0 0 C1.98 0.99 1.98 0.99 4 2 C3.67 2.66 3.34 3.32 3 4 C2.77532169 5.53668865 2.59203195 7.07968054 2.4375 8.625 C2.35371094 9.44226563 2.26992187 10.25953125 2.18359375 11.1015625 C2.12300781 11.72804687 2.06242187 12.35453125 2 13 C1.67 13 1.34 13 1 13 C0.67 8.71 0.34 4.42 0 0 Z " fill="#D2E1EF" transform="translate(85,137)"/>
<path d="M0 0 C0.66 0.66 1.32 1.32 2 2 C1.625 5.625 1.625 5.625 1 9 C-1 7 -1 7 -1.1875 3.9375 C-1 1 -1 1 0 0 Z " fill="#11233D" transform="translate(186,90)"/>
<path d="M0 0 C1.9375 0.3125 1.9375 0.3125 4 1 C4.33 1.99 4.66 2.98 5 4 C4.34 4.66 3.68 5.32 3 6 C1.5 4.6875 1.5 4.6875 0 3 C0 2.01 0 1.02 0 0 Z " fill="#0A1E3A" transform="translate(154,39)"/>
<path d="M0 0 C0.66 0.33 1.32 0.66 2 1 C2.625 3.5625 2.625 3.5625 3 6 C-1.875 4.25 -1.875 4.25 -3 2 C-2.01 1.34 -1.02 0.68 0 0 Z " fill="#0C2A4C" transform="translate(56,173)"/>
<path d="M0 0 C3.375 -0.125 3.375 -0.125 7 0 C7.66 0.66 8.32 1.32 9 2 C8.01 2.99 7.02 3.98 6 5 C5.34 4.67 4.68 4.34 4 4 C4 3.34 4 2.68 4 2 C2.68 1.34 1.36 0.68 0 0 Z " fill="#2E699A" transform="translate(86,107)"/>
<path d="M0 0 C2.64 0.66 5.28 1.32 8 2 C5.42786866 3.61949011 4.32330841 4.04408751 1.25 3.625 C0.5075 3.41875 -0.235 3.2125 -1 3 C-0.67 2.01 -0.34 1.02 0 0 Z " fill="#155388" transform="translate(118,92)"/>
<path d="M0 0 C1.1875 1.6875 1.1875 1.6875 2 4 C0.75 6.75 0.75 6.75 -1 9 C-1.66 9 -2.32 9 -3 9 C-3 7.35 -3 5.7 -3 4 C-2.01 4 -1.02 4 0 4 C0 2.68 0 1.36 0 0 Z " fill="#C1D6E6" transform="translate(138,82)"/>
<path d="M0 0 C1.98 0 3.96 0 6 0 C6 0.99 6 1.98 6 3 C4.824375 2.9690625 4.824375 2.9690625 3.625 2.9375 C1.01885039 2.81315937 1.01885039 2.81315937 -1 4 C-0.67 2.68 -0.34 1.36 0 0 Z " fill="#D3EAF4" transform="translate(78,76)"/>
<path d="M0 0 C1.98 0 3.96 0 6 0 C5.67 0.66 5.34 1.32 5 2 C4.34 2 3.68 2 3 2 C2.67 2.66 2.34 3.32 2 4 C1.01 4 0.02 4 -1 4 C-0.67 2.68 -0.34 1.36 0 0 Z " fill="#185B97" transform="translate(119,75)"/>
<path d="M0 0 C0.66 0.33 1.32 0.66 2 1 C1.67 1.99 1.34 2.98 1 4 C-0.9375 4.8125 -0.9375 4.8125 -3 5 C-3.66 4.34 -4.32 3.68 -5 3 C-2.625 1.4375 -2.625 1.4375 0 0 Z " fill="#E3E8EB" transform="translate(150,178)"/>
<path d="M0 0 C0.33 0.99 0.66 1.98 1 3 C-2 5 -2 5 -5 5 C-4.1875 3.0625 -4.1875 3.0625 -3 1 C-2.01 0.67 -1.02 0.34 0 0 Z " fill="#0C2749" transform="translate(146,176)"/>
<path d="M0 0 C1.32 0.66 2.64 1.32 4 2 C3.01 3.485 3.01 3.485 2 5 C1.01 4.67 0.02 4.34 -1 4 C-0.67 2.68 -0.34 1.36 0 0 Z " fill="#27659A" transform="translate(81,107)"/>
<path d="M0 0 C1.65 0 3.3 0 5 0 C6.24546405 2.49092811 5.7767578 3.41080733 5 6 C3.02 6 1.04 6 -1 6 C-1 5.67 -1 5.34 -1 5 C0.65 5 2.3 5 4 5 C3.24849977 1.72226496 3.24849977 1.72226496 0 0 Z " fill="#2A5273" transform="translate(147,65)"/>
<path d="M0 0 C0 0.99 0 1.98 0 3 C-1.8125 4.75 -1.8125 4.75 -4 6 C-4.99 5.67 -5.98 5.34 -7 5 C-4.702779 3.25728062 -2.40133271 1.60088848 0 0 Z " fill="#213850" transform="translate(41,47)"/>
<path d="M0 0 C1.98 1.65 3.96 3.3 6 5 C5.34 5.66 4.68 6.32 4 7 C1 5 1 5 0.3125 2.375 C0.209375 1.59125 0.10625 0.8075 0 0 Z " fill="#27354C" transform="translate(159,41)"/>
<path d="M0 0 C-1 3 -1 3 -4 5 C-4.99 4.67 -5.98 4.34 -7 4 C-4.83989616 0.75984424 -3.8842653 0 0 0 Z " fill="#ECEFF2" transform="translate(54,33)"/>
</svg>
