<?xml version="1.0" encoding="UTF-8"?>
<svg version="1.1" xmlns="http://www.w3.org/2000/svg" width="512" height="512">
<path d="M0 0 C1.01790619 0.00215515 2.03581238 0.0043103 3.08456421 0.00653076 C17.69363523 0.05620146 32.02575853 0.30709809 46.375 3.3125 C47.34985352 3.51117676 48.32470703 3.70985352 49.32910156 3.91455078 C97.7109774 14.03517194 141.69928269 35.9516877 177.375 70.3125 C178.3640332 71.26068604 178.3640332 71.26068604 179.37304688 72.22802734 C188.86130305 81.37247479 197.6012044 90.66984009 205.375 101.3125 C206.23306152 102.46355017 207.09113451 103.61459177 207.94921875 104.765625 C213.98736829 112.95680614 219.34595521 121.47054105 224.375 130.3125 C224.73948242 130.94430176 225.10396484 131.57610352 225.47949219 132.22705078 C247.08534998 169.97532572 256.85198095 212.74189997 256.6875 255.9375 C256.68534485 256.95540619 256.6831897 257.97331238 256.68096924 259.02206421 C256.63129854 273.63113523 256.38040191 287.96325853 253.375 302.3125 C253.07698486 303.77478027 253.07698486 303.77478027 252.77294922 305.26660156 C242.65232806 353.6484774 220.7358123 397.63678269 186.375 433.3125 C185.74287598 433.97185547 185.11075195 434.63121094 184.45947266 435.31054688 C175.31502521 444.79880305 166.01765991 453.5387044 155.375 461.3125 C154.22394983 462.17056152 153.07290823 463.02863451 151.921875 463.88671875 C143.73224019 469.92427396 135.22961724 475.30707302 126.375 480.3125 C125.66778809 480.7146875 124.96057617 481.116875 124.23193359 481.53125 C101.09654164 494.5566741 75.92537591 503.30551461 49.9375 508.625 C49.21860596 508.77235596 48.49971191 508.91971191 47.7590332 509.0715332 C33.08339502 511.86090125 18.55831162 512.66142619 3.64770508 512.62817383 C0.70811513 512.6250221 -2.2304558 512.64854926 -5.16992188 512.67382812 C-18.54306192 512.71848737 -31.43916711 511.51301542 -44.625 509.3125 C-46.33055054 509.03031616 -46.33055054 509.03031616 -48.07055664 508.74243164 C-91.33802759 500.97044532 -132.38793216 480.98345309 -165.625 452.3125 C-166.37007813 451.67828125 -167.11515625 451.0440625 -167.8828125 450.390625 C-181.38779833 438.57948485 -194.05918743 425.82889772 -204.625 411.3125 C-205.48149066 410.16255169 -206.33826433 409.01281411 -207.1953125 407.86328125 C-213.23534209 399.67315742 -218.61867614 391.16870382 -223.625 382.3125 C-224.0271875 381.60528809 -224.429375 380.89807617 -224.84375 380.16943359 C-237.8691741 357.03404164 -246.61801461 331.86287591 -251.9375 305.875 C-252.08485596 305.15610596 -252.23221191 304.43721191 -252.3840332 303.6965332 C-255.35789088 288.05024391 -255.99800362 272.57681954 -255.9375 256.6875 C-255.93534485 255.66959381 -255.9331897 254.65168762 -255.93096924 253.60293579 C-255.88129854 238.99386477 -255.63040191 224.66174147 -252.625 210.3125 C-252.42632324 209.33764648 -252.22764648 208.36279297 -252.02294922 207.35839844 C-241.90232806 158.9765226 -219.9858123 114.98821731 -185.625 79.3125 C-184.99287598 78.65314453 -184.36075195 77.99378906 -183.70947266 77.31445312 C-174.56502521 67.82619695 -165.26765991 59.0862956 -154.625 51.3125 C-153.47394983 50.45443848 -152.32290823 49.59636549 -151.171875 48.73828125 C-142.98224019 42.70072604 -134.47961724 37.31792698 -125.625 32.3125 C-124.91778809 31.9103125 -124.21057617 31.508125 -123.48193359 31.09375 C-100.34654164 18.0683259 -75.17537591 9.31948539 -49.1875 4 C-48.46860596 3.85264404 -47.74971191 3.70528809 -47.0090332 3.5534668 C-31.36274391 0.57960912 -15.88931954 -0.06050362 0 0 Z " fill="#FFA726" transform="translate(255.625,-0.3125)"/>
<path d="M0 0 C2.28044031 0.87011424 3.72891762 1.90828698 5.59057617 3.48291016 C6.2622583 4.04437744 6.93394043 4.60584473 7.62597656 5.18432617 C8.34132568 5.79332764 9.0566748 6.4023291 9.79370117 7.02978516 C11.32840356 8.31548336 12.86357048 9.60062724 14.39916992 10.88525391 C15.17566895 11.53800293 15.95216797 12.19075195 16.75219727 12.86328125 C20.17453937 15.72556396 23.63799189 18.5358985 27.10620117 21.34228516 C28.42010465 22.40726424 29.73390643 23.47236881 31.04760742 24.53759766 C31.70003418 25.06643555 32.35246094 25.59527344 33.0246582 26.14013672 C35.12650871 27.84703249 37.22420453 29.55892682 39.32104492 31.27197266 C40.02801514 31.84874756 40.73498535 32.42552246 41.46337891 33.01977539 C42.7985135 34.10922391 44.1327415 35.19978497 45.46582031 36.29174805 C46.6914977 37.29079986 47.92180681 38.28419982 49.15698242 39.27148438 C50.49808185 40.34360035 51.82769984 41.43014769 53.14916992 42.52636719 C54.19524414 43.36530518 54.19524414 43.36530518 55.26245117 44.22119141 C56.20507812 44.99184937 56.20507812 44.99184937 57.16674805 45.77807617 C59.30594988 47.18933399 59.30594988 47.18933399 63.04370117 45.77978516 C63.37370117 30.59978516 63.70370117 15.41978516 64.04370117 -0.22021484 C74.60370117 -0.22021484 85.16370117 -0.22021484 96.04370117 -0.22021484 C96.02686279 2.10074219 96.01002441 4.42169922 95.99267578 6.81298828 C95.94348852 14.50051589 95.94395309 22.1874714 95.96854305 29.87509918 C95.98193296 34.53422014 95.97884767 39.19209198 95.9375 43.85107422 C95.89817529 48.35155583 95.90292607 52.8500725 95.93762398 57.35057068 C95.94320236 59.06328949 95.93317329 60.77613582 95.90693474 62.48866272 C95.53154413 72.00456673 95.53154413 72.00456673 98.99813843 80.56291199 C101.25190685 82.59159058 103.46579449 84.19450985 106.04370117 85.77978516 C107.21668158 86.69886062 108.38087152 87.62951213 109.52807617 88.58056641 C110.61483117 89.42012383 111.70338895 90.25735262 112.79370117 91.09228516 C118.69670728 95.67002756 124.43020162 100.4167219 130.10620117 105.27197266 C133.06610353 107.79891058 136.04957903 110.29359445 139.04370117 112.77978516 C138.16870117 117.65478516 138.16870117 117.65478516 137.04370117 118.77978516 C135.49554712 118.92459802 133.94141763 119.00681361 132.38745117 119.06103516 C131.44772461 119.09841797 130.50799805 119.13580078 129.53979492 119.17431641 C127.54239909 119.24462891 125.54500326 119.31494141 123.54760742 119.38525391 C122.60788086 119.42263672 121.6681543 119.46001953 120.69995117 119.49853516 C119.83176758 119.52882813 118.96358398 119.55912109 118.0690918 119.59033203 C116.04875987 119.56200016 116.04875987 119.56200016 115.04370117 120.77978516 C114.93697501 122.73887456 114.90125068 124.70184485 114.89221191 126.66381836 C114.88386826 127.94269928 114.8755246 129.2215802 114.8669281 130.53921509 C114.86261814 131.96966528 114.85839437 133.40011573 114.85424805 134.83056641 C114.84631075 136.32661169 114.83792321 137.82265465 114.82911682 139.31869507 C114.81102343 142.54736662 114.79602095 145.77603292 114.78334045 149.00473022 C114.76317434 154.10466817 114.73551508 159.20454817 114.70666504 164.30444336 C114.6464945 175.12953023 114.59468395 185.95465171 114.54370117 196.77978516 C114.48867084 208.46433406 114.43225131 220.14886545 114.36615229 231.83335781 C114.33772952 236.90850679 114.31416008 241.98364877 114.2942276 247.05883789 C114.28087981 250.20989539 114.26346534 253.36092068 114.24491692 256.51195145 C114.23713372 257.97895115 114.23107611 259.44596112 114.22682381 260.91297531 C114.22081502 262.90725302 114.20820125 264.90150764 114.19519043 266.89575195 C114.1900367 268.01443161 114.18488297 269.13311127 114.17957306 270.28569031 C114.04370117 272.77978516 114.04370117 272.77978516 113.04370117 273.77978516 C110.80440231 273.87415045 108.56208367 273.89720843 106.32080078 273.89331055 C105.61839767 273.89345657 104.91599457 273.8936026 104.19230652 273.89375305 C101.86018839 273.89305388 99.52814918 273.88526133 97.19604492 273.87744141 C95.58321679 273.87557724 93.9703881 273.87415333 92.3575592 273.87315369 C88.1045476 273.86932839 83.85156994 273.85949801 79.59857178 273.84844971 C75.26192687 273.83823584 70.9252765 273.83365612 66.58862305 273.82861328 C58.07363348 273.81787574 49.55867154 273.80079919 41.04370117 273.77978516 C41.02823997 271.83872894 41.02823997 271.83872894 41.01246643 269.85845947 C40.91479076 257.67468938 40.81206214 245.49097103 40.70436192 233.30728531 C40.64915278 227.04325372 40.59573588 220.77921744 40.54638672 214.51513672 C40.49871368 208.47212376 40.44636964 202.4291678 40.39076042 196.38622284 C40.37035023 194.07852341 40.35163494 191.77080837 40.33462715 189.46308136 C40.31055374 186.23558394 40.28050293 183.0081942 40.24902344 179.78076172 C40.24326797 178.82266602 40.23751251 177.86457031 40.23158264 176.87744141 C40.21689941 175.55658539 40.21689941 175.55658539 40.20191956 174.20904541 C40.195467 173.44580082 40.18901445 172.68255623 40.18236637 171.89618301 C40.03784396 169.69038861 39.82974779 167.85120979 39.04370117 165.77978516 C35.52096616 164.60554015 32.69245579 164.62382008 28.97363281 164.58691406 C28.25785568 164.57873657 27.54207855 164.57055908 26.80461121 164.56213379 C24.43770173 164.53733497 22.07085186 164.52078108 19.70385742 164.50634766 C18.89519163 164.50102398 18.08652584 164.4957003 17.25335503 164.4902153 C12.97587914 164.46351208 8.69843221 164.44412521 4.42089844 164.4296875 C0.87929572 164.41632819 -2.66173355 164.38843596 -6.203125 164.34765625 C-10.47954568 164.29841398 -14.75544481 164.27357761 -19.03213692 164.26646042 C-20.66167458 164.25973838 -22.29120017 164.24449143 -23.9205761 164.22056961 C-26.19994989 164.18900474 -28.47730166 164.18886642 -30.75683594 164.19628906 C-32.05350693 164.18820221 -33.35017792 164.18011536 -34.68614197 164.17178345 C-38.02498341 164.53031727 -38.02498341 164.53031727 -40.37214661 166.68409729 C-42.63923862 171.1143592 -42.52809073 174.98105969 -42.50219727 179.89428711 C-42.51253494 180.90938858 -42.52287262 181.92449005 -42.53352356 182.97035217 C-42.56297998 186.31975163 -42.56445138 189.66854753 -42.56567383 193.01806641 C-42.58065349 195.34263768 -42.59738018 197.6671983 -42.61578369 199.991745 C-42.65949302 206.10568731 -42.67946442 212.21948605 -42.69451904 218.33355713 C-42.71407705 224.57418317 -42.7560486 230.81465386 -42.79614258 237.05517578 C-42.87148367 249.29666436 -42.92175168 261.53811824 -42.95629883 273.77978516 C-52.32665821 273.80291019 -61.69700784 273.82070106 -71.06738949 273.83159733 C-75.41798342 273.83682581 -79.76855789 273.84392281 -84.11914062 273.85522461 C-88.3142014 273.86605475 -92.50924342 273.87206226 -96.70431709 273.8746624 C-98.30836851 273.87651642 -99.91241885 273.8801366 -101.51646233 273.88551521 C-103.75546398 273.89272734 -105.99438712 273.89377603 -108.23339844 273.89331055 C-109.51025009 273.89553116 -110.78710175 273.89775177 -112.10264587 273.90003967 C-114.95629883 273.77978516 -114.95629883 273.77978516 -115.95629883 272.77978516 C-116.06524069 270.80584346 -116.10320209 268.82797224 -116.11451721 266.85105896 C-116.12430603 265.56231873 -116.13409485 264.27357849 -116.1441803 262.94578552 C-116.15008527 261.50430335 -116.15589566 260.06282079 -116.16162109 258.62133789 C-116.17119415 257.11381762 -116.18120388 255.60630008 -116.19161987 254.0987854 C-116.21873714 249.99362096 -116.23970964 245.88844494 -116.25962186 241.78324008 C-116.28143949 237.49772943 -116.30884877 233.21225475 -116.3356781 228.92677307 C-116.38566228 220.80594471 -116.43057979 212.68509646 -116.47370046 204.56422907 C-116.52302402 195.32131088 -116.57796019 186.07842876 -116.63338006 176.83554542 C-116.74728795 157.81699213 -116.85410771 138.79840483 -116.95629883 119.77978516 C-117.61227051 119.75996582 -118.26824219 119.74014648 -118.9440918 119.71972656 C-121.90690952 119.62466008 -124.86900415 119.51490764 -127.83129883 119.40478516 C-128.86383789 119.37384766 -129.89637695 119.34291016 -130.96020508 119.31103516 C-131.94633789 119.27236328 -132.9324707 119.23369141 -133.94848633 119.19384766 C-135.31529541 119.14671631 -135.31529541 119.14671631 -136.7097168 119.09863281 C-138.95629883 118.77978516 -138.95629883 118.77978516 -140.95629883 116.77978516 C-141.05395508 114.56103516 -141.05395508 114.56103516 -139.95629883 111.77978516 C-137.65090859 109.34259069 -135.03875709 107.3353433 -132.39379883 105.27978516 C-131.63309082 104.67175049 -130.87238281 104.06371582 -130.08862305 103.43725586 C-128.50233648 102.16976733 -126.91209859 100.90720948 -125.31811523 99.64941406 C-121.70895124 96.79237686 -118.14770169 93.87736633 -114.58129883 90.96728516 C-113.25091049 89.88743804 -111.92019092 88.80799884 -110.58911133 87.72900391 C-107.53820186 85.25399112 -104.4950373 82.76973653 -101.45629883 80.27978516 C-96.96605975 76.60103507 -92.46272568 72.93866579 -87.95629883 69.27978516 C-81.61106557 64.1275775 -75.27799089 58.96086611 -68.95629883 53.77978516 C-59.27891482 45.8484735 -49.56759776 37.95932558 -39.85375977 30.07275391 C-38.46599679 28.94596549 -37.07830075 27.81909464 -35.69067383 26.69213867 C-34.33145903 25.588263 -32.97208527 24.48458303 -31.61254883 23.38110352 C-27.81863224 20.29995214 -24.03954845 17.20178738 -20.26879883 14.09228516 C-18.49958694 12.65279003 -16.72866161 11.21539901 -14.95629883 9.77978516 C-14.40780273 9.32877441 -13.85930664 8.87776367 -13.29418945 8.41308594 C-11.54587631 6.98057519 -9.78405056 5.56634436 -8.01879883 4.15478516 C-7.20245972 3.47863159 -7.20245972 3.47863159 -6.36962891 2.78881836 C-2.48180289 -0.2793693 -2.48180289 -0.2793693 0 0 Z " fill="#FFFEFD" transform="translate(256.956298828125,119.22021484375)"/>
</svg>
