<?xml version="1.0" encoding="UTF-8"?>
<svg version="1.1" xmlns="http://www.w3.org/2000/svg" width="195" height="211">
<path d="M0 0 C64.35 0 128.7 0 195 0 C195 69.63 195 139.26 195 211 C130.65 211 66.3 211 0 211 C0 141.37 0 71.74 0 0 Z " fill="#EEC38B" transform="translate(0,0)"/>
<path d="M0 0 C0.8211882 -0.00761353 1.6423764 -0.01522705 2.4884491 -0.02307129 C4.22412075 -0.03386228 5.95985728 -0.03672944 7.69555664 -0.03222656 C10.33656742 -0.03125694 12.97464498 -0.07282856 15.61523438 -0.1171875 C17.30598356 -0.12239711 18.99674279 -0.12508265 20.6875 -0.125 C21.4700264 -0.14139526 22.2525528 -0.15779053 23.05879211 -0.17468262 C29.03583372 -0.10026106 32.01167779 1.57165595 36.54296875 5.46875 C38.07563457 8.53408164 37.64573346 11.73629272 37.60546875 15.09375 C37.60095703 15.80015625 37.59644531 16.5065625 37.59179688 17.234375 C37.5800075 18.97920275 37.56207199 20.723987 37.54296875 22.46875 C38.09562912 22.45764694 38.64828949 22.44654388 39.21769714 22.43510437 C44.9764284 22.32437731 50.73485671 22.24902816 56.49438477 22.1940918 C58.64294724 22.16896715 60.7914244 22.13486139 62.93969727 22.09155273 C66.03032487 22.03081208 69.11982138 22.00251956 72.2109375 21.98046875 C73.16945114 21.95466232 74.12796478 21.9288559 75.11552429 21.90226746 C79.78704895 21.90030842 81.8398303 21.9201695 85.6262207 24.87426758 C88.81073109 29.18477476 88.66390681 32.38826767 88.60546875 37.59375 C88.60095703 38.34785156 88.59644531 39.10195312 88.59179688 39.87890625 C88.58000374 41.74222127 88.56206817 43.60549555 88.54296875 45.46875 C89.15293701 45.45303955 89.76290527 45.4373291 90.39135742 45.42114258 C93.17096585 45.35855187 95.95042567 45.31968378 98.73046875 45.28125 C99.69017578 45.25611328 100.64988281 45.23097656 101.63867188 45.20507812 C110.61713318 45.1118761 110.61713318 45.1118761 114.54296875 48.46875 C116.03632399 51.45546049 115.69504527 54.18534397 115.7199707 57.51708984 C115.7265419 58.24247452 115.7331131 58.96785919 115.73988342 59.71522522 C115.75962356 62.12004698 115.77127976 64.52480632 115.78125 66.9296875 C115.78532553 67.75030293 115.78940105 68.57091835 115.79360008 69.41640091 C115.81446261 73.75871785 115.82876424 78.10100315 115.83813477 82.44335938 C115.84920738 86.93162672 115.88361616 91.41939939 115.92330647 95.90749168 C115.94943065 99.35615979 115.95782277 102.8047092 115.96141624 106.25346756 C115.96629212 107.9081011 115.97793455 109.562729 115.99645424 111.21726608 C116.02076046 113.53245204 116.01989713 115.84634705 116.01293945 118.16162109 C116.01880569 119.47907318 116.02467194 120.79652527 116.03071594 122.15390015 C115.46419798 126.00409555 114.58576793 127.13716101 111.54296875 129.46875 C108.66387806 130.90829535 106.18363539 130.60473115 102.96490479 130.61592102 C102.28139253 130.61959771 101.59788028 130.6232744 100.89365554 130.6270625 C98.59218213 130.63811823 96.29075383 130.64194637 93.98925781 130.64575195 C92.34354508 130.65201521 90.69783377 130.65866188 89.05212402 130.66566467 C84.57264854 130.68308783 80.09318373 130.69363013 75.61368275 130.7018702 C72.81587602 130.70701785 70.01807263 130.71309371 67.22026825 130.71938133 C58.46905485 130.73843757 49.7178499 130.75266746 40.96661973 130.7609933 C30.86035036 130.77076662 20.75429997 130.79708676 10.64810777 130.83749419 C2.83996844 130.86764333 -4.96810807 130.88246105 -12.77630448 130.88577431 C-17.44125718 130.88812629 -22.10597607 130.89710567 -26.77086639 130.92223549 C-31.16053486 130.94550007 -35.54981531 130.94975602 -39.93952942 130.93947411 C-41.5495813 130.93897823 -43.15965216 130.94531396 -44.76964569 130.95903015 C-46.97057278 130.97672961 -49.17010442 130.96965411 -51.37103271 130.95649719 C-52.60179409 130.95888555 -53.83255547 130.9612739 -55.10061264 130.96373463 C-59.12835849 130.36974666 -61.29678936 128.98845339 -64.45703125 126.46875 C-67.11608011 122.17683651 -66.7462337 117.4339062 -66.73168945 112.53515625 C-66.73680038 111.64512909 -66.74191132 110.75510193 -66.74717712 109.83810425 C-66.76105288 106.90241737 -66.76011809 103.96696573 -66.7578125 101.03125 C-66.76170007 98.9877107 -66.76603487 96.94417221 -66.77079773 94.90063477 C-66.77825526 90.62025328 -66.77797169 86.33995429 -66.77270508 82.05957031 C-66.76690615 76.57500836 -66.78385403 71.09078365 -66.80704975 65.60627747 C-66.82178101 61.38722765 -66.8226597 57.16825921 -66.81954002 52.94918823 C-66.82005338 50.92698498 -66.82529376 48.90477718 -66.83535194 46.88259888 C-66.84768933 44.05562394 -66.84094119 41.22930814 -66.8293457 38.40234375 C-66.83698944 37.56790741 -66.84463318 36.73347107 -66.85250854 35.87374878 C-66.81062337 31.2533896 -66.46840076 28.2082852 -63.45703125 24.46875 C-60.29977506 22.36391254 -59.58328514 22.2215441 -55.9855957 22.24169922 C-54.63453484 22.24192581 -54.63453484 22.24192581 -53.25617981 22.24215698 C-52.2873436 22.25247955 -51.31850739 22.26280212 -50.3203125 22.2734375 C-48.82844673 22.27768234 -48.82844673 22.27768234 -47.30644226 22.28201294 C-44.12734995 22.29321511 -40.94853853 22.31831986 -37.76953125 22.34375 C-35.61523844 22.35377975 -33.46094122 22.36290561 -31.30664062 22.37109375 C-26.02334153 22.39315454 -20.74020646 22.42663244 -15.45703125 22.46875 C-15.47878418 21.12417725 -15.47878418 21.12417725 -15.50097656 19.75244141 C-15.51225586 18.57858887 -15.52353516 17.40473633 -15.53515625 16.1953125 C-15.55690918 14.44855225 -15.55690918 14.44855225 -15.57910156 12.66650391 C-15.40053177 7.98868949 -14.11113017 5.16295603 -10.8762207 1.84960938 C-7.36450136 -0.15485975 -3.93896775 0.00100605 0 0 Z " fill="#544665" transform="translate(72.45703125,40.53125)"/>
<path d="M0 0 C2.6855594 2.6855594 3.06049974 5.37621328 4 9 C4.66 9 5.32 9 6 9 C6.09796875 9.60328125 6.1959375 10.2065625 6.296875 10.828125 C7.20692033 15.69216041 7.85449523 18.89087142 12 22 C14.88220589 23.44110295 17.36277973 23.12932483 20.58479309 23.13371277 C21.26901091 23.13597833 21.95322873 23.13824388 22.65818042 23.14057809 C24.96199723 23.14693265 27.26575544 23.14608779 29.56958008 23.14526367 C31.21691464 23.1482543 32.86424849 23.1516566 34.51158142 23.15544128 C38.99513053 23.16429636 43.47866056 23.16662006 47.96221757 23.16725707 C51.7022677 23.16820521 55.44231336 23.1718825 59.18236178 23.17542917 C68.0060983 23.18357984 76.82982461 23.18601288 85.65356445 23.18530273 C94.76030435 23.18470211 103.86698498 23.1952494 112.97370988 23.2110464 C120.78693001 23.22411743 128.60013075 23.2294868 136.41336173 23.22884732 C141.08211738 23.22859216 145.75082042 23.23145326 150.4195652 23.24202538 C154.81161188 23.25169873 159.20355556 23.25179077 163.59560585 23.24450874 C165.20767873 23.24346188 166.819758 23.24583183 168.43181992 23.2518692 C170.63275341 23.25957794 172.83333026 23.25495186 175.03425598 23.24723816 C176.26593915 23.24778293 177.49762232 23.24832769 178.76662922 23.24888897 C181.96963628 23.00233725 184.18095155 22.52631862 187 21 C187.86054671 18.40587906 187.86054671 18.40587906 188 15.375 C188.71532651 9.61071842 190.23429772 5.46111071 194 1 C194.33 1 194.66 1 195 1 C195 21.79 195 42.58 195 64 C130.65 64 66.3 64 0 64 C0 42.88 0 21.76 0 0 Z " fill="#EFC38A" transform="translate(0,147)"/>
<path d="M0 0 C2.47001685 2.42974896 4.8143249 4.75370408 6.90234375 7.5234375 C13.33703812 15.12045097 24.18975642 20.79018974 34 22 C35.57621864 22.0730652 37.15321441 22.13025673 38.73046875 22.17578125 C39.57649658 22.20220703 40.42252441 22.22863281 41.29418945 22.25585938 C42.98373204 22.29293949 44.67429364 22.29932871 46.36401367 22.27148438 C52.21416958 22.34355282 52.21416958 22.34355282 54.61035156 24.34521484 C55.82416532 25.8320701 56.9201989 27.413144 58 29 C61.84997321 30.9249866 66.5775888 30.22837952 70.8125 30.25 C71.81087891 30.270625 72.80925781 30.29125 73.83789062 30.3125 C80.95736205 30.43819566 80.95736205 30.43819566 87 27 C87.60908203 25.93845703 87.60908203 25.93845703 88.23046875 24.85546875 C90.8007928 22.1603166 93.11079619 22.46386598 96.72460938 22.34179688 C98.00561523 22.32729492 98.00561523 22.32729492 99.3125 22.3125 C100.99617386 22.26998949 102.67977511 22.22448315 104.36328125 22.17578125 C105.10876221 22.16458252 105.85424316 22.15338379 106.62231445 22.1418457 C109.43569322 21.97400783 112.21996643 21.46333893 115 21 C115 36.51 115 52.02 115 68 C100.44883138 68.06769277 85.8977668 68.12276819 71.34647655 68.15543652 C64.59022069 68.17091241 57.83406953 68.19201557 51.07788086 68.22631836 C44.56159671 68.25938735 38.04538061 68.27683794 31.52901649 68.28463173 C29.03903805 68.29018814 26.54906578 68.30103796 24.05913353 68.31719017 C20.57989853 68.33886869 17.10111749 68.3419709 13.62182617 68.34057617 C12.58532928 68.351362 11.5488324 68.36214783 10.48092651 68.3732605 C9.53441727 68.36913651 8.58790802 68.36501251 7.61271667 68.36076355 C6.78955554 68.36352893 5.96639441 68.36629431 5.11828899 68.36914349 C2.4735969 67.9082664 1.59081373 67.13211481 0 65 C-0.36076355 62.17158508 -0.36076355 62.17158508 -0.34057617 58.69262695 C-0.34034958 57.39150467 -0.34012299 56.09038239 -0.33988953 54.74983215 C-0.32456952 53.3293117 -0.30892153 51.90879474 -0.29296875 50.48828125 C-0.28737276 49.03525734 -0.28310267 47.58222776 -0.28010559 46.12919617 C-0.26865695 42.30679671 -0.23918999 38.4847398 -0.20599365 34.66247559 C-0.17529295 30.76135899 -0.16160028 26.86018698 -0.14648438 22.95898438 C-0.11431998 15.3058335 -0.06312383 7.65296477 0 0 Z " fill="#D1E3F4" transform="translate(12,97)"/>
<path d="M0 0 C1.16805176 -0.00426498 2.33610352 -0.00852997 3.53955078 -0.01292419 C4.83256607 -0.01247101 6.12558136 -0.01201782 7.45777893 -0.0115509 C8.82412305 -0.01454085 10.19046632 -0.017943 11.55680847 -0.02172852 C15.27784374 -0.03058947 18.99885605 -0.03290751 22.71990085 -0.0335443 C25.82145465 -0.03449168 28.92300305 -0.03816799 32.02455479 -0.0417164 C39.33937576 -0.04986893 46.65418441 -0.05229991 53.9690094 -0.05158997 C61.52561956 -0.05098896 69.08215839 -0.06154342 76.63875049 -0.07733363 C83.11688335 -0.0903901 89.59499285 -0.09577466 96.07313877 -0.09513456 C99.94648401 -0.09487901 103.81976589 -0.09776128 107.69309807 -0.10831261 C111.33493992 -0.11796185 114.97665745 -0.11809477 118.61850357 -0.11079597 C120.59813281 -0.10924411 122.57776195 -0.11761899 124.55737305 -0.12623596 C125.72824463 -0.12204147 126.89911621 -0.11784698 128.10546875 -0.11352539 C129.12736014 -0.11407016 130.14925154 -0.11461493 131.20210934 -0.1151762 C133.6162262 0.13371277 133.6162262 0.13371277 135.6162262 2.13371277 C135.8818512 4.08683777 135.8818512 4.08683777 135.8662262 6.38371277 C135.87396057 7.50519714 135.87396057 7.50519714 135.8818512 8.64933777 C135.55909643 11.66804412 134.65221088 14.28886593 133.6162262 17.13371277 C132.73885803 17.16344177 132.73885803 17.16344177 131.84376526 17.19377136 C129.18414595 17.28924758 126.52528781 17.39883419 123.8662262 17.50871277 C122.94583557 17.53965027 122.02544495 17.57058777 121.0771637 17.60246277 C119.74298401 17.66047058 119.74298401 17.66047058 118.3818512 17.71965027 C117.56490784 17.75107117 116.74796448 17.78249207 115.90626526 17.81486511 C113.41020703 18.16239731 111.75001894 18.80466809 109.6162262 20.13371277 C108.41351655 22.53913206 108.41305956 24.23737868 108.29981995 26.92277527 C108.25792542 27.86379089 108.21603088 28.80480652 108.17286682 29.77433777 C108.13355042 30.75918152 108.09423401 31.74402527 108.0537262 32.75871277 C107.98895081 34.24757996 107.98895081 34.24757996 107.92286682 35.76652527 C107.81661551 38.22211115 107.71457656 40.6777998 107.6162262 43.13371277 C99.57266722 44.90011603 90.80053559 46.67365519 82.6162262 45.13371277 C81.0849762 42.79386902 81.0849762 42.79386902 79.6162262 40.13371277 C74.60902093 36.67994769 69.97753844 36.67667263 64.1162262 36.75871277 C63.28735901 36.74711121 62.45849182 36.73550964 61.60450745 36.72355652 C56.59491502 36.74744965 52.83736316 37.15025485 48.6162262 40.13371277 C47.19065263 42.69093014 47.19065263 42.69093014 46.6162262 45.13371277 C31.03998421 45.76305588 17.96109379 44.78333446 5.6162262 34.13371277 C-1.17991261 27.72965889 -6.09301632 19.65865277 -6.5165863 10.15324402 C-6.51400818 9.09492371 -6.51143005 8.03660339 -6.5087738 6.94621277 C-6.51135193 5.88015808 -6.51393005 4.81410339 -6.5165863 3.71574402 C-6.27832078 -0.91641801 -4.11935566 0.006758 0 0 Z " fill="#A3CCEF" transform="translate(19.383773803710938,68.86628723144531)"/>
<path d="M0 0 C0.8211882 -0.00761353 1.6423764 -0.01522705 2.4884491 -0.02307129 C4.22412075 -0.03386228 5.95985728 -0.03672944 7.69555664 -0.03222656 C10.33656742 -0.03125694 12.97464498 -0.07282856 15.61523438 -0.1171875 C17.30598356 -0.12239711 18.99674279 -0.12508265 20.6875 -0.125 C21.4700264 -0.14139526 22.2525528 -0.15779053 23.05879211 -0.17468262 C29.03583372 -0.10026106 32.01167779 1.57165595 36.54296875 5.46875 C38.07563457 8.53408164 37.64573346 11.73629272 37.60546875 15.09375 C37.60095703 15.80015625 37.59644531 16.5065625 37.59179688 17.234375 C37.5800075 18.97920275 37.56207199 20.723987 37.54296875 22.46875 C38.09562912 22.45764694 38.64828949 22.44654388 39.21769714 22.43510437 C44.9764284 22.32437731 50.73485671 22.24902816 56.49438477 22.1940918 C58.64294724 22.16896715 60.7914244 22.13486139 62.93969727 22.09155273 C66.03032487 22.03081208 69.11982138 22.00251956 72.2109375 21.98046875 C73.16945114 21.95466232 74.12796478 21.9288559 75.11552429 21.90226746 C79.78704895 21.90030842 81.8398303 21.9201695 85.6262207 24.87426758 C88.81073109 29.18477476 88.66390681 32.38826767 88.60546875 37.59375 C88.60095703 38.34785156 88.59644531 39.10195312 88.59179688 39.87890625 C88.58000374 41.74222127 88.56206817 43.60549555 88.54296875 45.46875 C89.15293701 45.45303955 89.76290527 45.4373291 90.39135742 45.42114258 C93.17096585 45.35855187 95.95042567 45.31968378 98.73046875 45.28125 C99.69017578 45.25611328 100.64988281 45.23097656 101.63867188 45.20507812 C110.61713318 45.1118761 110.61713318 45.1118761 114.54296875 48.46875 C116.02500654 51.43282559 115.66217701 54.08954165 115.65649414 57.39697266 C115.65664017 58.10927536 115.65678619 58.82157806 115.65693665 59.5554657 C115.65623886 61.91461206 115.64845272 64.27367989 115.640625 66.6328125 C115.63876035 68.26663164 115.63733667 69.90045134 115.63633728 71.53427124 C115.63251584 75.8382318 115.62268873 80.14215871 115.6116333 84.44610596 C115.60141117 88.83646184 115.59683794 93.22682315 115.59179688 97.6171875 C115.58106614 106.23439046 115.56399418 114.85156604 115.54296875 123.46875 C115.21296875 123.46875 114.88296875 123.46875 114.54296875 123.46875 C114.21296875 120.82875 113.88296875 118.18875 113.54296875 115.46875 C113.21296875 115.46875 112.88296875 115.46875 112.54296875 115.46875 C112.21296875 117.77875 111.88296875 120.08875 111.54296875 122.46875 C111.21296875 122.46875 110.88296875 122.46875 110.54296875 122.46875 C110.52750755 121.17542503 110.52750755 121.17542503 110.51173401 119.85597229 C110.41393277 111.74761852 110.31144361 103.63934069 110.20362949 95.53111362 C110.14836239 91.36215984 110.09493649 87.19319909 110.0456543 83.02416992 C109.9980664 79.00411106 109.94572589 74.98414011 109.890028 70.96418571 C109.86957909 69.42714553 109.85087028 67.89008121 109.83389473 66.35299873 C109.80990655 64.20732994 109.77984492 62.06182871 109.74829102 59.91625977 C109.73274673 58.69270279 109.71720245 57.46914581 109.70118713 56.20851135 C109.85280175 53.55686171 109.85280175 53.55686171 108.54296875 52.46875 C107.06942527 52.37570982 105.59146284 52.35128735 104.11499023 52.35522461 C102.68382874 52.35540588 102.68382874 52.35540588 101.22375488 52.35559082 C100.2140564 52.36070679 99.20435791 52.36582275 98.1640625 52.37109375 C97.24113403 52.37210083 96.31820557 52.37310791 95.36730957 52.37414551 C91.90501674 52.37939506 88.44274155 52.39335619 84.98046875 52.40625 C77.24609375 52.426875 69.51171875 52.4475 61.54296875 52.46875 C61.54296875 75.89875 61.54296875 99.32875 61.54296875 123.46875 C83.32296875 123.96375 83.32296875 123.96375 105.54296875 124.46875 C105.54296875 124.79875 105.54296875 125.12875 105.54296875 125.46875 C104.64427818 125.4842112 104.64427818 125.4842112 103.72743225 125.49998474 C97.51486787 125.60781965 91.30245534 125.72243544 85.09008789 125.84106445 C82.76883102 125.88448739 80.44754067 125.92615684 78.1262207 125.96606445 C74.79758597 126.0235894 71.4691209 126.08733425 68.140625 126.15234375 C67.09584488 126.16905624 66.05106476 126.18576874 64.97462463 126.20298767 C64.01370407 126.22293289 63.05278351 126.24287811 62.06274414 126.26342773 C60.78700279 126.28674416 60.78700279 126.28674416 59.48548889 126.31053162 C57.53773077 126.25819829 57.53773077 126.25819829 56.54296875 127.46875 C54.35657422 127.54133946 52.16796486 127.55248783 49.98046875 127.53125 C48.18416016 127.51771484 48.18416016 127.51771484 46.3515625 127.50390625 C44.96130859 127.48650391 44.96130859 127.48650391 43.54296875 127.46875 C43.54296875 127.13875 43.54296875 126.80875 43.54296875 126.46875 C9.88296875 126.13875 -23.77703125 125.80875 -58.45703125 125.46875 C-58.45703125 125.13875 -58.45703125 124.80875 -58.45703125 124.46875 C-21.16703125 124.46875 16.12296875 124.46875 54.54296875 124.46875 C54.54296875 108.95875 54.54296875 93.44875 54.54296875 77.46875 C52.56296875 78.12875 50.58296875 78.78875 48.54296875 79.46875 C46.1652832 79.72412109 46.1652832 79.72412109 43.90625 79.7421875 C43.08189453 79.7628125 42.25753906 79.7834375 41.40820312 79.8046875 C39.69476509 79.8309069 37.98118552 79.84902869 36.26757812 79.859375 C31.35147133 79.84250689 31.35147133 79.84250689 27.4609375 82.5078125 C27.15800781 83.15492187 26.85507813 83.80203125 26.54296875 84.46875 C25.88296875 84.13875 25.22296875 83.80875 24.54296875 83.46875 C24.54296875 81.48875 24.54296875 79.50875 24.54296875 77.46875 C29.34646494 75.26677763 33.68200741 75.06978385 38.8984375 74.8125 C41.69615767 74.72226847 41.69615767 74.72226847 43.54296875 72.46875 C46.14453125 72.0546875 46.14453125 72.0546875 49.16796875 71.84375 C50.67230469 71.73160156 50.67230469 71.73160156 52.20703125 71.6171875 C52.97789063 71.56820312 53.74875 71.51921875 54.54296875 71.46875 C54.51154785 70.54594238 54.51154785 70.54594238 54.47949219 69.60449219 C54.39619858 66.80941191 54.34426862 64.01459285 54.29296875 61.21875 C54.25945312 60.25066406 54.2259375 59.28257813 54.19140625 58.28515625 C54.0921754 51.09091934 54.0921754 51.09091934 56.43359375 47.859375 C59.61335862 45.76308557 61.33427653 45.347176 65.11328125 45.37109375 C66.00917969 45.37431641 66.90507812 45.37753906 67.828125 45.38085938 C69.23384766 45.39342773 69.23384766 45.39342773 70.66796875 45.40625 C71.61285156 45.41076172 72.55773437 45.41527344 73.53125 45.41992188 C75.86855262 45.43172643 78.20572936 45.44819241 80.54296875 45.46875 C81.20678386 41.82830362 81.68058038 38.35776221 81.66796875 34.65625 C81.67054688 33.88667969 81.673125 33.11710937 81.67578125 32.32421875 C81.74536904 30.4528778 81.74536904 30.4528778 80.54296875 29.46875 C78.74602837 29.37235816 76.94525982 29.34687575 75.14573669 29.34849548 C73.97479462 29.34712082 72.80385254 29.34574615 71.59742737 29.34432983 C69.6531913 29.34972275 69.6531913 29.34972275 67.66967773 29.35522461 C66.30008954 29.35550648 64.93050119 29.35534875 63.56091309 29.3547821 C59.83173927 29.35449412 56.10259734 29.36039091 52.37343097 29.36735606 C48.48032462 29.37358953 44.58721762 29.37419339 40.69410706 29.37538147 C33.31698729 29.37849481 25.93988226 29.38670822 18.562769 29.39673096 C10.16629332 29.40789203 1.76981696 29.41340253 -6.62666428 29.41842639 C-23.90346181 29.42889084 -41.18024497 29.44649032 -58.45703125 29.46875 C-58.78703125 32.76875 -59.11703125 36.06875 -59.45703125 39.46875 C-60.11703125 38.80875 -60.77703125 38.14875 -61.45703125 37.46875 C-63.81391531 39.38774715 -63.81391531 39.38774715 -63.68408203 42.7641449 C-63.68378346 44.20404884 -63.67229876 45.64397454 -63.65234375 47.08374023 C-63.64942322 47.86925262 -63.64650269 48.65476501 -63.64349365 49.46408081 C-63.63587297 51.17254069 -63.62363066 52.88098467 -63.60736084 54.58938408 C-63.58189882 57.29139739 -63.56881938 59.99321505 -63.55908203 62.69532776 C-63.53229549 69.40725771 -63.48390462 76.11900206 -63.4362793 82.83081055 C-63.39687108 88.49894718 -63.36556571 94.16701493 -63.34515381 99.83525276 C-63.33216241 102.50043671 -63.30714478 105.16533869 -63.28173828 107.83042908 C-63.27447404 109.4617386 -63.26777047 111.09305076 -63.26171875 112.72436523 C-63.25138611 113.46784714 -63.24105347 114.21132904 -63.23040771 114.9773407 C-63.22963777 118.7059436 -63.33133819 120.28021041 -65.45703125 123.46875 C-67.10574419 120.17132411 -66.61336954 116.50091035 -66.61816406 112.87573242 C-66.62312897 111.98614334 -66.62809387 111.09655426 -66.63320923 110.18000793 C-66.64785061 107.22807042 -66.65463642 104.27618666 -66.66015625 101.32421875 C-66.66590643 99.2763926 -66.67166418 97.22856647 -66.6774292 95.18074036 C-66.68794506 90.8824539 -66.69378378 86.58418619 -66.69726562 82.28588867 C-66.70274912 76.77772213 -66.72677166 71.26980295 -66.75523758 65.76171398 C-66.77386096 61.52980323 -66.77906942 57.29795207 -66.7806015 53.0660038 C-66.78362964 51.03542034 -66.79166357 49.00483797 -66.80478668 46.97429466 C-66.82183947 44.13265554 -66.81996866 41.29162069 -66.81347656 38.44995117 C-66.82269135 37.6108017 -66.83190613 36.77165222 -66.84140015 35.90707397 C-66.80823519 31.27348638 -66.48182676 28.21731567 -63.45703125 24.46875 C-60.29977506 22.36391254 -59.58328514 22.2215441 -55.9855957 22.24169922 C-54.63453484 22.24192581 -54.63453484 22.24192581 -53.25617981 22.24215698 C-52.2873436 22.25247955 -51.31850739 22.26280212 -50.3203125 22.2734375 C-48.82844673 22.27768234 -48.82844673 22.27768234 -47.30644226 22.28201294 C-44.12734995 22.29321511 -40.94853853 22.31831986 -37.76953125 22.34375 C-35.61523844 22.35377975 -33.46094122 22.36290561 -31.30664062 22.37109375 C-26.02334153 22.39315454 -20.74020646 22.42663244 -15.45703125 22.46875 C-15.47878418 21.12417725 -15.47878418 21.12417725 -15.50097656 19.75244141 C-15.51225586 18.57858887 -15.52353516 17.40473633 -15.53515625 16.1953125 C-15.55690918 14.44855225 -15.55690918 14.44855225 -15.57910156 12.66650391 C-15.40053177 7.98868949 -14.11113017 5.16295603 -10.8762207 1.84960938 C-7.36450136 -0.15485975 -3.93896775 0.00100605 0 0 Z " fill="#514164" transform="translate(72.45703125,40.53125)"/>
<path d="M0 0 C14.19 0 28.38 0 43 0 C43 1.98 43 3.96 43 6 C38.38 6.33 33.76 6.66 29 7 C28.67 8.32 28.34 9.64 28 11 C29.94090826 12.94090826 33.47293902 12.39919435 36.0625 12.5625 C37.35285156 12.64628906 38.64320313 12.73007813 39.97265625 12.81640625 C40.97167969 12.87699219 41.97070312 12.93757813 43 13 C43 14.98 43 16.96 43 19 C38.38 19.33 33.76 19.66 29 20 C28.67 21.32 28.34 22.64 28 24 C32.95 24 37.9 24 43 24 C43.144375 22.370625 43.28875 20.74125 43.4375 19.0625 C43.875 14.125 43.875 14.125 45 13 C45.19223268 8.86699731 44.77287314 5.05758399 44 1 C46.475 1.495 46.475 1.495 49 2 C49 24.11 49 46.22 49 69 C48.67 69 48.34 69 48 69 C47.67 58.44 47.34 47.88 47 37 C45.02 37.495 45.02 37.495 43 38 C43 36.02 43 34.04 43 32 C30.79 32.33 18.58 32.66 6 33 C5.67 34.98 5.34 36.96 5 39 C17.54 39 30.08 39 43 39 C43 40.98 43 42.96 43 45 C30.79 45.33 18.58 45.66 6 46 C6.33 47.65 6.66 49.3 7 51 C18.88 51.33 30.76 51.66 43 52 C43 53.98 43 55.96 43 58 C24.19 58.495 24.19 58.495 5 59 C5.66 60.65 6.32 62.3 7 64 C18.88 64.33 30.76 64.66 43 65 C43 66.65 43 68.3 43 70 C44.32 70.33 45.64 70.66 47 71 C31.49 71 15.98 71 0 71 C0 47.57 0 24.14 0 0 Z " fill="#FAFAFB" transform="translate(133,93)"/>
<path d="M0 0 C4.95 0 9.9 0 15 0 C15.33 0.99 15.66 1.98 16 3 C16.99 3.33 17.98 3.66 19 4 C19 9.61 19 15.22 19 21 C20.60230469 20.96519531 22.20460937 20.93039063 23.85546875 20.89453125 C25.96613534 20.86638903 28.07681328 20.83908933 30.1875 20.8125 C31.24259766 20.78736328 32.29769531 20.76222656 33.38476562 20.73632812 C34.91713867 20.72182617 34.91713867 20.72182617 36.48046875 20.70703125 C37.41785889 20.6913208 38.35524902 20.67561035 39.32104492 20.65942383 C42.53256353 21.06770492 44.39378631 22.11169302 47 24 C48.48203779 26.96407559 48.11920826 29.62079165 48.11352539 32.92822266 C48.11367142 33.64052536 48.11381744 34.35282806 48.1139679 35.0867157 C48.11327011 37.44586206 48.10548397 39.80492989 48.09765625 42.1640625 C48.0957916 43.79788164 48.09436792 45.43170134 48.09336853 47.06552124 C48.08954709 51.3694818 48.07971998 55.67340871 48.06866455 59.97735596 C48.05844242 64.36771184 48.05386919 68.75807315 48.04882812 73.1484375 C48.03809739 81.76564046 48.02102543 90.38281604 48 99 C47.67 99 47.34 99 47 99 C46.67 96.36 46.34 93.72 46 91 C45.67 91 45.34 91 45 91 C44.67 93.31 44.34 95.62 44 98 C43.67 98 43.34 98 43 98 C42.9845388 96.70667503 42.9845388 96.70667503 42.96876526 95.38722229 C42.87096402 87.27886852 42.76847486 79.17059069 42.66066074 71.06236362 C42.60539364 66.89340984 42.55196774 62.72444909 42.50268555 58.55541992 C42.45509765 54.53536106 42.40275714 50.51539011 42.34705925 46.49543571 C42.32661034 44.95839553 42.30790153 43.42133121 42.29092598 41.88424873 C42.2669378 39.73857994 42.23687617 37.59307871 42.20532227 35.44750977 C42.18977798 34.22395279 42.1742337 33.00039581 42.15821838 31.73976135 C42.309833 29.08811171 42.309833 29.08811171 41 28 C39.52645652 27.90695982 38.04849409 27.88253735 36.57202148 27.88647461 C35.14085999 27.88665588 35.14085999 27.88665588 33.68078613 27.88684082 C32.67108765 27.89195679 31.66138916 27.89707275 30.62109375 27.90234375 C29.69816528 27.90335083 28.77523682 27.90435791 27.82434082 27.90539551 C24.36204799 27.91064506 20.8997728 27.92460619 17.4375 27.9375 C9.703125 27.958125 1.96875 27.97875 -6 28 C-6 51.43 -6 74.86 -6 99 C15.78 99.495 15.78 99.495 38 100 C38 100.33 38 100.66 38 101 C37.10130943 101.0154612 37.10130943 101.0154612 36.1844635 101.03123474 C29.97189912 101.13906965 23.75948659 101.25368544 17.54711914 101.37231445 C15.22586227 101.41573739 12.90457192 101.45740684 10.58325195 101.49731445 C7.25461722 101.5548394 3.92615215 101.61858425 0.59765625 101.68359375 C-0.96951393 101.70866249 -0.96951393 101.70866249 -2.56834412 101.73423767 C-3.52926468 101.75418289 -4.49018524 101.77412811 -5.48022461 101.79467773 C-6.75596596 101.81799416 -6.75596596 101.81799416 -8.05747986 101.84178162 C-10.00523798 101.78944829 -10.00523798 101.78944829 -11 103 C-13.18639453 103.07258946 -15.37500389 103.08373783 -17.5625 103.0625 C-19.35880859 103.04896484 -19.35880859 103.04896484 -21.19140625 103.03515625 C-22.58166016 103.01775391 -22.58166016 103.01775391 -24 103 C-24 102.67 -24 102.34 -24 102 C-57.66 101.67 -91.32 101.34 -126 101 C-126 100.67 -126 100.34 -126 100 C-88.71 100 -51.42 100 -13 100 C-13 84.49 -13 68.98 -13 53 C-14.98 53.66 -16.96 54.32 -19 55 C-21.37768555 55.25537109 -21.37768555 55.25537109 -23.63671875 55.2734375 C-24.46107422 55.2940625 -25.28542969 55.3146875 -26.13476562 55.3359375 C-27.84820366 55.3621569 -29.56178323 55.38027869 -31.27539062 55.390625 C-36.19149742 55.37375689 -36.19149742 55.37375689 -40.08203125 58.0390625 C-40.38496094 58.68617187 -40.68789062 59.33328125 -41 60 C-41.66 59.67 -42.32 59.34 -43 59 C-43 57.02 -43 55.04 -43 53 C-38.19650381 50.79802763 -33.86096134 50.60103385 -28.64453125 50.34375 C-25.84681108 50.25351847 -25.84681108 50.25351847 -24 48 C-21.3984375 47.5859375 -21.3984375 47.5859375 -18.375 47.375 C-17.37210937 47.30023438 -16.36921875 47.22546875 -15.3359375 47.1484375 C-14.56507812 47.09945312 -13.79421875 47.05046875 -13 47 C-13.0314209 46.07719238 -13.0314209 46.07719238 -13.06347656 45.13574219 C-13.14677017 42.34066191 -13.19870013 39.54584285 -13.25 36.75 C-13.28351563 35.78191406 -13.31703125 34.81382813 -13.3515625 33.81640625 C-13.45079335 26.62216934 -13.45079335 26.62216934 -11.109375 23.390625 C-7.92961013 21.29433557 -6.20869222 20.878426 -2.4296875 20.90234375 C-1.53378906 20.90556641 -0.63789063 20.90878906 0.28515625 20.91210938 C1.22230469 20.92048828 2.15945312 20.92886719 3.125 20.9375 C4.06988281 20.94201172 5.01476562 20.94652344 5.98828125 20.95117188 C8.32558387 20.96297643 10.66276061 20.97944241 13 21 C13.66381511 17.35955362 14.13761163 13.88901221 14.125 10.1875 C14.12757813 9.41792969 14.13015625 8.64835937 14.1328125 7.85546875 C14.20240029 5.9841278 14.20240029 5.9841278 13 5 C11.17772313 4.90356222 9.3516664 4.87812629 7.52684021 4.87974548 C6.33906982 4.87837082 5.15129944 4.87699615 3.92753601 4.87557983 C2.61267715 4.87917511 1.2978183 4.88277039 -0.05688477 4.88647461 C-1.44617714 4.88675648 -2.83546967 4.88659875 -4.22476196 4.8860321 C-8.00765289 4.88574412 -11.79051238 4.89164099 -15.57339597 4.89860606 C-19.52255677 4.90483945 -23.47171822 4.90544339 -27.42088318 4.90663147 C-34.90425075 4.90974483 -42.38760379 4.91795828 -49.87096494 4.92798096 C-58.38835733 4.93914195 -66.9057504 4.94465251 -75.42314827 4.94967639 C-92.94877394 4.96014089 -110.47438543 4.97774042 -128 5 C-127.34 4.01 -126.68 3.02 -126 2 C-123.78611565 1.61523914 -123.78611565 1.61523914 -120.9760437 1.60127258 C-119.91311096 1.58873444 -118.85017822 1.57619629 -117.7550354 1.5632782 C-116.5840329 1.56471329 -115.4130304 1.56614838 -114.20654297 1.56762695 C-112.97730103 1.5574353 -111.74805908 1.54724365 -110.48156738 1.53674316 C-107.10563378 1.51167598 -103.73013571 1.49987799 -100.35414648 1.49388909 C-96.82799915 1.48452618 -93.30197868 1.45832462 -89.77590942 1.43388367 C-83.09654967 1.39015734 -76.41721444 1.36164818 -69.73775494 1.33856028 C-62.13439479 1.31154135 -54.53116188 1.26762792 -46.92789245 1.22227156 C-31.28532696 1.12933753 -15.64273753 1.05769706 0 1 C0 0.67 0 0.34 0 0 Z " fill="#474472" transform="translate(140,65)"/>
<path d="M0 0 C28.38 0 56.76 0 86 0 C86 20.46 86 40.92 86 62 C85.34 62 84.68 62 84 62 C83.64808594 61.32195313 83.29617187 60.64390625 82.93359375 59.9453125 C79.38844437 53.26228938 75.46390842 47.10101378 71 41 C70.25943359 39.93265625 70.25943359 39.93265625 69.50390625 38.84375 C65.91461223 33.78566629 61.83195477 29.87105467 57 26 C56.360625 25.48566406 55.72125 24.97132812 55.0625 24.44140625 C49.43130149 20.07041547 43.38049854 16.19024927 37 13 C37 12.34 37 11.68 37 11 C35.97777344 10.72027344 34.95554688 10.44054688 33.90234375 10.15234375 C30.37395633 9.14562443 26.98721001 7.88222619 23.5625 6.5625 C15.85024412 3.75653392 8.08622068 2.29169499 0 1 C0 0.67 0 0.34 0 0 Z " fill="#FCFBFA" transform="translate(109,0)"/>
<path d="M0 0 C0.33 0 0.66 0 1 0 C1 20.79 1 41.58 1 63 C-27.38 63 -55.76 63 -85 63 C-85 62.67 -85 62.34 -85 62 C-83.87207031 61.81566406 -82.74414062 61.63132813 -81.58203125 61.44140625 C-57.81138989 57.19774381 -34.6723238 46.86088902 -19.2734375 27.66015625 C-18.52320313 26.78230469 -17.77296875 25.90445313 -17 25 C-16.34 25 -15.68 25 -15 25 C-15 24.34 -15 23.68 -15 23 C-9.25 20 -9.25 20 -7 20 C-6.87044922 18.83984375 -6.87044922 18.83984375 -6.73828125 17.65625 C-5.81551381 10.8159189 -4.52597424 5.36178133 0 0 Z " fill="#FCFCFC" transform="translate(194,148)"/>
<path d="M0 0 C28.05 0 56.1 0 85 0 C85 0.33 85 0.66 85 1 C83.5459375 1.22042969 83.5459375 1.22042969 82.0625 1.4453125 C56.03825966 5.68273131 31.24322551 18.76411991 15 40 C9.68753786 47.67967326 4.89899013 55.49667478 1 64 C0.67 64 0.34 64 0 64 C0 42.88 0 21.76 0 0 Z " fill="#FCFCFB" transform="translate(0,0)"/>
<path d="M0 0 C2.6855594 2.6855594 3.06049974 5.37621328 4 9 C4.66 9 5.32 9 6 9 C6.09796875 9.60328125 6.1959375 10.2065625 6.296875 10.828125 C7.22545097 15.79120346 7.92266846 18.73813477 12 22 C17 27 17 27 19.2890625 29.30859375 C22.13008846 32.12915122 25.00932813 34.8955389 27.9375 37.625 C28.68676758 38.34042969 28.68676758 38.34042969 29.45117188 39.0703125 C32.72686862 42.11354044 35.91882505 44.18749607 40 46 C40 46.66 40 47.32 40 48 C40.87269531 48.27070313 41.74539062 48.54140625 42.64453125 48.8203125 C45.84934305 49.9470333 48.68567992 51.29423254 51.6875 52.875 C62.91666207 58.53086472 73.6673809 61.0915525 86 63 C86 63.33 86 63.66 86 64 C57.62 64 29.24 64 0 64 C0 42.88 0 21.76 0 0 Z " fill="#FCFBFA" transform="translate(0,147)"/>
<path d="M0 0 C1.56047445 0.00015913 3.12095416 0.00585397 4.68139648 0.01586914 C5.91115456 0.01799156 5.91115456 0.01799156 7.16575623 0.02015686 C9.79470406 0.0257725 12.42356797 0.0383276 15.05249023 0.05102539 C16.8304838 0.05603838 18.60847869 0.06060163 20.38647461 0.06469727 C24.75434569 0.07574701 29.12215371 0.09302208 33.48999023 0.11352539 C33.98499023 2.58852539 33.98499023 2.58852539 34.48999023 5.11352539 C35.80999023 4.78352539 37.12999023 4.45352539 38.48999023 4.11352539 C38.65723135 9.07956252 38.81782807 14.04575217 38.97216797 19.01220703 C39.02566138 20.70302162 39.08099621 22.39377897 39.13818359 24.08447266 C39.21989065 26.50939586 39.29505419 28.93444533 39.36889648 31.35961914 C39.39593155 32.12004013 39.42296661 32.88046112 39.45082092 33.66392517 C39.50290322 35.47975873 39.50185608 37.29698382 39.48999023 39.11352539 C38.48999023 40.11352539 38.48999023 40.11352539 36.58543396 40.23377991 C35.75270462 40.2315593 34.91997528 40.22933868 34.06201172 40.22705078 C33.12111191 40.22697525 32.1802121 40.22689972 31.21080017 40.2268219 C30.18789383 40.22166061 29.16498749 40.21649933 28.11108398 40.21118164 C27.06928482 40.20976669 26.02748566 40.20835175 24.95411682 40.20689392 C21.61187929 40.20127619 18.26970767 40.18872069 14.92749023 40.17602539 C12.66772557 40.17101267 10.40795987 40.16644937 8.14819336 40.16235352 C2.59543633 40.151301 -2.95728201 40.13454563 -8.51000977 40.11352539 C-8.51000977 39.78352539 -8.51000977 39.45352539 -8.51000977 39.11352539 C5.34999023 38.78352539 19.20999023 38.45352539 33.48999023 38.11352539 C33.48999023 36.46352539 33.48999023 34.81352539 33.48999023 33.11352539 C31.86988037 33.12923584 31.86988037 33.12923584 30.21704102 33.14526367 C26.21772565 33.18140733 22.21842477 33.20440523 18.21899414 33.22338867 C16.48654759 33.23345915 14.75411808 33.24711628 13.02172852 33.2644043 C10.53454385 33.28860701 8.04758348 33.29999778 5.56030273 33.30883789 C4.78316925 33.31916046 4.00603577 33.32948303 3.20535278 33.34011841 C1.2987353 33.3405181 -0.60732013 33.23584679 -2.51000977 33.11352539 C-3.17000977 32.45352539 -3.83000977 31.79352539 -4.51000977 31.11352539 C-4.51000977 29.79352539 -4.51000977 28.47352539 -4.51000977 27.11352539 C-1.33710263 25.52707183 2.07824408 25.99274326 5.56030273 26.01586914 C6.35653046 26.01728409 7.15275818 26.01869904 7.97311401 26.02015686 C10.52044403 26.02576194 13.0676867 26.03831525 15.61499023 26.05102539 C17.34024938 26.05603974 19.06550991 26.06060276 20.79077148 26.06469727 C25.02387815 26.07573302 29.25691937 26.09300103 33.48999023 26.11352539 C33.48999023 24.13352539 33.48999023 22.15352539 33.48999023 20.11352539 C31.86988037 20.12923584 31.86988037 20.12923584 30.21704102 20.14526367 C26.21772565 20.18140733 22.21842477 20.20440523 18.21899414 20.22338867 C16.48654759 20.23345915 14.75411808 20.24711628 13.02172852 20.2644043 C10.53454385 20.28860701 8.04758348 20.29999778 5.56030273 20.30883789 C4.78316925 20.31916046 4.00603577 20.32948303 3.20535278 20.34011841 C1.2987353 20.3405181 -0.60732013 20.23584679 -2.51000977 20.11352539 C-3.17000977 19.45352539 -3.83000977 18.79352539 -4.51000977 18.11352539 C-4.18000977 16.46352539 -3.85000977 14.81352539 -3.51000977 13.11352539 C8.69999023 13.11352539 20.90999023 13.11352539 33.48999023 13.11352539 C33.48999023 11.13352539 33.48999023 9.15352539 33.48999023 7.11352539 C20.94999023 7.11352539 8.40999023 7.11352539 -4.51000977 7.11352539 C-4.51000977 0.14586872 -4.51000977 0.14586872 0 0 Z " fill="#B7BACE" transform="translate(142.510009765625,124.886474609375)"/>
<path d="M0 0 C0.825 -0.02449219 1.65 -0.04898438 2.5 -0.07421875 C8.3652708 -0.10214861 11.90933422 0.80474141 16.625 4.375 C17.285 6.025 17.945 7.675 18.625 9.375 C24.565 9.375 30.505 9.375 36.625 9.375 C36.625 9.705 36.625 10.035 36.625 10.375 C35.38363281 10.50777344 34.14226562 10.64054687 32.86328125 10.77734375 C31.22134139 10.95561151 29.57941501 11.13400346 27.9375 11.3125 C27.12087891 11.39951172 26.30425781 11.48652344 25.46289062 11.57617188 C21.47049781 12.01258728 17.54847148 12.48802376 13.625 13.375 C14.12 17.335 14.12 17.335 14.625 21.375 C9.83110642 24.14913483 5.16043101 23.78075692 -0.25 23.8125 C-1.23097656 23.84537109 -2.21195313 23.87824219 -3.22265625 23.91210938 C-11.31491199 23.97217335 -11.31491199 23.97217335 -15.0078125 20.97265625 C-17.375 18.375 -17.375 18.375 -18.375 16.375 C-24.645 16.045 -30.915 15.715 -37.375 15.375 C-37.375 15.045 -37.375 14.715 -37.375 14.375 C-33.9375177 14.34598606 -30.50006688 14.32819665 -27.0625 14.3125 C-26.08603516 14.30412109 -25.10957031 14.29574219 -24.10351562 14.28710938 C-23.16572266 14.28388672 -22.22792969 14.28066406 -21.26171875 14.27734375 C-19.96560669 14.26948853 -19.96560669 14.26948853 -18.64331055 14.26147461 C-16.375 14.375 -16.375 14.375 -13.375 15.375 C-13.106875 14.281875 -12.83875 13.18875 -12.5625 12.0625 C-11.49836261 8.75807337 -11.02845336 7.42539578 -8.375 5.375 C-9.695 5.375 -11.015 5.375 -12.375 5.375 C-12.375 4.715 -12.375 4.055 -12.375 3.375 C-13.035 3.045 -13.695 2.715 -14.375 2.375 C-9.64054576 -0.04053788 -5.19194634 0.00803707 0 0 Z " fill="#4C4070" transform="translate(83.375,104.625)"/>
<path d="M0 0 C0.66 0 1.32 0 2 0 C2.27972656 0.6290625 2.55945313 1.258125 2.84765625 1.90625 C8.103757 13.12827862 14.8596128 20.27398229 26.453125 25 C35.02881202 27.73580199 44.07560806 27.71528343 53 28 C53.33 26.35 53.66 24.7 54 23 C56.08045068 22.33128371 57.51227756 21.87116766 59.65625 22.4375 C62.9867778 23.23682667 66.34225805 23.36602338 69.75 23.5625 C70.44738281 23.60568359 71.14476563 23.64886719 71.86328125 23.69335938 C73.57531922 23.79889596 75.28763561 23.8998991 77 24 C77 24.33 77 24.66 77 25 C75.86820312 25.04898438 74.73640625 25.09796875 73.5703125 25.1484375 C72.08851661 25.22346514 70.606747 25.29901297 69.125 25.375 C68.37863281 25.4059375 67.63226563 25.436875 66.86328125 25.46875 C62.46526812 25.55643831 62.46526812 25.55643831 59 28 C58.28072705 30.31765729 57.6090107 32.65095874 57 35 C56.01 34.67 55.02 34.34 54 34 C52.18715949 33.88529922 50.37085799 33.82179982 48.5546875 33.7890625 C46.93820313 33.74652344 46.93820313 33.74652344 45.2890625 33.703125 C43.03661301 33.65158153 40.78398788 33.60715634 38.53125 33.5703125 C24.91226067 33.18212278 14.10157738 28.49675517 4.61328125 18.48046875 C0 12.68813387 0 12.68813387 0 10 C-0.66 10 -1.32 10 -2 10 C-2.89868727 7.48367565 -3.1616905 6.39267692 -2.125 3.875 C-1.75375 3.25625 -1.3825 2.6375 -1 2 C-0.67 1.34 -0.34 0.68 0 0 Z " fill="#4A4672" transform="translate(13,86)"/>
<path d="M0 0 C0.83050873 0.00444122 1.66101746 0.00888245 2.51669312 0.01345825 C3.92792953 0.01368484 3.92792953 0.01368484 5.36767578 0.01391602 C6.38542084 0.02423859 7.40316589 0.03456116 8.45175171 0.04519653 C9.49213593 0.04802643 10.53252014 0.05085632 11.60443115 0.05377197 C14.93646615 0.064992 18.26823507 0.09009989 21.60018921 0.11550903 C23.85539367 0.12553648 26.11060233 0.13466273 28.36581421 0.14285278 C33.90236375 0.16493725 39.43875748 0.19843265 44.97518921 0.24050903 C44.97518921 0.57050903 44.97518921 0.90050903 44.97518921 1.24050903 C29.79518921 1.57050903 14.61518921 1.90050903 -1.02481079 2.24050903 C-1.02481079 25.67050903 -1.02481079 49.10050903 -1.02481079 73.24050903 C20.75518921 73.73550903 20.75518921 73.73550903 42.97518921 74.24050903 C42.97518921 74.57050903 42.97518921 74.90050903 42.97518921 75.24050903 C42.07649864 75.25597023 42.07649864 75.25597023 41.15965271 75.27174377 C34.94708833 75.37957868 28.7346758 75.49419448 22.52230835 75.61282349 C20.20105148 75.65624642 17.87976113 75.69791587 15.55844116 75.73782349 C12.22980643 75.79534843 8.90134136 75.85909328 5.57284546 75.92410278 C4.00567528 75.94917152 4.00567528 75.94917152 2.40684509 75.9747467 C1.44592453 75.99469193 0.48500397 76.01463715 -0.5050354 76.03518677 C-1.78077675 76.05850319 -1.78077675 76.05850319 -3.08229065 76.08229065 C-5.03004878 76.02995732 -5.03004878 76.02995732 -6.02481079 77.24050903 C-8.21120532 77.31309849 -10.39981468 77.32424686 -12.58731079 77.30300903 C-14.38361938 77.28947388 -14.38361938 77.28947388 -16.21621704 77.27566528 C-17.60647095 77.25826294 -17.60647095 77.25826294 -19.02481079 77.24050903 C-19.02481079 76.91050903 -19.02481079 76.58050903 -19.02481079 76.24050903 C-52.68481079 75.91050903 -86.34481079 75.58050903 -121.02481079 75.24050903 C-121.02481079 74.91050903 -121.02481079 74.58050903 -121.02481079 74.24050903 C-83.73481079 74.24050903 -46.44481079 74.24050903 -8.02481079 74.24050903 C-8.02481079 59.06050903 -8.02481079 43.88050903 -8.02481079 28.24050903 C-7.69481079 28.24050903 -7.36481079 28.24050903 -7.02481079 28.24050903 C-7.02481079 42.10050903 -7.02481079 55.96050903 -7.02481079 70.24050903 C-6.36481079 70.24050903 -5.70481079 70.24050903 -5.02481079 70.24050903 C-5.01672394 69.39304108 -5.00863708 68.54557312 -5.00030518 67.67242432 C-4.92245507 59.69676462 -4.8351938 51.72127593 -4.73728371 43.74583626 C-4.68727775 39.64529955 -4.64094833 35.54478914 -4.60293579 31.44412231 C-4.56613696 27.48882704 -4.51979224 23.53374959 -4.46674728 19.57863998 C-4.44817448 18.06756271 -4.43307723 16.5564387 -4.42146683 15.0452919 C-4.40465326 12.93321542 -4.37563158 10.82164095 -4.34365845 8.70974731 C-4.33033478 7.50617584 -4.31701111 6.30260437 -4.30328369 5.06256104 C-3.9775852 1.76192356 -3.44635222 0.40936113 0 0 Z " fill="#403B62" transform="translate(135.02481079101563,90.75949096679688)"/>
<path d="M0 0 C0 15.51 0 31.02 0 47 C-36.96 47 -73.92 47 -112 47 C-112 46.67 -112 46.34 -112 46 C-77.68 46 -43.36 46 -8 46 C-7.67 31.48 -7.34 16.96 -7 2 C-3 0 -3 0 0 0 Z " fill="#9EBADE" transform="translate(127,118)"/>
<path d="M0 0 C1.1127832 -0.01836914 1.1127832 -0.01836914 2.24804688 -0.03710938 C4.18763629 -0.04238478 6.1267371 0.06561098 8.0625 0.1875 C10.0625 2.1875 10.0625 2.1875 10.29296875 5.84765625 C10.28897733 7.31516864 10.27422158 8.78268209 10.25 10.25 C10.24935547 10.99572266 10.24871094 11.74144531 10.24804688 12.50976562 C10.20278159 18.04721841 10.20278159 18.04721841 9.0625 19.1875 C6.21914952 19.28736975 3.40552837 19.32627881 0.5625 19.3125 C-0.23542969 19.31636719 -1.03335938 19.32023437 -1.85546875 19.32421875 C-7.81089233 19.31410767 -7.81089233 19.31410767 -8.9375 18.1875 C-9.03736975 15.34414952 -9.07627881 12.53052837 -9.0625 9.6875 C-9.06636719 8.88957031 -9.07023438 8.09164062 -9.07421875 7.26953125 C-9.06056868 -0.77036132 -7.34895582 0.00635173 0 0 Z " fill="#4B3D6B" transform="translate(146.9375,98.8125)"/>
<path d="M0 0 C0.66 0.33 1.32 0.66 2 1 C2 1.66 2 2.32 2 3 C2.66 3 3.32 3 4 3 C4 26.43 4 49.86 4 74 C3.67 74 3.34 74 3 74 C2.67 71.36 2.34 68.72 2 66 C1.67 66 1.34 66 1 66 C0.67 68.31 0.34 70.62 0 73 C-0.33 73 -0.66 73 -1 73 C-1.17694298 63.92513518 -1.34289989 54.85015575 -1.49477577 45.77483654 C-1.56564186 41.56095101 -1.64031216 37.34720405 -1.72363281 33.13354492 C-1.80388001 29.06827321 -1.87419126 25.00294064 -1.93757248 20.93737221 C-1.963526 19.38515183 -1.99307899 17.83298738 -2.02626419 16.28090477 C-2.072082 14.10942642 -2.10517726 11.93810281 -2.13525391 9.76635742 C-2.16856308 7.91103645 -2.16856308 7.91103645 -2.20254517 6.01823425 C-2 3 -2 3 0 0 Z " fill="#433B67" transform="translate(184,90)"/>
<path d="M0 0 C0.99 0.33 1.98 0.66 3 1 C2.05125 1.556875 1.1025 2.11375 0.125 2.6875 C-3.28360945 5.20987099 -3.80895777 6.07397192 -5 10 C-5.28121242 12.26296407 -5.48704889 14.53630662 -5.625 16.8125 C-5.69976562 17.97394531 -5.77453125 19.13539062 -5.8515625 20.33203125 C-5.90054688 21.21246094 -5.94953125 22.09289062 -6 23 C-6.55488098 23.00364563 -7.10976196 23.00729126 -7.68145752 23.01104736 C-13.45684694 23.0528584 -19.2314406 23.12219341 -25.00634766 23.20751953 C-27.16154013 23.23574499 -29.31683643 23.25695165 -31.47216797 23.27099609 C-34.5705283 23.29240347 -37.66763827 23.3390432 -40.765625 23.390625 C-41.72929993 23.39185364 -42.69297485 23.39308228 -43.68585205 23.39434814 C-49.00653285 23.44510435 -49.00653285 23.44510435 -53.57714844 25.91308594 C-56.33288626 29.95496083 -56.17092736 33.35883545 -56.20532227 38.12158203 C-56.21522186 38.96068115 -56.22512146 39.79978027 -56.23532104 40.66430664 C-56.26697792 43.44544629 -56.29171 46.22660304 -56.31640625 49.0078125 C-56.33697216 50.93309988 -56.35796854 52.85838271 -56.37937927 54.78366089 C-56.43463741 59.85695718 -56.48403017 64.93029447 -56.53222656 70.00366211 C-56.58241429 75.17825988 -56.63811458 80.35279794 -56.69335938 85.52734375 C-56.8009867 95.68484485 -56.9024215 105.84239774 -57 116 C-57.66 116 -58.32 116 -59 116 C-59 85.97 -59 55.94 -59 25 C-59.99 25 -60.98 25 -62 25 C-61.51203942 19.90352283 -59.69361497 16.33295446 -56.9375 12.125 C-56.56044922 11.53203125 -56.18339844 10.9390625 -55.79492188 10.328125 C-54.87215204 8.87972678 -53.93729737 7.43903969 -53 6 C-52.67 6.66 -52.34 7.32 -52 8 C-52.77734375 10.1640625 -52.77734375 10.1640625 -53.9375 12.625 C-54.31777344 13.44226562 -54.69804688 14.25953125 -55.08984375 15.1015625 C-55.54037109 16.04128906 -55.54037109 16.04128906 -56 17 C-55.38640625 16.80792969 -54.7728125 16.61585937 -54.140625 16.41796875 C-52 16 -52 16 -49.75 17.3125 C-49.1725 17.869375 -48.595 18.42625 -48 19 C-48 19.66 -48 20.32 -48 21 C-34.47 21 -20.94 21 -7 21 C-7 16.71 -7 12.42 -7 8 C-5.01956782 3.97084488 -3.70384023 2.46922682 0 0 Z " fill="#EAC8A1" transform="translate(63,40)"/>
<path d="M0 0 C1.14825256 -0.00430527 1.14825256 -0.00430527 2.31970215 -0.00869751 C3.93693787 -0.0107375 5.5541983 -0.00521213 7.17138672 0.00732422 C9.64737091 0.02337992 12.12172285 0.00747453 14.59765625 -0.01171875 C16.16927444 -0.00973631 17.74089161 -0.0058926 19.3125 0 C20.05318726 -0.00607269 20.79387451 -0.01214539 21.55700684 -0.0184021 C26.64096305 0.05119139 26.64096305 0.05119139 29.12817383 1.72729492 C30.79480927 4.43641855 30.4365436 6.96188619 30.34375 10.0859375 C30.30314453 11.85517578 30.30314453 11.85517578 30.26171875 13.66015625 C30.22691406 14.56378906 30.19210938 15.46742187 30.15625 16.3984375 C28.17625 16.3984375 26.19625 16.3984375 24.15625 16.3984375 C23.49625 12.7684375 22.83625 9.1384375 22.15625 5.3984375 C18.38499047 5.31768888 14.61545007 5.2580557 10.84375 5.2109375 C9.2359668 5.17323242 9.2359668 5.17323242 7.59570312 5.13476562 C6.56767578 5.12509766 5.53964844 5.11542969 4.48046875 5.10546875 C3.53260498 5.0897583 2.58474121 5.07404785 1.6081543 5.05786133 C-0.89280658 5.1984425 -0.89280658 5.1984425 -2.64453125 6.7890625 C-4.12292768 8.77309941 -4.33039424 10.13549727 -4.53125 12.5859375 C-4.634375 13.8440625 -4.7375 15.1021875 -4.84375 16.3984375 C-6.82375 16.3984375 -8.80375 16.3984375 -10.84375 16.3984375 C-10.9247706 14.29490255 -10.98294907 12.19047798 -11.03125 10.0859375 C-11.06605469 8.91417969 -11.10085937 7.74242187 -11.13671875 6.53515625 C-10.84375 3.3984375 -10.84375 3.3984375 -9.81567383 1.72729492 C-6.7555486 -0.33488926 -3.56566595 -0.02923392 0 0 Z " fill="#E493AA" transform="translate(73.84375,46.6015625)"/>
<path d="M0 0 C15.51 0 31.02 0 47 0 C47.495 1.485 47.495 1.485 48 3 C45.525 2.505 45.525 2.505 43 2 C43.495 3.299375 43.495 3.299375 44 4.625 C44.99231979 7.9740793 45.24189771 10.53279943 45 14 C44.67 14.33 44.34 14.66 44 15 C44.020625 15.9075 44.04125 16.815 44.0625 17.75 C44 21 44 21 42 26 C37.05 26 32.1 26 27 26 C26.67 24.68 26.34 23.36 26 22 C28 20 28 20 31.2578125 19.8046875 C32.53398437 19.82789062 33.81015625 19.85109375 35.125 19.875 C37.04699219 19.90207031 37.04699219 19.90207031 39.0078125 19.9296875 C40.48894531 19.96449219 40.48894531 19.96449219 42 20 C42 18.02 42 16.04 42 14 C41.01257813 14.02320312 40.02515625 14.04640625 39.0078125 14.0703125 C37.72648437 14.08835937 36.44515625 14.10640625 35.125 14.125 C33.21074219 14.15980469 33.21074219 14.15980469 31.2578125 14.1953125 C28 14 28 14 26 12 C26.53571429 8.46428571 26.53571429 8.46428571 28 7 C30.35313555 6.92728259 32.70833668 6.91629132 35.0625 6.9375 C36.35285156 6.94652344 37.64320313 6.95554687 38.97265625 6.96484375 C39.97167969 6.97644531 40.97070312 6.98804687 42 7 C42 5.02 42 3.04 42 1 C28.14 1 14.28 1 0 1 C0 0.67 0 0.34 0 0 Z " fill="#B7B8CD" transform="translate(134,92)"/>
<path d="M0 0 C0.33 0 0.66 0 1 0 C1.33 20.46 1.66 40.92 2 62 C2.99 62 3.98 62 5 62 C5.27719381 63.57879955 5.52074143 65.16353067 5.75 66.75 C5.88921875 67.63171875 6.0284375 68.5134375 6.171875 69.421875 C6 72 6 72 4.34466553 74.13848877 C1.41513022 76.46434839 0.01540523 76.46058598 -3.68652344 76.36230469 C-5.39784454 76.33182037 -5.39784454 76.33182037 -7.14373779 76.30072021 C-8.36989807 76.25820129 -9.59605835 76.21568237 -10.859375 76.171875 C-12.11888977 76.14401917 -13.37840454 76.11616333 -14.67608643 76.08746338 C-18.01736222 76.00992311 -21.35719213 75.91479134 -24.69769287 75.81109619 C-28.10930058 75.70953428 -31.52143243 75.63113988 -34.93359375 75.55078125 C-41.62308414 75.38852937 -48.31163073 75.20305991 -55 75 C-53.34402163 72.97657106 -52.45079088 72.08170235 -49.8371582 71.60800171 C-49.00015381 71.59991486 -48.16314941 71.591828 -47.30078125 71.58349609 C-46.34969482 71.56692963 -45.3986084 71.55036316 -44.41870117 71.53329468 C-43.39365479 71.53004181 -42.3686084 71.52678894 -41.3125 71.5234375 C-39.73142456 71.50006821 -39.73142456 71.50006821 -38.1184082 71.47622681 C-34.74561316 71.42863342 -31.3730254 71.40092419 -28 71.375 C-24.62712137 71.33851569 -21.25436031 71.2978831 -17.8815918 71.25234985 C-15.78156385 71.22512236 -13.68145 71.20377148 -11.58129883 71.18881226 C-10.6302124 71.17855011 -9.67912598 71.16828796 -8.69921875 71.15771484 C-7.86221436 71.15121918 -7.02520996 71.14472351 -6.1628418 71.13803101 C-3.81669478 71.08065625 -3.81669478 71.08065625 -1 70 C-0.67 46.9 -0.34 23.8 0 0 Z " fill="#554F7A" transform="translate(182,94)"/>
<path d="M0 0 C1.31738914 -0.00021904 1.31738914 -0.00021904 2.66139221 -0.0004425 C5.56701113 0.00025467 8.4725661 0.008038 11.37817383 0.01586914 C13.39170802 0.01773401 15.40524266 0.01915759 17.41877747 0.02015686 C22.7206243 0.0239766 28.02244377 0.03380227 33.32427979 0.04486084 C38.73351674 0.05508662 44.14275812 0.05965699 49.55200195 0.06469727 C60.16724835 0.075425 70.78247444 0.09249493 81.39770508 0.11352539 C81.39770508 0.44352539 81.39770508 0.77352539 81.39770508 1.11352539 C84.03770508 1.44352539 86.67770508 1.77352539 89.39770508 2.11352539 C89.39770508 2.44352539 89.39770508 2.77352539 89.39770508 3.11352539 C55.07770508 3.11352539 20.75770508 3.11352539 -14.60229492 3.11352539 C-9.73566448 -0.1308949 -5.6561614 -0.02447753 0 0 Z " fill="#4C4172" transform="translate(37.602294921875,165.886474609375)"/>
<path d="M0 0 C0.82593155 -0.00287018 1.6518631 -0.00574036 2.50282288 -0.00869751 C4.24692471 -0.01073589 5.99104952 -0.0052218 7.73510742 0.00732422 C10.39749606 0.02336124 13.05836202 0.00747905 15.72070312 -0.01171875 C17.41797209 -0.00973588 19.1152401 -0.00589129 20.8125 0 C21.60534897 -0.00607269 22.39819794 -0.01214539 23.21507263 -0.0184021 C27.81088057 0.03973859 30.67032763 0.5349613 34.47265625 3.3984375 C34.14265625 5.3784375 33.81265625 7.3584375 33.47265625 9.3984375 C32.81265625 9.0684375 32.15265625 8.7384375 31.47265625 8.3984375 C31.47265625 7.7384375 31.47265625 7.0784375 31.47265625 6.3984375 C25.09410089 5.15224159 18.94740421 5.37720872 12.47729492 5.58544922 C10.41269397 5.64836017 8.34834544 5.68973035 6.28320312 5.73046875 C4.97287109 5.77042969 3.66253906 5.81039062 2.3125 5.8515625 C0.52380493 5.90038574 0.52380493 5.90038574 -1.30102539 5.95019531 C-4.74852402 6.42916675 -6.70941515 7.40540613 -9.52734375 9.3984375 C-9.19734375 8.0784375 -8.86734375 6.7584375 -8.52734375 5.3984375 C-9.51734375 5.7284375 -10.50734375 6.0584375 -11.52734375 6.3984375 C-12.30255754 8.2644981 -12.30255754 8.2644981 -12.65234375 10.5234375 C-12.80703125 11.32910156 -12.96171875 12.13476562 -13.12109375 12.96484375 C-13.64534511 16.10531104 -14.12413318 19.23995472 -14.52734375 22.3984375 C-14.85734375 22.3984375 -15.18734375 22.3984375 -15.52734375 22.3984375 C-16.09453643 8.23962757 -16.09453643 8.23962757 -12.52734375 3.3984375 C-8.89861612 -0.33875295 -4.90070592 -0.03744054 0 0 Z " fill="#4E3F5D" transform="translate(72.52734375,40.6015625)"/>
<path d="M0 0 C0.78439453 0.00064453 1.56878906 0.00128906 2.37695312 0.00195312 C3.19228516 0.01806641 4.00761719 0.03417969 4.84765625 0.05078125 C5.65912109 0.04755859 6.47058594 0.04433594 7.30664062 0.04101562 C11.46484547 0.07853839 14.22687631 0.28156249 17.91015625 2.36328125 C18.27712873 7.86786841 18.27712873 7.86786841 16.66992188 10.03759766 C14.48053353 11.68692878 13.28718791 11.74962383 10.56640625 11.76171875 C9.73238281 11.76558594 8.89835937 11.76945312 8.0390625 11.7734375 C6.73775391 11.75603516 6.73775391 11.75603516 5.41015625 11.73828125 C4.54261719 11.74988281 3.67507812 11.76148437 2.78125 11.7734375 C1.94722656 11.76957031 1.11320312 11.76570313 0.25390625 11.76171875 C-0.88788086 11.75664307 -0.88788086 11.75664307 -2.05273438 11.75146484 C-4.62199567 11.26187646 -5.51344029 10.41740136 -7.08984375 8.36328125 C-7.46484375 5.86328125 -7.46484375 5.86328125 -7.08984375 3.36328125 C-4.92361985 0.57217705 -3.49153132 -0.01459901 0 0 Z " fill="#FA8F9D" transform="translate(78.08984375,110.63671875)"/>
<path d="M0 0 C0.79622772 0.00141495 1.59245544 0.0028299 2.41281128 0.00428772 C4.9601413 0.0098928 7.50738397 0.02244611 10.0546875 0.03515625 C11.77994665 0.0401706 13.50520717 0.04473362 15.23046875 0.04882812 C19.46357541 0.05986388 23.69661664 0.07713189 27.9296875 0.09765625 C28.31187517 1.75380282 28.64363852 3.42222649 28.9296875 5.09765625 C27.9296875 6.09765625 27.9296875 6.09765625 24.41967773 6.21118164 C22.85920328 6.21102251 21.29872357 6.20532767 19.73828125 6.1953125 C18.91844254 6.19389755 18.09860382 6.1924826 17.25392151 6.19102478 C14.62497368 6.18540914 11.99610977 6.17285404 9.3671875 6.16015625 C7.58919393 6.15514326 5.81119904 6.15058001 4.03320312 6.14648438 C-0.33466795 6.13543464 -4.70247598 6.11815956 -9.0703125 6.09765625 C-9.4003125 4.44765625 -9.7303125 2.79765625 -10.0703125 1.09765625 C-6.89740537 -0.48879732 -3.48205866 -0.02312588 0 0 Z " fill="#4C456C" transform="translate(148.0703125,150.90234375)"/>
<path d="M0 0 C1.56047445 0.00015913 3.12095416 0.00585397 4.68139648 0.01586914 C5.91115456 0.01799156 5.91115456 0.01799156 7.16575623 0.02015686 C9.79470406 0.0257725 12.42356797 0.0383276 15.05249023 0.05102539 C16.8304838 0.05603838 18.60847869 0.06060163 20.38647461 0.06469727 C24.75434569 0.07574701 29.12215371 0.09302208 33.48999023 0.11352539 C33.87217791 1.76967196 34.20394125 3.43809563 34.48999023 5.11352539 C33.48999023 6.11352539 33.48999023 6.11352539 29.97998047 6.22705078 C28.41950602 6.22689165 26.85902631 6.22119681 25.29858398 6.21118164 C24.47874527 6.20976669 23.65890656 6.20835175 22.81422424 6.20689392 C20.18527641 6.20127828 17.5564125 6.18872318 14.92749023 6.17602539 C13.14949667 6.1710124 11.37150177 6.16644915 9.59350586 6.16235352 C5.22563478 6.15130378 0.85782676 6.1340287 -3.51000977 6.11352539 C-3.89219744 4.45737882 -4.22396078 2.78895515 -4.51000977 1.11352539 C-3.51000977 0.11352539 -3.51000977 0.11352539 0 0 Z " fill="#5B547B" transform="translate(142.510009765625,124.886474609375)"/>
<path d="M0 0 C9.9609375 -0.1953125 9.9609375 -0.1953125 13 0 C15 2 15 2 15.265625 3.953125 C15.26046875 4.71109375 15.2553125 5.4690625 15.25 6.25 C15.25515625 6.99765625 15.2603125 7.7453125 15.265625 8.515625 C15 11 15 11 13 17 C8.71 16.67 4.42 16.34 0 16 C0 10.72 0 5.44 0 0 Z " fill="#7DA9EA" transform="translate(140,69)"/>
<path d="M0 0 C2.475 0.495 2.475 0.495 5 1 C5 23.11 5 45.22 5 68 C4.67 68 4.34 68 4 68 C3.67 57.44 3.34 46.88 3 36 C1.02 36.495 1.02 36.495 -1 37 C-1 33.04 -1 29.08 -1 25 C-5.62 25 -10.24 25 -15 25 C-15 24.67 -15 24.34 -15 24 C-10.38 23.67 -5.76 23.34 -1 23 C-0.855625 21.370625 -0.71125 19.74125 -0.5625 18.0625 C-0.125 13.125 -0.125 13.125 1 12 C1.19223268 7.86699731 0.77287314 4.05758399 0 0 Z " fill="#DDEBF5" transform="translate(177,94)"/>
<path d="M0 0 C54.12 0 108.24 0 164 0 C163.67 0.66 163.34 1.32 163 2 C110.2 2 57.4 2 3 2 C5.97 4.31 8.94 6.62 12 9 C12 9.99 12 10.98 12 12 C12.66 12 13.32 12 14 12 C13.67 12.66 13.34 13.32 13 14 C8.15816248 10.08928508 3.75347544 5.99088493 0 1 C0 0.67 0 0.34 0 0 Z " fill="#EDCCAC" transform="translate(15,171)"/>
<path d="M0 0 C0.79622772 0.00141495 1.59245544 0.0028299 2.41281128 0.00428772 C4.9601413 0.0098928 7.50738397 0.02244611 10.0546875 0.03515625 C11.77994665 0.0401706 13.50520717 0.04473362 15.23046875 0.04882812 C19.46357541 0.05986388 23.69661664 0.07713189 27.9296875 0.09765625 C28.4921875 2.03515625 28.4921875 2.03515625 28.9296875 4.09765625 C27.9296875 5.09765625 27.9296875 5.09765625 24.41967773 5.21118164 C22.85920328 5.21102251 21.29872357 5.20532767 19.73828125 5.1953125 C18.91844254 5.19389755 18.09860382 5.1924826 17.25392151 5.19102478 C14.62497368 5.18540914 11.99610977 5.17285404 9.3671875 5.16015625 C7.58919393 5.15514326 5.81119904 5.15058001 4.03320312 5.14648438 C-0.33466795 5.13543464 -4.70247598 5.11815956 -9.0703125 5.09765625 C-9.4003125 3.77765625 -9.7303125 2.45765625 -10.0703125 1.09765625 C-6.89740537 -0.48879732 -3.48205866 -0.02312588 0 0 Z " fill="#4A4271" transform="translate(148.0703125,138.90234375)"/>
<path d="M0 0 C2.91015313 0.31461115 4.54357925 0.54014365 6.63995361 2.65229797 C8.39898973 5.68873312 8.40428647 7.81074219 8.44824219 11.31323242 C8.47126404 12.59103073 8.49428589 13.86882904 8.51800537 15.18534851 C8.52809277 16.5753853 8.53770476 17.96542561 8.546875 19.35546875 C8.56626648 20.7822679 8.58681094 22.2090518 8.60845947 23.63581848 C8.65076205 26.6207095 8.68344115 29.6054913 8.70849609 32.59057617 C8.74083522 36.42444557 8.79047749 40.25783542 8.84641647 44.0914259 C8.88861625 47.03464445 8.92511555 49.97790913 8.9595108 52.92122841 C8.97608427 54.33549498 8.993657 55.7497502 9.01222992 57.16399193 C9.03657906 59.13425317 9.05315921 61.10460588 9.06933594 63.07495117 C9.08027283 64.19761887 9.09120972 65.32028656 9.10247803 66.47697449 C9 69 9 69 8 70 C7.76924918 71.34747084 7.58846937 72.70377565 7.4375 74.0625 C7.2209375 76.0115625 7.2209375 76.0115625 7 78 C6.67 78 6.34 78 6 78 C5.99413376 77.09211227 5.98826752 76.18422455 5.98222351 75.24882507 C5.92435822 66.69950472 5.8523172 58.15044733 5.76428509 49.60138226 C5.71952682 45.20603449 5.68028294 40.81078059 5.65356445 36.4152832 C5.6275856 32.174634 5.58722224 27.93434495 5.53681374 23.69391823 C5.5201082 22.07482184 5.50861692 20.45566311 5.50238609 18.83649254 C5.49278469 16.57119217 5.46477514 14.30682086 5.43237305 12.04174805 C5.42126999 10.75157272 5.41016693 9.4613974 5.39872742 8.13212585 C5.2734113 5.03726812 5.2734113 5.03726812 3.59797668 3.18489075 C3.07064438 2.7938768 2.54331207 2.40286285 2 2 C1.34 1.34 0.68 0.68 0 0 Z " fill="#CDAB95" transform="translate(182,86)"/>
<path d="M0 0 C5.28 0 10.56 0 16 0 C16 0.99 16 1.98 16 3 C13.05792996 4.47103502 10.2604856 4 7 4 C4.68963085 4.42854995 4.68963085 4.42854995 3 5 C3.33 5.66 3.66 6.32 4 7 C4.33 6.67 4.66 6.34 5 6 C7.33297433 5.95907063 9.66705225 5.95758277 12 6 C12.33 8.64 12.66 11.28 13 14 C10.69 14.33 8.38 14.66 6 15 C6 15.66 6 16.32 6 17 C4.35 17 2.7 17 1 17 C-0.10561391 12.57754434 -0.07193736 8.53205342 0 4 C0 2.68 0 1.36 0 0 Z " fill="#5E517A" transform="translate(139,99)"/>
<path d="M0 0 C0.825 -0.02449219 1.65 -0.04898438 2.5 -0.07421875 C8.36239903 -0.10213494 11.86332433 0.89483071 16.625 4.375 C16.955 5.365 17.285 6.355 17.625 7.375 C17.295 8.035 16.965 8.695 16.625 9.375 C15.635 9.045 14.645 8.715 13.625 8.375 C13.625 7.385 13.625 6.395 13.625 5.375 C9.00992226 4.33285309 9.00992226 4.33285309 4.625 5.375 C1.74129667 5.44694869 -1.11739664 5.46791708 -4 5.4375 C-4.80179688 5.43298828 -5.60359375 5.42847656 -6.4296875 5.42382812 C-8.41149006 5.41203168 -10.39325433 5.39409605 -12.375 5.375 C-12.375 4.715 -12.375 4.055 -12.375 3.375 C-13.035 3.045 -13.695 2.715 -14.375 2.375 C-9.64054576 -0.04053788 -5.19194634 0.00803707 0 0 Z " fill="#4B4976" transform="translate(83.375,104.625)"/>
<path d="M0 0 C2.33699149 0.3066371 4.66972081 0.64594566 7 1 C9.6440627 1.21100402 12.290106 1.39850214 14.9375 1.5625 C15.96327148 1.62727539 15.96327148 1.62727539 17.00976562 1.69335938 C18.67302365 1.79803995 20.33649163 1.89937594 22 2 C22 2.33 22 2.66 22 3 C20.86820313 3.04898438 19.73640625 3.09796875 18.5703125 3.1484375 C17.08851661 3.22346514 15.606747 3.29901297 14.125 3.375 C13.37863281 3.4059375 12.63226563 3.436875 11.86328125 3.46875 C7.46526812 3.55643831 7.46526812 3.55643831 4 6 C3.28072705 8.31765729 2.6090107 10.65095874 2 13 C1.01 12.67 0.02 12.34 -1 12 C-2.69867188 11.85222064 -4.40177489 11.75252934 -6.10546875 11.68359375 C-7.08837891 11.64169922 -8.07128906 11.59980469 -9.08398438 11.55664062 C-10.10814453 11.51732422 -11.13230469 11.47800781 -12.1875 11.4375 C-13.22326172 11.39431641 -14.25902344 11.35113281 -15.32617188 11.30664062 C-17.8839819 11.20055634 -20.44188845 11.09849854 -23 11 C-23 10.67 -23 10.34 -23 10 C-16.73 9.67 -10.46 9.34 -4 9 C-3.67 8.34 -3.34 7.68 -3 7 C-8.61 7 -14.22 7 -20 7 C-20 6.67 -20 6.34 -20 6 C-14.06 6 -8.12 6 -2 6 C-1.67 4.35 -1.34 2.7 -1 1 C-0.67 0.67 -0.34 0.34 0 0 Z " fill="#3D3A65" transform="translate(68,108)"/>
<path d="M0 0 C7.41641337 -0.36474164 7.41641337 -0.36474164 9.75 1.09375 C11.62026304 3.94590113 11.28745794 6.3222495 11.1875 9.6875 C11.16042969 10.86699219 11.13335937 12.04648437 11.10546875 13.26171875 C11.07066406 14.16535156 11.03585938 15.06898437 11 16 C9.02 16 7.04 16 5 16 C4.34 12.37 3.68 8.74 3 5 C2.01 4.67 1.02 4.34 0 4 C0 2.68 0 1.36 0 0 Z " fill="#CA6A88" transform="translate(93,47)"/>
<path d="M0 0 C1.48762093 0.04390617 1.48762093 0.04390617 3.0052948 0.08869934 C6.16502926 0.18746973 9.32210713 0.32175871 12.48046875 0.45703125 C14.62557212 0.53034184 16.77075611 0.6013325 18.91601562 0.66992188 C24.16789851 0.8429077 29.41804842 1.04505058 34.66796875 1.26953125 C34.66796875 1.59953125 34.66796875 1.92953125 34.66796875 2.26953125 C13.87796875 2.76453125 13.87796875 2.76453125 -7.33203125 3.26953125 C-9.26598126 7.13743128 -9.56492478 8.41957715 -9.45703125 12.51953125 C-9.43898438 13.4115625 -9.4209375 14.30359375 -9.40234375 15.22265625 C-9.37914062 15.898125 -9.3559375 16.57359375 -9.33203125 17.26953125 C-9.99203125 16.60953125 -10.65203125 15.94953125 -11.33203125 15.26953125 C-11.99203125 15.92953125 -12.65203125 16.58953125 -13.33203125 17.26953125 C-15.04280091 15.55876159 -14.90088679 13.3562257 -15.20703125 11.01953125 C-15.34882813 10.065625 -15.490625 9.11171875 -15.63671875 8.12890625 C-15.33203125 5.26953125 -15.33203125 5.26953125 -13.45874023 2.60766602 C-8.97258726 -0.74705305 -5.44282745 -0.27074746 0 0 Z " fill="#504266" transform="translate(22.33203125,62.73046875)"/>
<path d="M0 0 C3.4375 0.8125 3.4375 0.8125 7 2 C7.33 2.99 7.66 3.98 8 5 C8.66 5.33 9.32 5.66 10 6 C10 5.34 10 4.68 10 4 C10.66 4 11.32 4 12 4 C12 4.66 12 5.32 12 6 C17.94 6 23.88 6 30 6 C30 6.33 30 6.66 30 7 C28.75863281 7.13277344 27.51726562 7.26554687 26.23828125 7.40234375 C24.59634139 7.58061151 22.95441501 7.75900346 21.3125 7.9375 C20.49587891 8.02451172 19.67925781 8.11152344 18.83789062 8.20117188 C14.84549781 8.63758728 10.92347148 9.11302376 7 10 C7 11.32 7 12.64 7 14 C4.49502996 15.25248502 2.79146726 15.11374406 -0.0078125 15.09765625 C-0.99394531 15.09443359 -1.98007813 15.09121094 -2.99609375 15.08789062 C-4.02863281 15.07951172 -5.06117187 15.07113281 -6.125 15.0625 C-7.68541016 15.05573242 -7.68541016 15.05573242 -9.27734375 15.04882812 C-11.85161962 15.03701952 -14.42578146 15.02055075 -17 15 C-16.67 14.34 -16.34 13.68 -16 13 C-15.15236084 13.01571045 -15.15236084 13.01571045 -14.28759766 13.03173828 C-11.73344347 13.07324788 -9.17936018 13.0993096 -6.625 13.125 C-5.29082031 13.15013672 -5.29082031 13.15013672 -3.9296875 13.17578125 C-3.07890625 13.18222656 -2.228125 13.18867187 -1.3515625 13.1953125 C-0.56604004 13.20578613 0.21948242 13.21625977 1.02880859 13.22705078 C3.234465 13.17990127 3.234465 13.17990127 5 11 C5.16681109 7.91652174 5.16681109 7.91652174 5 5 C2.69 4.01 0.38 3.02 -2 2 C-1.34 1.34 -0.68 0.68 0 0 Z " fill="#45406E" transform="translate(90,108)"/>
<path d="M0 0 C5.19603804 -0.12369707 10.39121744 -0.21438309 15.58837891 -0.2746582 C17.35578338 -0.29978641 19.1230841 -0.33389516 20.89013672 -0.37719727 C23.43222649 -0.43792735 25.97294165 -0.46622515 28.515625 -0.48828125 C29.69865204 -0.52699089 29.69865204 -0.52699089 30.90557861 -0.56648254 C33.14941406 -0.56762695 33.14941406 -0.56762695 37 0 C39.53027344 2.53051758 39.53027344 2.53051758 41 5 C40.34 5.66 39.68 6.32 39 7 C38.505 5.515 38.505 5.515 38 4 C33.36895437 3.08954273 28.89822573 2.86720952 24.1953125 2.90234375 C23.1093428 2.90446617 23.1093428 2.90446617 22.00143433 2.90663147 C19.70924593 2.91218925 17.41715843 2.92473367 15.125 2.9375 C13.56250142 2.94252047 12.00000129 2.94708241 10.4375 2.95117188 C6.62496165 2.96214481 2.81249788 2.9793799 -1 3 C-0.67 2.01 -0.34 1.02 0 0 Z " fill="#473F6D" transform="translate(66,43)"/>
<path d="M0 0 C5.61 0 11.22 0 17 0 C17 1.98 17 3.96 17 6 C11.39 6 5.78 6 0 6 C0 4.02 0 2.04 0 0 Z " fill="#E3C09F" transform="translate(75,57)"/>
<path d="M0 0 C0.495 0.99 0.495 0.99 1 2 C1.99 0.68 2.98 -0.64 4 -2 C6 1 6 1 5.8125 4 C4.95461717 7.16756738 4.26570534 7.82869905 2 10 C1.27802838 12.60611077 1.27802838 12.60611077 1 15 C0.67 15 0.34 15 0 15 C-0.33 10.38 -0.66 5.76 -1 1 C-12.55 0.67 -24.1 0.34 -36 0 C-36 -0.33 -36 -0.66 -36 -1 C-31.83790039 -1.19339049 -27.67549906 -1.37192224 -23.51220703 -1.53710938 C-22.09797369 -1.59526839 -20.68389696 -1.65738293 -19.27001953 -1.72363281 C-17.2297826 -1.81852755 -15.18939323 -1.8988663 -13.1484375 -1.9765625 C-11.31031494 -2.05511475 -11.31031494 -2.05511475 -9.43505859 -2.13525391 C-5.88396205 -1.99543106 -3.25667522 -1.40249202 0 0 Z " fill="#6A466A" transform="translate(104,47)"/>
<path d="M0 0 C0.79622772 0.00141495 1.59245544 0.0028299 2.41281128 0.00428772 C4.9601413 0.0098928 7.50738397 0.02244611 10.0546875 0.03515625 C11.77994665 0.0401706 13.50520717 0.04473362 15.23046875 0.04882812 C19.46357541 0.05986388 23.69661664 0.07713189 27.9296875 0.09765625 C28.4921875 2.03515625 28.4921875 2.03515625 28.9296875 4.09765625 C27.9296875 5.09765625 27.9296875 5.09765625 24.51147461 5.21118164 C22.99331762 5.21102253 21.47515521 5.20532851 19.95703125 5.1953125 C19.15938858 5.19389755 18.36174591 5.1924826 17.53993225 5.19102478 C14.98231315 5.18540941 12.42478032 5.17285437 9.8671875 5.16015625 C8.13737105 5.15514323 6.40755324 5.15057998 4.67773438 5.14648438 C0.42835197 5.135435 -3.82096562 5.11816011 -8.0703125 5.09765625 C-8.0703125 4.76765625 -8.0703125 4.43765625 -8.0703125 4.09765625 C3.4796875 4.09765625 15.0296875 4.09765625 26.9296875 4.09765625 C26.4346875 3.10765625 26.4346875 3.10765625 25.9296875 2.09765625 C21.28491606 2.07293586 16.64018293 2.05478657 11.99536133 2.04272461 C10.41527642 2.03769611 8.83519616 2.03087247 7.25512695 2.0222168 C4.98387504 2.01008633 2.71268465 2.00441312 0.44140625 2 C-0.26494461 1.99483871 -0.97129547 1.98967743 -1.6990509 1.98435974 C-4.77285641 1.98400822 -7.1293567 2.11733765 -10.0703125 3.09765625 C-10.0703125 2.43765625 -10.0703125 1.77765625 -10.0703125 1.09765625 C-6.89740537 -0.48879732 -3.48205866 -0.02312588 0 0 Z " fill="#352F54" transform="translate(148.0703125,138.90234375)"/>
<path d="M0 0 C1.39456452 0.00667256 2.78911118 0.01863093 4.18359375 0.03515625 C4.89451172 0.03966797 5.60542969 0.04417969 6.33789062 0.04882812 C8.09899388 0.06064761 9.86005411 0.07858362 11.62109375 0.09765625 C12.18359375 2.03515625 12.18359375 2.03515625 12.62109375 4.09765625 C11.62109375 5.09765625 11.62109375 5.09765625 8.2421875 5.1953125 C6.84762298 5.18863994 5.45307632 5.17668157 4.05859375 5.16015625 C3.34767578 5.15564453 2.63675781 5.15113281 1.90429688 5.14648438 C0.14319362 5.13466489 -1.61786661 5.11672888 -3.37890625 5.09765625 C-3.94140625 3.16015625 -3.94140625 3.16015625 -4.37890625 1.09765625 C-3.37890625 0.09765625 -3.37890625 0.09765625 0 0 Z " fill="#3D365F" transform="translate(164.37890625,112.90234375)"/>
<path d="M0 0 C1.39456452 0.00667256 2.78911118 0.01863093 4.18359375 0.03515625 C4.89451172 0.03966797 5.60542969 0.04417969 6.33789062 0.04882812 C8.09899388 0.06064761 9.86005411 0.07858362 11.62109375 0.09765625 C12.18359375 2.03515625 12.18359375 2.03515625 12.62109375 4.09765625 C11.62109375 5.09765625 11.62109375 5.09765625 8.2421875 5.1953125 C6.84762298 5.18863994 5.45307632 5.17668157 4.05859375 5.16015625 C3.34767578 5.15564453 2.63675781 5.15113281 1.90429688 5.14648438 C0.14319362 5.13466489 -1.61786661 5.11672888 -3.37890625 5.09765625 C-3.94140625 3.16015625 -3.94140625 3.16015625 -4.37890625 1.09765625 C-3.37890625 0.09765625 -3.37890625 0.09765625 0 0 Z " fill="#443D65" transform="translate(164.37890625,99.90234375)"/>
<path d="M0 0 C11.55 0 23.1 0 35 0 C35.495 1.98 35.495 1.98 36 4 C35 5 35 5 31.58178711 5.11352539 C30.06363012 5.11336628 28.54546771 5.10767226 27.02734375 5.09765625 C26.22970108 5.0962413 25.43205841 5.09482635 24.61024475 5.09336853 C22.05262565 5.08775316 19.49509282 5.07519812 16.9375 5.0625 C15.20768355 5.05748698 13.47786574 5.05292373 11.74804688 5.04882812 C7.49866447 5.03777875 3.24934688 5.02050386 -1 5 C-1 4.67 -1 4.34 -1 4 C10.22 3.67 21.44 3.34 33 3 C33.33 2.34 33.66 1.68 34 1 C22.78 1 11.56 1 0 1 C0 0.67 0 0.34 0 0 Z " fill="#342D53" transform="translate(141,126)"/>
<path d="M0 0 C2.64590014 -0.02684679 5.29153096 -0.04676357 7.9375 -0.0625 C8.69224609 -0.07087891 9.44699219 -0.07925781 10.22460938 -0.08789062 C12.14994313 -0.09652441 14.07535581 -0.05224333 16 0 C17.82116003 1.82116003 17.1323508 4.30671764 17.13671875 6.7265625 C17.13285156 7.47679688 17.12898438 8.22703125 17.125 9 C17.13080078 10.12535156 17.13080078 10.12535156 17.13671875 11.2734375 C17.12661053 16.87338947 17.12661053 16.87338947 16 18 C13.30345146 18.07319621 10.63308542 18.09242537 7.9375 18.0625 C7.17888672 18.05798828 6.42027344 18.05347656 5.63867188 18.04882812 C3.75908129 18.0370068 1.87953101 18.01907078 0 18 C0 17.67 0 17.34 0 17 C4.62 16.67 9.24 16.34 14 16 C14 11.38 14 6.76 14 2 C7.07 1.505 7.07 1.505 0 1 C0 0.67 0 0.34 0 0 Z " fill="#3E3759" transform="translate(140,100)"/>
<path d="M0 0 C0.33 0.99 0.66 1.98 1 3 C1.99 3.33 2.98 3.66 4 4 C2.68 4 1.36 4 0 4 C0 3.34 0 2.68 0 2 C-2.73144666 2.06023036 -5.45759197 2.14732153 -8.1875 2.25 C-9.34088867 2.27126953 -9.34088867 2.27126953 -10.51757812 2.29296875 C-15.57742529 2.51012957 -18.27346656 3.26599856 -22 7 C-22.125 4.625 -22.125 4.625 -22 2 C-19.21066566 -0.78933434 -16.43432082 -0.49105086 -12.6875 -0.6875 C-11.37136719 -0.77386719 -10.05523437 -0.86023437 -8.69921875 -0.94921875 C-5.56128978 -0.99229486 -3.01949877 -0.77677628 0 0 Z " fill="#4C4273" transform="translate(93,53)"/>
<path d="M0 0 C1.36608398 0.01450195 1.36608398 0.01450195 2.75976562 0.02929688 C9.42689732 0.14229911 9.42689732 0.14229911 12.9375 1.3125 C13.625 3.375 13.625 3.375 13.9375 5.3125 C12.9475 5.3125 11.9575 5.3125 10.9375 5.3125 C10.2775 4.3225 9.6175 3.3325 8.9375 2.3125 C6.90189673 1.98969281 6.90189673 1.98969281 4.5859375 2.23828125 C3.30976562 2.32045898 3.30976562 2.32045898 2.0078125 2.40429688 C0.67363281 2.51354492 0.67363281 2.51354492 -0.6875 2.625 C-1.5846875 2.68623047 -2.481875 2.74746094 -3.40625 2.81054688 C-5.62636306 2.96406533 -7.84444979 3.13193161 -10.0625 3.3125 C-11.0525 5.6225 -12.0425 7.9325 -13.0625 10.3125 C-13.3925 10.3125 -13.7225 10.3125 -14.0625 10.3125 C-14.36382296 6.99794741 -14.48796408 4.98245612 -12.67578125 2.12890625 C-8.64300343 -0.6741456 -4.78569687 -0.15306067 0 0 Z " fill="#5E3B62" transform="translate(83.0625,50.6875)"/>
<path d="M0 0 C0 3 0 3 -1.875 5.1875 C-4 7 -4 7 -6 7 C-6.185625 7.556875 -6.37125 8.11375 -6.5625 8.6875 C-9.98018237 14.18551077 -16.16334365 16.73680672 -22 19 C-22.66 18.34 -23.32 17.68 -24 17 C-23.02160156 16.443125 -22.04320312 15.88625 -21.03515625 15.3125 C-13.32155146 10.84807534 -6.36395911 6.3294661 0 0 Z " fill="#FCF5E3" transform="translate(169,182)"/>
<path d="M0 0 C2.91691525 -0.05401695 5.83282724 -0.09368066 8.75 -0.125 C9.575 -0.14175781 10.4 -0.15851563 11.25 -0.17578125 C12.04921875 -0.18222656 12.8484375 -0.18867187 13.671875 -0.1953125 C14.4050293 -0.20578613 15.13818359 -0.21625977 15.89355469 -0.22705078 C18.29896076 0.03222456 19.91251494 0.80774075 22 2 C22.36666667 7.5 22.36666667 7.5 20.625 9.875 C19 11 19 11 17 11 C17 7.7 17 4.4 17 1 C11.39 1 5.78 1 0 1 C0 0.67 0 0.34 0 0 Z " fill="#CA6F8A" transform="translate(74,111)"/>
<path d="M0 0 C3.3956697 -0.08745946 6.79104773 -0.14054444 10.1875 -0.1875 C11.14720703 -0.21263672 12.10691406 -0.23777344 13.09570312 -0.26367188 C22.12606235 -0.35741263 22.12606235 -0.35741263 26 3 C26.8125 5.1875 26.8125 5.1875 27 7 C26.34 7 25.68 7 25 7 C24.51015625 6.35546875 24.0203125 5.7109375 23.515625 5.046875 C19.6218914 1.87868182 15.6296722 2.32517702 10.75 2.25 C9.81414062 2.22035156 8.87828125 2.19070312 7.9140625 2.16015625 C5.60928908 2.08960196 3.30551832 2.03683748 1 2 C0.67 1.34 0.34 0.68 0 0 Z " fill="#60485E" transform="translate(161,86)"/>
<path d="M0 0 C0.57105469 0.64453125 1.14210938 1.2890625 1.73046875 1.953125 C6.69779926 5.06289942 11.56219277 4.67606268 17.3125 4.75 C18.99569336 4.79447266 18.99569336 4.79447266 20.71289062 4.83984375 C23.47533207 4.91037417 26.23693774 4.96315493 29 5 C25.58178304 8.41821696 20.82235704 7.36908442 16.1875 7.375 C14.68993164 7.41173828 14.68993164 7.41173828 13.16210938 7.44921875 C8.63135861 7.46732968 5.78854996 7.45252562 1.80078125 5.1640625 C0 3 0 3 0 0 Z " fill="#434069" transform="translate(67,121)"/>
<path d="M0 0 C1.57043101 0.01330874 3.14079971 0.03717648 4.7109375 0.0703125 C5.51273438 0.07933594 6.31453125 0.08835937 7.140625 0.09765625 C9.12252273 0.12125027 11.10426731 0.15712185 13.0859375 0.1953125 C13.0859375 0.5253125 13.0859375 0.8553125 13.0859375 1.1953125 C7.8059375 1.1953125 2.5259375 1.1953125 -2.9140625 1.1953125 C-2.9140625 3.5053125 -2.9140625 5.8153125 -2.9140625 8.1953125 C2.6959375 8.5253125 8.3059375 8.8553125 14.0859375 9.1953125 C14.0859375 9.5253125 14.0859375 9.8553125 14.0859375 10.1953125 C11.31452033 10.27620792 8.54545931 10.33575312 5.7734375 10.3828125 C4.98775391 10.40794922 4.20207031 10.43308594 3.39257812 10.45898438 C2.63525391 10.46865234 1.87792969 10.47832031 1.09765625 10.48828125 C0.40115967 10.5039917 -0.29533691 10.51970215 -1.01293945 10.53588867 C-3.50975273 10.08859774 -4.38107322 9.17902481 -5.9140625 7.1953125 C-6.2265625 4.6328125 -6.2265625 4.6328125 -5.9140625 2.1953125 C-3.9140625 0.1953125 -3.9140625 0.1953125 0 0 Z " fill="#E596AC" transform="translate(76.9140625,111.8046875)"/>
<path d="M0 0 C0.99 0.33 1.98 0.66 3 1 C2.67 1.99 2.34 2.98 2 4 C2.99 4.33 3.98 4.66 5 5 C2.525 6.485 2.525 6.485 0 8 C0.33 6.68 0.66 5.36 1 4 C0.01 4.33 -0.98 4.66 -2 5 C-2.77521379 6.8660606 -2.77521379 6.8660606 -3.125 9.125 C-3.2796875 9.93066406 -3.434375 10.73632812 -3.59375 11.56640625 C-4.11800136 14.70687354 -4.59678943 17.84151722 -5 21 C-5.33 21 -5.66 21 -6 21 C-6.56540084 6.88591967 -6.56540084 6.88591967 -3 2 C-2.01 1.34 -1.02 0.68 0 0 Z " fill="#59445A" transform="translate(63,42)"/>
<path d="M0 0 C0.33 0 0.66 0 1 0 C1 6.27 1 12.54 1 19 C-2.8726592 19.9681648 -6.03611362 20.07622858 -10 20 C-8.80702902 17.61405803 -7.85642735 17.16265153 -5.5625 15.875 C-4.94503906 15.52179688 -4.32757813 15.16859375 -3.69140625 14.8046875 C-2 14 -2 14 0 14 C0 9.38 0 4.76 0 0 Z " fill="#8AABE2" transform="translate(126,93)"/>
<path d="M0 0 C2.31 0 4.62 0 7 0 C7 2.31 7 4.62 7 7 C4.69 7 2.38 7 0 7 C0 4.69 0 2.38 0 0 Z " fill="#E091A6" transform="translate(144,105)"/>
<path d="M0 0 C1.32 0.33 2.64 0.66 4 1 C4.05418326 3.08304538 4.09287551 5.16649768 4.125 7.25 C4.14820313 8.41015625 4.17140625 9.5703125 4.1953125 10.765625 C4.0103949 13.82786046 3.60823023 15.44202751 2 18 C1.34 18 0.68 18 0 18 C-0.042721 16.33388095 -0.04063832 14.66617115 0 13 C0.33 12.67 0.66 12.34 1 12 C1.19223268 7.86699731 0.77287314 4.05758399 0 0 Z " fill="#D1E3F1" transform="translate(177,94)"/>
<path d="M0 0 C0.66 0.33 1.32 0.66 2 1 C-7.69157392 7.00281883 -15.6757737 8.38100201 -27 8 C-27 7.67 -27 7.34 -27 7 C-25.081875 6.61908203 -25.081875 6.61908203 -23.125 6.23046875 C-21.4165968 5.88315601 -19.70826734 5.53548038 -18 5.1875 C-17.16082031 5.02185547 -16.32164063 4.85621094 -15.45703125 4.68554688 C-11.3169129 3.83505745 -7.43329273 2.86289592 -3.5 1.30078125 C-2.345 0.87152344 -1.19 0.44226563 0 0 Z " fill="#FCF1DB" transform="translate(136,203)"/>
<path d="M0 0 C1.99954746 -0.04254356 4.00041636 -0.04080783 6 0 C7 1 7 1 7.09765625 3.50390625 C7.08605469 4.51324219 7.07445313 5.52257813 7.0625 6.5625 C7.05347656 7.57441406 7.04445313 8.58632813 7.03515625 9.62890625 C7.02355469 10.41136719 7.01195313 11.19382812 7 12 C6.01 12 5.02 12 4 12 C3.896875 10.948125 3.79375 9.89625 3.6875 8.8125 C3.02266585 5.12569246 2.11433704 3.03361401 0 0 Z " fill="#E6677D" transform="translate(96,49)"/>
<path d="M0 0 C0.33 0 0.66 0 1 0 C1.33 4.62 1.66 9.24 2 14 C1.34 13.67 0.68 13.34 0 13 C-0.33 15.31 -0.66 17.62 -1 20 C-1.66 20 -2.32 20 -3 20 C-3 16.04 -3 12.08 -3 8 C-2.34 7.67 -1.68 7.34 -1 7 C-0.59270772 4.67843403 -0.25561323 2.3431213 0 0 Z " fill="#4C426C" transform="translate(11,71)"/>
<path d="M0 0 C0.82757813 0.15339844 1.65515625 0.30679688 2.5078125 0.46484375 C6.29200145 1.04474743 10.05757751 1.33685778 13.875 1.5625 C14.56335938 1.60568359 15.25171875 1.64886719 15.9609375 1.69335938 C17.640455 1.79832922 19.32020586 1.89955429 21 2 C21 2.33 21 2.66 21 3 C19.86820313 3.04898438 18.73640625 3.09796875 17.5703125 3.1484375 C16.08851661 3.22346514 14.606747 3.29901297 13.125 3.375 C12.37863281 3.4059375 11.63226563 3.436875 10.86328125 3.46875 C6.46526812 3.55643831 6.46526812 3.55643831 3 6 C2.60235737 7.98821313 2.26224651 9.98944339 2 12 C1.34 11.67 0.68 11.34 0 11 C0.875 5.25 0.875 5.25 2 3 C1.34 3 0.68 3 0 3 C0 2.01 0 1.02 0 0 Z " fill="#4A335D" transform="translate(69,108)"/>
<path d="M0 0 C0.99 0.66 1.98 1.32 3 2 C3.29296875 4.3828125 3.29296875 4.3828125 3.1875 7.125 C3.16042969 8.03507812 3.13335938 8.94515625 3.10546875 9.8828125 C3.07066406 10.58148438 3.03585938 11.28015625 3 12 C2.34 11.34 1.68 10.68 1 10 C0.34 10.66 -0.32 11.32 -1 12 C-2 11 -2 11 -2.09765625 8.71484375 C-2.08605469 7.79832031 -2.07445312 6.88179688 -2.0625 5.9375 C-2.05347656 5.01839844 -2.04445313 4.09929687 -2.03515625 3.15234375 C-2.02355469 2.44207031 -2.01195312 1.73179688 -2 1 C-1.34 0.67 -0.68 0.34 0 0 Z " fill="#504C78" transform="translate(10,68)"/>
<path d="M0 0 C2.31 0.33 4.62 0.66 7 1 C6.195625 1.86625 5.39125 2.7325 4.5625 3.625 C2.03075864 6.62876093 1.28342624 9.03203262 1 13 C0.34 13 -0.32 13 -1 13 C-1.02696365 11.20841511 -1.04637917 9.41671527 -1.0625 7.625 C-1.07410156 6.62726562 -1.08570312 5.62953125 -1.09765625 4.6015625 C-1 2 -1 2 0 0 Z " fill="#F68F9A" transform="translate(66,48)"/>
<path d="M0 0 C7.63054095 0.61044328 14.70189474 2.79621821 22 5 C21.67 5.66 21.34 6.32 21 7 C13.51379318 5.91834274 6.90823655 4.08697772 0 1 C0 0.67 0 0.34 0 0 Z " fill="#E6C79C" transform="translate(56,202)"/>
<path d="M0 0 C3.4374823 -0.02901394 6.87493312 -0.04680335 10.3125 -0.0625 C11.28896484 -0.07087891 12.26542969 -0.07925781 13.27148438 -0.08789062 C14.20927734 -0.09111328 15.14707031 -0.09433594 16.11328125 -0.09765625 C16.97735596 -0.10289307 17.84143066 -0.10812988 18.73168945 -0.11352539 C21 0 21 0 24 1 C24.99 1 25.98 1 27 1 C26.34 2.32 25.68 3.64 25 5 C22.5625 4.625 22.5625 4.625 20 4 C19.67 3.34 19.34 2.68 19 2 C12.73 1.67 6.46 1.34 0 1 C0 0.67 0 0.34 0 0 Z " fill="#635F84" transform="translate(46,119)"/>
<path d="M0 0 C0.66 0.33 1.32 0.66 2 1 C0.625 2.5 0.625 2.5 -1 4 C-1.66 4 -2.32 4 -3 4 C-3.3403125 4.86625 -3.3403125 4.86625 -3.6875 5.75 C-5.33038023 8.5663661 -7.39533227 10.08077114 -10 12 C-10.99 11.34 -11.98 10.68 -13 10 C-8.71 6.7 -4.42 3.4 0 0 Z " fill="#E7C89C" transform="translate(39,17)"/>
<path d="M0 0 C0.33 0.66 0.66 1.32 1 2 C1.66 2 2.32 2 3 2 C3.33 4.64 3.66 7.28 4 10 C2.68 9.67 1.36 9.34 0 9 C0 6.69 0 4.38 0 2 C-4.62 2 -9.24 2 -14 2 C-14 1.67 -14 1.34 -14 1 C-9.38 0.67 -4.76 0.34 0 0 Z " fill="#C4C9DC" transform="translate(176,117)"/>
<path d="M0 0 C0.33 0 0.66 0 1 0 C1 2.31 1 4.62 1 7 C-1.50497004 8.25248502 -3.20853274 8.11374406 -6.0078125 8.09765625 C-6.99394531 8.09443359 -7.98007813 8.09121094 -8.99609375 8.08789062 C-10.02863281 8.07951172 -11.06117187 8.07113281 -12.125 8.0625 C-13.68541016 8.05573242 -13.68541016 8.05573242 -15.27734375 8.04882812 C-17.85161962 8.03701952 -20.42578146 8.02055075 -23 8 C-22.67 7.34 -22.34 6.68 -22 6 C-21.15236084 6.01571045 -21.15236084 6.01571045 -20.28759766 6.03173828 C-17.73344347 6.07324788 -15.17936018 6.0993096 -12.625 6.125 C-11.29082031 6.15013672 -11.29082031 6.15013672 -9.9296875 6.17578125 C-8.65351562 6.18544922 -8.65351562 6.18544922 -7.3515625 6.1953125 C-6.56604004 6.20578613 -5.78051758 6.21625977 -4.97119141 6.22705078 C-2.765535 6.17990127 -2.765535 6.17990127 -1 4 C-0.3574765 1.93125966 -0.3574765 1.93125966 0 0 Z " fill="#683F66" transform="translate(96,115)"/>
<path d="M0 0 C1 3 1 3 -0.125 5.5 C-2.18351769 8.24469026 -3.89687743 9.56778959 -7 11 C-7.66 10.67 -8.32 10.34 -9 10 C-7.88200014 8.66079162 -6.75538103 7.32877444 -5.625 6 C-4.99851563 5.2575 -4.37203125 4.515 -3.7265625 3.75 C-3.15679687 3.1725 -2.58703125 2.595 -2 2 C-1.34 2 -0.68 2 0 2 C0 1.34 0 0.68 0 0 Z " fill="#FCF2E2" transform="translate(179,171)"/>
<path d="M0 0 C2.31 0.66 4.62 1.32 7 2 C6.67 2.99 6.34 3.98 6 5 C3.875 5.75 3.875 5.75 1 6 C-2.3125 4.0625 -2.3125 4.0625 -5 2 C-2 2 -2 2 0 3 C0 2.01 0 1.02 0 0 Z " fill="#45406A" transform="translate(31,109)"/>
<path d="M0 0 C0.928125 0.20625 1.85625 0.4125 2.8125 0.625 C-1.37211538 5.54807692 -1.37211538 5.54807692 -5.5 5.9375 C-6.386875 5.834375 -7.27375 5.73125 -8.1875 5.625 C-6.37307853 1.43787353 -4.89236161 -0.57557195 0 0 Z " fill="#594964" transform="translate(15.1875,63.375)"/>
<path d="M0 0 C-1.12372188 3.37116564 -1.47162599 3.55882121 -4.4375 5.125 C-5.05496094 5.45757813 -5.67242187 5.79015625 -6.30859375 6.1328125 C-7.53564293 6.76192316 -8.76665336 7.38332668 -10 8 C-10.66 7.34 -11.32 6.68 -12 6 C-10.37829621 4.99466333 -8.75252763 3.99588093 -7.125 3 C-5.76761719 2.1646875 -5.76761719 2.1646875 -4.3828125 1.3125 C-2 0 -2 0 0 0 Z " fill="#E8CAA3" transform="translate(53,10)"/>
<path d="M0 0 C2.95012857 1.36970255 5.5652222 2.82609125 8 5 C8 5.99 8 6.98 8 8 C8.66 8 9.32 8 10 8 C9.67 8.66 9.34 9.32 9 10 C7.86800647 9.0919838 6.74467637 8.17316174 5.625 7.25 C4.99851562 6.73953125 4.37203125 6.2290625 3.7265625 5.703125 C1.91687682 3.91800519 0.99882545 2.32050356 0 0 Z " fill="#E6C79F" transform="translate(19,175)"/>
<path d="M0 0 C0.33 0.66 0.66 1.32 1 2 C0.67 2.99 0.34 3.98 0 5 C-1.65 5.33 -3.3 5.66 -5 6 C-5.33 4.68 -5.66 3.36 -6 2 C-4.02 1.34 -2.04 0.68 0 0 Z " fill="#433F6C" transform="translate(126,113)"/>
<path d="M0 0 C0.99 0.495 0.99 0.495 2 1 C1.979375 2.19625 1.95875 3.3925 1.9375 4.625 C1.93117429 8.18004869 2.30111125 11.50555624 3 15 C2.01 15 1.02 15 0 15 C0 10.05 0 5.1 0 0 Z " fill="#484262" transform="translate(138,102)"/>
<path d="M0 0 C0 1.65 0 3.3 0 5 C-3.15133488 3.16172132 -6.11964908 1.24027294 -9 -1 C-5.79937313 -2.60031344 -3.27728194 -1.03173691 0 0 Z " fill="#543C68" transform="translate(97,110)"/>
<path d="M0 0 C1.9375 0.375 1.9375 0.375 4 1 C4.33 1.66 4.66 2.32 5 3 C4.67 3.66 4.34 4.32 4 5 C4.99 5.33 5.98 5.66 7 6 C5.02 6.33 3.04 6.66 1 7 C1 5.68 1 4.36 1 3 C0.67 2.01 0.34 1.02 0 0 Z " fill="#44416D" transform="translate(22,102)"/>
<path d="M0 0 C1.08667969 0.01804688 2.17335938 0.03609375 3.29296875 0.0546875 C4.54013672 0.08949219 4.54013672 0.08949219 5.8125 0.125 C5.8125 0.455 5.8125 0.785 5.8125 1.125 C4.06465171 1.48963732 2.31409498 1.8413078 0.5625 2.1875 C-0.89929688 2.48333984 -0.89929688 2.48333984 -2.390625 2.78515625 C-5.055619 3.10897535 -6.67621723 2.98003199 -9.1875 2.125 C-5.66070901 -0.22619399 -4.15870515 -0.08943452 0 0 Z " fill="#FDF9EB" transform="translate(79.1875,-0.125)"/>
<path d="M0 0 C0.33 0 0.66 0 1 0 C1.33 4.62 1.66 9.24 2 14 C1.01 13.34 0.02 12.68 -1 12 C-0.67 8.04 -0.34 4.08 0 0 Z " fill="#3E3868" transform="translate(11,71)"/>
<path d="M0 0 C0.33 0.66 0.66 1.32 1 2 C-0.4726862 5.27263601 -1.42695432 6.72014048 -4.6875 8.3125 C-5.450625 8.539375 -6.21375 8.76625 -7 9 C-6.02180976 7.68677212 -5.0424189 6.37443848 -4.0625 5.0625 C-3.51722656 4.33160156 -2.97195312 3.60070312 -2.41015625 2.84765625 C-1 1 -1 1 0 0 Z " fill="#E7C99F" transform="translate(25,28)"/>
<path d="M0 0 C4.62 1.65 9.24 3.3 14 5 C14 5.33 14 5.66 14 6 C8.58609132 5.53328373 4.79482068 4.75702189 0 2 C0 1.34 0 0.68 0 0 Z " fill="#E6C9A1" transform="translate(132,6)"/>
<path d="M0 0 C0.33 0 0.66 0 1 0 C1.25 2.25 1.25 2.25 1 5 C-1 7.3125 -1 7.3125 -3 9 C-3.66 8.67 -4.32 8.34 -5 8 C-4.19185349 6.66402348 -3.37836819 5.331275 -2.5625 4 C-2.11003906 3.2575 -1.65757812 2.515 -1.19140625 1.75 C-0.79824219 1.1725 -0.40507812 0.595 0 0 Z " fill="#FCF3E3" transform="translate(194,148)"/>
<path d="M0 0 C2 3.75 2 3.75 2 6 C1.01 6.495 1.01 6.495 0 7 C-0.66 7.99 -1.32 8.98 -2 10 C-3.01136941 7.26930259 -3.04557718 6.13998707 -2.125 3.3125 C-1 1 -1 1 0 0 Z " fill="#CCDBEC" transform="translate(179,133)"/>
<path d="M0 0 C2.125 0.9375 2.125 0.9375 4 2 C3.34 2 2.68 2 2 2 C2 2.66 2 3.32 2 4 C0.02 4.66 -1.96 5.32 -4 6 C-2.25 1.125 -2.25 1.125 0 0 Z " fill="#4C4E7C" transform="translate(131,87)"/>
<path d="M0 0 C0.33 0.66 0.66 1.32 1 2 C-0.73397418 5.65047197 -2.19333016 7.55609075 -6 9 C-4.3619751 5.48994665 -2.96865509 2.54456151 0 0 Z " fill="#E7CAA0" transform="translate(17,37)"/>
<path d="M0 0 C-1.70828921 2.10633718 -2.52148416 2.93801608 -5.26171875 3.29296875 C-6.06222656 3.25816406 -6.86273438 3.22335938 -7.6875 3.1875 C-8.49574219 3.16042969 -9.30398437 3.13335938 -10.13671875 3.10546875 C-10.75160156 3.07066406 -11.36648437 3.03585938 -12 3 C-3.6319797 -1.2106599 -3.6319797 -1.2106599 0 0 Z " fill="#E8CDA4" transform="translate(72,4)"/>
<path d="M0 0 C0.99 0.33 1.98 0.66 3 1 C3 1.99 3 2.98 3 4 C3.99 4 4.98 4 6 4 C6 5.65 6 7.3 6 9 C5.34 9 4.68 9 4 9 C2.68 6.03 1.36 3.06 0 0 Z " fill="#FEF8EC" transform="translate(189,53)"/>
<path d="M0 0 C2.31 0.66 4.62 1.32 7 2 C7 2.66 7 3.32 7 4 C7.66 4.33 8.32 4.66 9 5 C8.01 5.495 8.01 5.495 7 6 C1.125 2.25 1.125 2.25 0 0 Z " fill="#E8CBA2" transform="translate(31,187)"/>
<path d="M0 0 C0.99 0.66 1.98 1.32 3 2 C1.02 4.97 -0.96 7.94 -3 11 C-4 8 -4 8 -3 5 C-2.34 5 -1.68 5 -1 5 C-0.67 3.35 -0.34 1.7 0 0 Z " fill="#FDF8EA" transform="translate(9,43)"/>
<path d="M0 0 C0.33 0.99 0.66 1.98 1 3 C1.66 3 2.32 3 3 3 C2.67 4.32 2.34 5.64 2 7 C1.34 7 0.68 7 0 7 C-0.66 5.35 -1.32 3.7 -2 2 C-1.34 1.34 -0.68 0.68 0 0 Z " fill="#4C4D79" transform="translate(68,108)"/>
<path d="M0 0 C4.29 0 8.58 0 13 0 C13 0.33 13 0.66 13 1 C12.24074219 1.06058594 11.48148438 1.12117188 10.69921875 1.18359375 C9.70535156 1.26738281 8.71148437 1.35117187 7.6875 1.4375 C6.70136719 1.51871094 5.71523437 1.59992187 4.69921875 1.68359375 C1.90624401 1.91812559 1.90624401 1.91812559 -1 3 C-0.67 2.01 -0.34 1.02 0 0 Z " fill="#ECC394" transform="translate(77,58)"/>
<path d="M0 0 C1.65 0 3.3 0 5 0 C5.33 0.99 5.66 1.98 6 3 C6.99 3 7.98 3 9 3 C9 3.66 9 4.32 9 5 C5.54074837 3.7508258 2.85306797 2.32472205 0 0 Z " fill="#E6C89C" transform="translate(46,197)"/>
<path d="M0 0 C2.00720923 0.28674418 4.0085944 0.61866701 6 1 C5.67 1.99 5.34 2.98 5 4 C3.35 4.33 1.7 4.66 0 5 C-0.5625 3.0625 -0.5625 3.0625 -1 1 C-0.67 0.67 -0.34 0.34 0 0 Z " fill="#5C5578" transform="translate(161,113)"/>
<path d="M0 0 C-2.31 1.65 -4.62 3.3 -7 5 C-7 3.68 -7 2.36 -7 1 C-3.375 -1.125 -3.375 -1.125 0 0 Z " fill="#FDF8EB" transform="translate(35,21)"/>
</svg>
