<?xml version="1.0" encoding="UTF-8"?>
<svg version="1.1" xmlns="http://www.w3.org/2000/svg" width="191" height="211">
<path d="M0 0 C63.03 0 126.06 0 191 0 C191 69.63 191 139.26 191 211 C127.97 211 64.94 211 0 211 C0 141.37 0 71.74 0 0 Z " fill="#D4D4D4" transform="translate(0,0)"/>
<path d="M0 0 C1.4647879 -0.0010952 1.4647879 -0.0010952 2.95916748 -0.00221252 C6.16281134 0.00125006 9.36497188 0.04004919 12.56835938 0.0793457 C14.79894212 0.08867853 17.02953515 0.09579242 19.26013184 0.1007843 C25.11292127 0.11981688 30.96508403 0.16888617 36.81762695 0.2243042 C43.84939627 0.28460175 50.88137587 0.30743065 57.91333008 0.33657074 C68.58002484 0.38495258 79.24534631 0.48079549 89.91210938 0.56762695 C89.91210938 32.24762695 89.91210938 63.92762695 89.91210938 96.56762695 C86.94623284 95.08468869 84.62679645 93.71131907 81.97460938 91.81762695 C75.73033623 87.59600043 67.52997745 82.48380708 59.91210938 81.56762695 C57.64066864 83.42194783 57.64066864 83.42194783 55.91210938 85.56762695 C56.24210938 83.58762695 56.57210937 81.60762695 56.91210938 79.56762695 C47.62464277 77.62025492 38.27535182 76.09756853 28.91210938 74.56762695 C28.92371094 75.45836914 28.9353125 76.34911133 28.94726562 77.2668457 C29.04032783 90.84063289 28.52220257 104.38582287 28.00390625 117.94824219 C27.92725007 120.13559381 27.90716995 122.29815386 27.94726562 124.4855957 C28.00531273 129.30350562 27.72062412 133.81760284 26.91210938 138.56762695 C21.43155697 139.48732126 16.13590521 139.72814667 10.58398438 139.7355957 C9.71316223 139.7389241 8.84234009 139.7422525 7.94512939 139.74568176 C6.11641973 139.75071786 4.28770097 139.75309112 2.45898438 139.75292969 C-0.34325011 139.75513116 -3.14509986 139.7733624 -5.94726562 139.79223633 C-7.72851428 139.79516792 -9.5097648 139.79715428 -11.29101562 139.7980957 C-12.12852356 139.80528122 -12.96603149 139.81246674 -13.82891846 139.81987 C-19.74461639 139.79647644 -19.74461639 139.79647644 -23.08789062 137.56762695 C-22.75789063 138.22762695 -22.42789063 138.88762695 -22.08789062 139.56762695 C-23.44193559 139.59526052 -24.79615618 139.61430117 -26.15039062 139.63012695 C-26.90449219 139.64172852 -27.65859375 139.65333008 -28.43554688 139.6652832 C-31.67153939 139.54613768 -34.88225085 139.02557549 -38.08789062 138.56762695 C-38.41789062 133.28762695 -38.74789062 128.00762695 -39.08789062 122.56762695 C-38.09789062 122.89762695 -37.10789063 123.22762695 -36.08789062 123.56762695 C-36.66796875 123.01075195 -37.24804688 122.45387695 -37.84570312 121.88012695 C-42.7667512 117.07276646 -47.1610414 112.21920996 -51.08789062 106.56762695 C-50.44851562 105.61887695 -49.80914062 104.67012695 -49.15039062 103.69262695 C-47.161685 100.81474868 -47.161685 100.81474868 -46.08789062 98.56762695 C-46.87164062 99.55762695 -47.65539063 100.54762695 -48.46289062 101.56762695 C-49.32914063 102.55762695 -50.19539063 103.54762695 -51.08789062 104.56762695 C-51.74789062 104.56762695 -52.40789063 104.56762695 -53.08789062 104.56762695 C-54.26123047 103.1940918 -54.26123047 103.1940918 -55.54882812 101.27856445 C-56.020625 100.58375977 -56.49242188 99.88895508 -56.97851562 99.1730957 C-57.46835937 98.43704102 -57.95820312 97.70098633 -58.46289062 96.94262695 C-58.945 96.22977539 -59.42710938 95.51692383 -59.92382812 94.7824707 C-60.87391202 93.37541711 -61.81900091 91.9649764 -62.75878906 90.55102539 C-63.60111627 89.29403306 -64.4570333 88.04595557 -65.33105469 86.81079102 C-68.08789062 82.88321065 -68.08789062 82.88321065 -68.08789062 79.56762695 C-65.69257129 78.91983619 -63.29667314 78.27433686 -60.90039062 77.63012695 C-59.89008789 77.35652344 -59.89008789 77.35652344 -58.859375 77.07739258 C-55.28640604 76.11879115 -51.72632324 75.23879414 -48.08789062 74.56762695 C-50.44211384 74.87970545 -52.79626956 75.19227957 -55.15039062 75.50512695 C-55.80716797 75.59213867 -56.46394531 75.67915039 -57.140625 75.76879883 C-61.46020254 76.34332392 -65.7749664 76.94508522 -70.08789062 77.56762695 C-73.5616597 71.11634152 -75.89925473 64.55263513 -78.08789062 57.56762695 C-80.06789063 58.06262695 -80.06789063 58.06262695 -82.08789062 58.56762695 C-84.19931009 54.26066773 -84.4221166 50.27781833 -84.40039062 45.56762695 C-84.41650391 44.86895508 -84.43261719 44.1702832 -84.44921875 43.45043945 C-84.45430223 38.06195293 -83.31818403 34.86761703 -79.58789062 31.02075195 C-74.51453831 26.95150062 -70.8140965 26.09851857 -64.44726562 26.1574707 C-53.45171603 27.4999506 -42.73053944 33.41757588 -33.08789062 38.56762695 C-32.80945313 36.83512695 -32.80945313 36.83512695 -32.52539062 35.06762695 C-29.96717258 23.61914761 -24.49563011 9.70177269 -14.52697754 2.89607239 C-9.70726663 -0.01102632 -5.52146228 -0.1095163 0 0 Z " fill="#D4D4D4" transform="translate(101.087890625,-0.567626953125)"/>
<path d="M0 0 C30.03 0 60.06 0 91 0 C86 4 86 4 83 5 C81.9051331 6.87165359 81.9051331 6.87165359 81 9 C80.25834788 10.10979104 79.50780846 11.21367774 78.75 12.3125 C73.82295225 20.07588978 70.82519447 29.2967943 68 38 C64.80912414 36.74854766 61.64927153 35.4326838 58.49609375 34.08984375 C57.67302734 33.73986328 56.84996094 33.38988281 56.00195312 33.02929688 C54.28760193 32.29942458 52.57406262 31.56764244 50.86132812 30.83398438 C50.03955078 30.48529297 49.21777344 30.13660156 48.37109375 29.77734375 C47.62786865 29.46015381 46.88464355 29.14296387 46.11889648 28.81616211 C39.53372963 26.27967026 32.22020273 25.82901719 25.5625 28.25 C21.84455163 30.78908669 19.44223124 32.67330628 18 37 C17.00428398 51.23384209 20.1885525 60.92821007 26.828125 73.56640625 C28 76 28 76 28 78 C27.46109131 78.19110352 26.92218262 78.38220703 26.36694336 78.57910156 C23.88796759 79.46257057 21.41276988 80.35620321 18.9375 81.25 C18.08994141 81.55035156 17.24238281 81.85070312 16.36914062 82.16015625 C12.39442961 83.60271546 8.65479212 85.0875746 5.00390625 87.234375 C2 89 2 89 0 89 C0 59.63 0 30.26 0 0 Z " fill="#FBFBFB" transform="translate(0,0)"/>
<path d="M0 0 C8.91 3.96 8.91 3.96 18 8 C22.9781735 9.63887037 22.9781735 9.63887037 28 11 C26.88778371 14.84220174 25.39509774 18.2742616 23.5625 21.8125 C18.41933237 32.06840231 15.77815327 42.07293726 18.65625 53.63671875 C20.24478113 57.34100902 21.68625093 58.79920059 25.125 61 C35.89096878 64.52757275 46.70469152 60.74316193 56.37646484 55.92773438 C57.81990868 55.19134265 59.25917047 54.44668815 60.69384766 53.69335938 C65.82351861 51 65.82351861 51 68 51 C68.65355469 52.86591797 68.65355469 52.86591797 69.3203125 54.76953125 C75.00472403 72.48100362 75.00472403 72.48100362 87 86 C88.32 86.99 89.64 87.98 91 89 C60.97 89 30.94 89 0 89 C0 59.63 0 30.26 0 0 Z " fill="#FBFBFB" transform="translate(0,122)"/>
<path d="M0 0 C30.03 0 60.06 0 91 0 C91 29.37 91 58.74 91 89 C87.4393473 87.57573892 83.90573091 86.1191368 80.375 84.625 C74.64627307 82.22973824 68.85556767 80.06328074 63 78 C64.01285104 74.62382987 65.18768176 71.63758004 66.8125 68.5 C72.34735911 57.59737187 75.61858487 47.62541613 73.25 35.5 C72.36477942 32.06134517 72.36477942 32.06134517 70.375 30.6875 C69.199375 30.3471875 69.199375 30.3471875 68 30 C67.12988281 29.61908203 67.12988281 29.61908203 66.2421875 29.23046875 C56.55882544 25.07231916 48.53681876 27.34334132 39 31 C35.19453182 32.73503058 31.4964912 34.65258086 27.80078125 36.609375 C25 38 25 38 23 38 C22.6757605 37.06317383 22.6757605 37.06317383 22.3449707 36.10742188 C21.34423336 33.2346545 20.32849526 30.36740494 19.3125 27.5 C18.80299805 26.02660156 18.80299805 26.02660156 18.28320312 24.5234375 C15.57616416 16.93360862 12.7592627 9.2740907 5.8125 4.625 C3.65163251 3.14585935 1.85990932 1.85990932 0 0 Z " fill="#FBFBFB" transform="translate(100,0)"/>
<path d="M0 0 C0 29.37 0 58.74 0 89 C-30.03 89 -60.06 89 -91 89 C-86 85 -86 85 -83.4375 83.2109375 C-80.36783608 80.42659491 -78.74791026 77.31111719 -77 73.625 C-76.6596875 72.92761719 -76.319375 72.23023438 -75.96875 71.51171875 C-72.78831238 64.8496657 -70.28056159 58.01711257 -68 51 C-64.19346165 52.4678349 -60.5479829 54.16418025 -56.875 55.9375 C-47.99714324 60.03574313 -37.87069121 64.25095643 -27.9921875 61.42578125 C-23.28494471 59.56454927 -21.02770308 57.56058616 -18.3125 53.4375 C-14.54227964 43.56311334 -18.21218177 33.39197525 -22 24 C-23.50791872 20.92412832 -25.10213845 17.97577921 -26.86328125 15.0390625 C-28 13 -28 13 -28 11 C-26.87722656 10.62488281 -25.75445312 10.24976563 -24.59765625 9.86328125 C-13.72296834 6.18469894 -13.72296834 6.18469894 -3.56640625 0.8828125 C-2 0 -2 0 0 0 Z " fill="#FBFBFB" transform="translate(191,122)"/>
<path d="M0 0 C0 2.31 0 4.62 0 7 C0.66 5.35 1.32 3.7 2 2 C4.95984147 2.61273338 7.16054128 3.53863646 9.71484375 5.14453125 C10.40126953 5.57443359 11.08769531 6.00433594 11.79492188 6.44726562 C12.50197266 6.89779297 13.20902344 7.34832031 13.9375 7.8125 C14.64068359 8.25142578 15.34386719 8.69035156 16.06835938 9.14257812 C19.90392333 11.56182324 23.51964293 14.07813467 27 17 C26 20 26 20 25 21 C26.32 20.34 27.64 19.68 29 19 C30.0828125 19.928125 30.0828125 19.928125 31.1875 20.875 C33.81847833 23.06278729 33.81847833 23.06278729 36.5625 24 C39 25 39 25 40.76171875 27.015625 C43.64548317 29.57226082 45.44637434 29.58462497 49.25 29.75 C50.32765625 29.80671875 51.4053125 29.8634375 52.515625 29.921875 C53.74539062 29.96054688 53.74539062 29.96054688 55 30 C55 30.33 55 30.66 55 31 C48.83389294 31.76472607 42.82260311 32.04562564 36.609375 31.8515625 C34.67964844 31.79935547 34.67964844 31.79935547 32.7109375 31.74609375 C30.72061708 31.68524569 28.73008889 31.62402719 26.74121094 31.52685547 C18.77984647 30.94583229 18.77984647 30.94583229 11.52148438 33.58496094 C9.79767201 35.30444211 8.34919797 36.97750411 7 39 C6.01 38.505 6.01 38.505 5 38 C6.98 36.02 8.96 34.04 11 32 C6.05 32 1.1 32 -4 32 C-4 36.95 -4 41.9 -4 47 C-2.35 45.68 -0.7 44.36 1 43 C-0.67715503 46.74134583 -0.67715503 46.74134583 -2.54223633 48.2355957 C-4.7121284 50.86192463 -4.43558341 53.0527868 -4.51171875 56.41796875 C-4.54716797 57.67158203 -4.58261719 58.92519531 -4.61914062 60.21679688 C-4.64169922 61.52712891 -4.66425781 62.83746094 -4.6875 64.1875 C-4.72067666 65.52282013 -4.75516666 66.85810832 -4.79101562 68.19335938 C-4.87362057 71.46215504 -4.94273229 74.73067812 -5 78 C-8.61342236 75.11027428 -11.67543811 72.4797417 -14.375 68.6875 C-14.87773438 67.99011719 -15.38046875 67.29273437 -15.8984375 66.57421875 C-16.26195313 66.05472656 -16.62546875 65.53523438 -17 65 C-16.360625 64.05125 -15.72125 63.1025 -15.0625 62.125 C-13.07379437 59.24712173 -13.07379437 59.24712173 -12 57 C-12.78375 57.99 -13.5675 58.98 -14.375 60 C-15.24125 60.99 -16.1075 61.98 -17 63 C-17.66 63 -18.32 63 -19 63 C-20.17333984 61.62646484 -20.17333984 61.62646484 -21.4609375 59.7109375 C-21.93273437 59.01613281 -22.40453125 58.32132812 -22.890625 57.60546875 C-23.38046875 56.86941406 -23.8703125 56.13335937 -24.375 55.375 C-24.85710938 54.66214844 -25.33921875 53.94929688 -25.8359375 53.21484375 C-26.78602139 51.80779016 -27.73111029 50.39734944 -28.67089844 48.98339844 C-29.51322565 47.72640611 -30.36914268 46.47832861 -31.24316406 45.24316406 C-34 41.3155837 -34 41.3155837 -34 38 C-31.60468067 37.35220924 -29.20878252 36.70670991 -26.8125 36.0625 C-25.80219727 35.78889648 -25.80219727 35.78889648 -24.77148438 35.50976562 C-21.19851542 34.5511642 -17.63843262 33.67116718 -14 33 C-16.35422322 33.3120785 -18.70837894 33.62465262 -21.0625 33.9375 C-22.04766602 34.06801758 -22.04766602 34.06801758 -23.05273438 34.20117188 C-27.37231192 34.77569697 -31.68707577 35.37745827 -36 36 C-39.69523921 29.26938572 -41.92120804 22.37824752 -44 15 C-44.19722656 14.30132812 -44.39445312 13.60265625 -44.59765625 12.8828125 C-45.64310326 7.9905265 -45.49713627 3.38674854 -43.8125 -1.3125 C-33.66963292 -16.3519236 -12.55359498 -7.05778151 0 0 Z " fill="#F6F6F6" transform="translate(67,41)"/>
<path d="M0 0 C6.1631332 9.60437792 9.54326794 21.56474011 8.23828125 32.9296875 C6.94898076 37.62366773 5.30706401 40.21716566 1.23828125 42.9296875 C-9.39689503 46.35457478 -19.86310053 43.07684839 -29.76171875 38.9296875 C-33.22671875 36.9496875 -33.22671875 36.9496875 -36.76171875 34.9296875 C-35.11171875 24.6996875 -33.46171875 14.4696875 -31.76171875 3.9296875 C-26.81171875 3.2696875 -21.86171875 2.6096875 -16.76171875 1.9296875 C-12.75269653 1.10291103 -8.78682045 0.18364139 -4.80859375 -0.77734375 C-1.76171875 -1.0703125 -1.76171875 -1.0703125 0 0 Z " fill="#F2F2F2" transform="translate(160.76171875,135.0703125)"/>
<path d="M0 0 C10.29102819 6.26800845 16.72974313 18.6895929 19.55224609 30.109375 C19.70000488 30.73328125 19.84776367 31.3571875 20 32 C1.56147721 45.08827121 1.56147721 45.08827121 -6 50 C-6.71542969 49.45472656 -7.43085937 48.90945312 -8.16796875 48.34765625 C-15.64300219 42.69061283 -23.25667738 37.2829443 -31 32 C-27.30990855 19.07322002 -22.03962013 6.85970047 -9.9921875 -0.171875 C-6.49623796 -1.62509324 -3.46341527 -1.20759789 0 0 Z " fill="#F7F7F7" transform="translate(101,8)"/>
<path d="M0 0 C4.33340312 11.17561856 1.01439903 21.27732891 -3 32 C-4.32 34.64 -5.64 37.28 -7 40 C-17.23 38.35 -27.46 36.7 -38 35 C-39.9375 22.875 -39.9375 22.875 -40.54272461 19.08544922 C-40.70264893 18.08529785 -40.86257324 17.08514648 -41.02734375 16.0546875 C-41.18968506 15.03874512 -41.35202637 14.02280273 -41.51928711 12.97607422 C-42.00285474 9.98232643 -42.49892329 6.99086257 -43 4 C-28.89854186 -3.72579887 -14.37282143 -9.58188096 0 0 Z " fill="#F3F3F3" transform="translate(167,37)"/>
<path d="M0 0 C10.23 1.65 20.46 3.3 31 5 C32.65 15.23 34.3 25.46 36 36 C24.63978144 41.68010928 13.88242957 46.82298532 1 45 C-2.61226747 43.79157959 -5.30539984 42.30032893 -7.16015625 38.828125 C-11.27462111 24.9729038 -6.12793513 12.25587026 0 0 Z " fill="#F1F1F1" transform="translate(31,134)"/>
<path d="M0 0 C4.03483328 3.66537866 6.96698829 7.98983839 10.0625 12.4375 C10.59166016 13.18837891 11.12082031 13.93925781 11.66601562 14.71289062 C14.25158605 18.40146474 16.75390785 22.09071159 19 26 C18.27554688 26.96679688 17.55109375 27.93359375 16.8046875 28.9296875 C11.48145281 36.08160554 6.35070155 43.19810904 2 51 C-6.13512027 50.10172078 -12.97991359 45.96560008 -20 42 C-21.00417969 41.43539062 -22.00835937 40.87078125 -23.04296875 40.2890625 C-26.2991306 38.00094877 -28.45085229 36.0643886 -29.50097656 32.11669922 C-30.5145768 25.9856883 -30.67028918 19.75557369 -27.3828125 14.33203125 C-25.05327831 12.1262269 -22.79065339 10.58228866 -20 9 C-19.01386719 8.44054687 -18.02773438 7.88109375 -17.01171875 7.3046875 C-11.50841601 4.40968453 -5.87196924 2.03260474 0 0 Z " fill="#F5F5F5" transform="translate(29,80)"/>
<path d="M0 0 C6.19900087 1.66973088 10.57795424 5.6530535 14 11 C16.10960185 16.36989562 17.29505256 21.69877227 15.125 27.23046875 C11.73786959 33.88216892 7.56980198 38.45084065 0.6875 41.4375 C-5.39119269 42.36475821 -10.66382153 42.12316272 -16.25 39.4375 C-20.68253572 35.50866152 -25.716089 30.32780921 -26.23828125 24.20703125 C-26.39190728 17.1806618 -26.42362647 12.5877387 -22 7 C-14.98327834 0.16648256 -9.60635964 -0.89917347 0 0 Z " fill="#040404" transform="translate(101,85)"/>
<path d="M0 0 C4.22701819 4.00783947 7.75001351 8.35050815 11.25 13 C11.79140625 13.69867188 12.3328125 14.39734375 12.890625 15.1171875 C17.6811026 21.46457032 17.6811026 21.46457032 18 26 C32.98935584 20.63510127 32.98935584 20.63510127 45.671875 11.29296875 C47 10 47 10 49 10 C49 12.31 49 14.62 49 17 C27.70546318 28 27.70546318 28 21 28 C21.79664063 29.50626953 21.79664063 29.50626953 22.609375 31.04296875 C35.24513259 55.32918147 35.24513259 55.32918147 33 67 C31.27713119 71.54018296 29.28472187 74.99729024 25.4375 78 C15.58847384 82.04062612 5.60012739 79.81878179 -4 76 C-9.14715965 73.60630693 -14.08598882 70.83553586 -19 68 C-19.2784375 69.7325 -19.2784375 69.7325 -19.5625 71.5 C-22.1944022 83.27822901 -27.78612715 96.8071673 -37.8125 104 C-42.18740683 106.44994782 -46.08973352 107.06446336 -51 106 C-56.55144403 103.64363167 -60.72264741 100.01844615 -64 95 C-64.3125 91.625 -64.3125 91.625 -64 89 C-60.37363743 89.58542176 -58.54114586 91.02646543 -55.875 93.5 C-52.50660633 96.84405066 -52.50660633 96.84405066 -48.1171875 98.125 C-42.34016645 97.80293611 -39.04862311 96.24666399 -34.9140625 92.2109375 C-29.04906322 85.43626486 -22 75.35218526 -22 66 C-23.74721674 64.78746664 -25.54947874 63.65358918 -27.375 62.5625 C-32.78080229 59.32879656 -32.78080229 59.32879656 -35 56 C-30.02790438 57.76429199 -25.56561939 60.3939166 -21 63 C-20.525625 62.175 -20.05125 61.35 -19.5625 60.5 C-19.046875 59.675 -18.53125 58.85 -18 58 C-17.67 58 -17.34 58 -17 58 C-17 60.31 -17 62.62 -17 65 C-14.81477184 65.96380382 -12.62704614 66.92109439 -10.4375 67.875 C-9.82841797 68.14441406 -9.21933594 68.41382813 -8.59179688 68.69140625 C0.75417511 72.7462724 10.00630894 74.53522502 20.125 72.3125 C23.16550804 71.26507233 23.16550804 71.26507233 24.375 68.5625 C24.58125 67.716875 24.7875 66.87125 25 66 C25.495 64.515 25.495 64.515 26 63 C27.43599802 51.77870122 23.47896977 39.71934266 18 30 C15.94906855 28.59533047 15.94906855 28.59533047 14 28 C14.99 28 15.98 28 17 28 C17 27.01 17 26.02 17 25 C16.34 25 15.68 25 15 25 C13.47821262 22.65004935 12.06549088 20.30755249 10.6875 17.875 C8.42145181 13.89107882 6.20834467 10.11336278 3.20703125 6.6328125 C1 4 1 4 1 2 C0.34 2 -0.32 2 -1 2 C-1.268125 2.61875 -1.53625 3.2375 -1.8125 3.875 C-3 6 -3 6 -6 8 C-4.55746343 4.63408134 -2.66735273 2.48952921 0 0 Z " fill="#0D0D0D" transform="translate(142,105)"/>
<path d="M0 0 C-0.33 0.99 -0.66 1.98 -1 3 C-0.01 3.763125 0.98 4.52625 2 5.3125 C3.6875 6.61328125 3.6875 6.61328125 5 8 C5 8.99 5 9.98 5 11 C6.32 11 7.64 11 9 11 C7.7632378 14.7102866 5.99979707 15.60016234 3 18 C2.67 18.99 2.34 19.98 2 21 C4.44480079 20.81171228 4.44480079 20.81171228 7 20 C7.33 19.34 7.66 18.68 8 18 C8.33 17.34 8.66 16.68 9 16 C11.625 15.25 11.625 15.25 14 15 C16.78989877 18.71986503 17.48241371 21.53415477 17.28515625 26.0625 C16.8510886 29.01178159 15.99697016 30.79644672 14 33 C11.3125 33.3125 11.3125 33.3125 9 33 C7.14223235 29.86501708 6.79859524 27.62528568 7 24 C5.68 24 4.36 24 3 24 C3.33 24.515625 3.66 25.03125 4 25.5625 C5.34292714 28.8358849 5.25952656 31.49639145 5 35 C3 37 3 37 -0.75 37.5625 C-3.57249803 37.52644619 -4.67604577 37.27291102 -6.859375 35.43359375 C-8.34876586 33.67824024 -9.71450891 31.9087595 -11 30 C-11.99 30.33 -12.98 30.66 -14 31 C-14.99 31 -15.98 31 -17 31 C-17.84511824 29.27656245 -18.67563354 27.54595947 -19.5 25.8125 C-19.9640625 24.84957031 -20.428125 23.88664062 -20.90625 22.89453125 C-22.0518521 19.86277713 -22.65820917 18.17791614 -22 15 C-19.65625 12.75390625 -19.65625 12.75390625 -16.5 10.5625 C-15.39828911 9.78406414 -14.29672704 9.00541761 -13.1953125 8.2265625 C-12.14085938 7.49179688 -11.08640625 6.75703125 -10 6 C-8.45309087 4.81933727 -6.91046424 3.63300906 -5.375 2.4375 C-2.24390244 0 -2.24390244 0 0 0 Z " fill="#F4F4F4" transform="translate(93,156)"/>
<path d="M0 0 C3.25 1.75 3.25 1.75 6 4 C7.2684375 4.86625 7.2684375 4.86625 8.5625 5.75 C11.73864203 8.68182341 14.34905282 11.97483354 16 16 C15.8203125 18.1875 15.8203125 18.1875 15 20 C13.515 20.495 13.515 20.495 12 21 C11.62488281 20.46890625 11.24976562 19.9378125 10.86328125 19.390625 C5.41738346 11.8701195 5.41738346 11.8701195 -2.8125 7.9375 C-7.01933833 7.60412791 -9.59144325 9.01078261 -13.04296875 11.28515625 C-17.88278404 15.52603233 -20.8626523 20.19258502 -23.6875 25.9375 C-24.55955078 27.68353516 -24.55955078 27.68353516 -25.44921875 29.46484375 C-26.99172762 32.98114231 -28.03916199 36.29391052 -29 40 C-27.68 41.32 -26.36 42.64 -25 44 C-27.97 43.505 -27.97 43.505 -31 43 C-31.66 45.31 -32.32 47.62 -33 50 C-33.33 50 -33.66 50 -34 50 C-34 47.03 -34 44.06 -34 41 C-51.42463625 32.99586491 -51.42463625 32.99586491 -69.875 34.25 C-74.07870819 36.60407658 -75.49665764 38.48997291 -77 43 C-77.06970052 45.39490986 -77.08448003 47.79167691 -77.0625 50.1875 C-77.05347656 51.45980469 -77.04445313 52.73210938 -77.03515625 54.04296875 C-77.02355469 55.01878906 -77.01195312 55.99460938 -77 57 C-78.98 57.495 -78.98 57.495 -81 58 C-83.11141946 53.69304078 -83.33422597 49.71019137 -83.3125 45 C-83.32861328 44.30132812 -83.34472656 43.60265625 -83.36132812 42.8828125 C-83.3664116 37.49432598 -82.23029341 34.29999008 -78.5 30.453125 C-73.42664769 26.38387367 -69.72620588 25.53089161 -63.359375 25.58984375 C-52.36382541 26.93232364 -41.64264882 32.84994893 -32 38 C-31.7215625 36.2675 -31.7215625 36.2675 -31.4375 34.5 C-28.8055978 22.72177099 -23.21387285 9.1928327 -13.1875 2 C-8.85160553 -0.44567662 -4.87729194 -0.98815023 0 0 Z " fill="#0F0F0F" transform="translate(100,0)"/>
<path d="M0 0 C5.95573169 3.88225473 11.73557994 7.96081141 17.46875 12.1640625 C20.26501927 14.19222076 23.10248744 16.12053239 26 18 C22.11179079 30.16099476 17.41326574 42.95246432 6 50 C1.4477858 51.56892951 -1.74375145 51.57787433 -6.125 49.5625 C-16.13684496 40.63889906 -16.13684496 40.63889906 -16.9375 35 C-16.958125 34.01 -16.97875 33.02 -17 32 C-14.8125 32.125 -14.8125 32.125 -12 33 C-11.236875 34.010625 -10.47375 35.02125 -9.6875 36.0625 C-7.41298011 39.12301243 -7.41298011 39.12301243 -4.94140625 39.4296875 C-2.48354105 39.48206715 -2.48354105 39.48206715 1 39 C2.38177162 37.8448749 2.38177162 37.8448749 2.125 34.6875 C2.02893262 31.85351237 1.85249568 29.66404901 1 27 C2.32 27 3.64 27 5 27 C5.66 29.64 6.32 32.28 7 35 C8.65 35.33 10.3 35.66 12 36 C14.2647694 31.47046119 14.31552523 27.96952231 14 23 C13.13734032 20.59442147 13.13734032 20.59442147 12 19 C9.56282742 19.27034634 9.56282742 19.27034634 7 20 C6.34 20.99 5.68 21.98 5 23 C2.375 23.6875 2.375 23.6875 0 24 C0.34779165 20.75394458 0.96935871 20.02540985 3.5625 17.875 C4.366875 17.25625 5.17125 16.6375 6 16 C6 15.34 6 14.68 6 14 C4.02 14.33 2.04 14.66 0 15 C0.66 14.67 1.32 14.34 2 14 C2 13.01 2 12.02 2 11 C1.01 10.34 0.02 9.68 -1 9 C-1 8.34 -1 7.68 -1 7 C-1.99 6.67 -2.98 6.34 -4 6 C-2.68 4.02 -1.36 2.04 0 0 Z " fill="#F4F4F4" transform="translate(95,153)"/>
<path d="M0 0 C0.94324258 4.31196609 1.48041715 8.62065881 2 13 C0.02 13.33 -1.96 13.66 -4 14 C-4 14.66 -4 15.32 -4 16 C-1.525 16.99 -1.525 16.99 1 18 C0 20 -1 22 -2 24 C0.31 24 2.62 24 5 24 C5.33 25.98 5.66 27.96 6 30 C6.99 29.01 7.98 28.02 9 27 C11.49361571 28.20381448 13.68143083 29.45428722 16 31 C16 28.69 16 26.38 16 24 C22.18781726 25.5177665 22.18781726 25.5177665 25 27.1875 C26.69558418 30.26074633 25.79770837 32.69520818 25 36 C24.01 37.65 23.02 39.3 22 41 C11.77 39.35 1.54 37.7 -9 36 C-10.9375 23.875 -10.9375 23.875 -11.54272461 20.08544922 C-11.70264893 19.08529785 -11.86257324 18.08514648 -12.02734375 17.0546875 C-12.27085571 15.53077393 -12.27085571 15.53077393 -12.51928711 13.97607422 C-13.00285474 10.98232643 -13.49892329 7.99086257 -14 5 C-12.421924 4.15675328 -10.8372958 3.32576082 -9.25 2.5 C-8.36828125 2.0359375 -7.4865625 1.571875 -6.578125 1.09375 C-4 0 -4 0 0 0 Z " fill="#F6F6F6" transform="translate(138,36)"/>
<path d="M0 0 C0.78826172 0.02255859 1.57652344 0.04511719 2.38867188 0.06835938 C4.32243929 0.12695839 6.25522167 0.21663173 8.1875 0.3125 C8.50413816 7.02522902 7.34324012 12.82378872 5.6875 19.3125 C5.44902344 20.27800781 5.21054688 21.24351562 4.96484375 22.23828125 C4.38062132 24.59853987 3.78803719 26.95634982 3.1875 29.3125 C-3.37874996 26.41387739 -9.15145945 22.84245698 -14.9375 18.625 C-15.61304932 18.13733154 -16.28859863 17.64966309 -16.98461914 17.1472168 C-18.63487249 15.92231492 -20.22953105 14.62319829 -21.8125 13.3125 C-21.8125 12.6525 -21.8125 11.9925 -21.8125 11.3125 C-22.4725 11.126875 -23.1325 10.94125 -23.8125 10.75 C-28.102027 8.69460165 -31.44333104 5.64822808 -34.8125 2.3125 C-34.8125 1.9825 -34.8125 1.6525 -34.8125 1.3125 C-27.2225 1.3125 -19.6325 1.3125 -11.8125 1.3125 C-12.4725 2.6325 -13.1325 3.9525 -13.8125 5.3125 C-13.16925781 4.49394531 -12.52601562 3.67539063 -11.86328125 2.83203125 C-7.78159201 -0.53889008 -5.10309548 -0.27803957 0 0 Z " fill="#F8F8F8" transform="translate(118.8125,139.6875)"/>
<path d="M0 0 C2.33524782 2.25740623 4.18705073 4.2805761 6 7 C5.625 9.6875 5.625 9.6875 5 12 C5.66 12.33 6.32 12.66 7 13 C6.34 13 5.68 13 5 13 C4.67 13.99 4.34 14.98 4 16 C1.83125748 15.49396008 0.00032373 15.00016187 -2 14 C-5.79415519 13.46881827 -9.46331178 13.14910652 -12.890625 15.046875 C-15.0405787 16.82110863 -16.74635623 18.49271246 -18 21 C-18.54280937 27.40515061 -17.8679143 30.80885186 -14 36 C-10.91619214 37.96183059 -10.91619214 37.96183059 -8 39 C-8.33 39.99 -8.66 40.98 -9 42 C-9 42.99 -9 43.98 -9 45 C-11.65581079 46.03417517 -12.69724444 46.12839633 -15.3671875 44.99609375 C-16.19476563 44.48175781 -17.02234375 43.96742187 -17.875 43.4375 C-18.69742187 42.94121094 -19.51984375 42.44492188 -20.3671875 41.93359375 C-28.33731114 36.08016466 -28.33731114 36.08016466 -29.62011719 32.0534668 C-29.91633181 29.87362443 -29.98709726 27.82405492 -29.9375 25.625 C-29.92493164 24.86985107 -29.91236328 24.11470215 -29.89941406 23.33666992 C-29.60834883 18.57073485 -28.85395797 15.69326203 -25.25 12.3125 C-22.76953125 10.5703125 -22.76953125 10.5703125 -20 9 C-19.01386719 8.44054687 -18.02773438 7.88109375 -17.01171875 7.3046875 C-11.50841601 4.40968453 -5.87196924 2.03260474 0 0 Z " fill="#F5F5F5" transform="translate(29,80)"/>
<path d="M0 0 C2.95984147 0.61273338 5.16054128 1.53863646 7.71484375 3.14453125 C8.74448242 3.78938477 8.74448242 3.78938477 9.79492188 4.44726562 C10.50197266 4.89779297 11.20902344 5.34832031 11.9375 5.8125 C12.64068359 6.25142578 13.34386719 6.69035156 14.06835938 7.14257812 C17.90392333 9.56182324 21.51964293 12.07813467 25 15 C23.69435407 18.9169378 21.71750027 20.07919438 18.5 22.625 C17.4996875 23.42164062 16.499375 24.21828125 15.46875 25.0390625 C14.6540625 25.68617187 13.839375 26.33328125 13 27 C12.67 27.33 12.34 27.66 12 28 C10.65984779 28.15582303 9.31241097 28.25044142 7.96484375 28.31640625 C7.15595703 28.35830078 6.34707031 28.40019531 5.51367188 28.44335938 C4.66353516 28.48267578 3.81339844 28.52199219 2.9375 28.5625 C2.08349609 28.60568359 1.22949219 28.64886719 0.34960938 28.69335938 C-1.76672037 28.79976702 -3.88333813 28.90041731 -6 29 C-5.38441182 25.10261896 -4.75588498 21.20743171 -4.125 17.3125 C-3.86396484 15.65831055 -3.86396484 15.65831055 -3.59765625 13.97070312 C-3.42363281 12.90400391 -3.24960938 11.83730469 -3.0703125 10.73828125 C-2.91320801 9.75899658 -2.75610352 8.77971191 -2.59423828 7.77075195 C-2.00183977 5.0085783 -1.12657064 2.58533518 0 0 Z " fill="#F6F6F6" transform="translate(69,43)"/>
<path d="M0 0 C0.66 0 1.32 0 2 0 C3.55961601 1.74001935 5.04949575 3.54303197 6.5 5.375 C9.60759138 9.31482541 9.60759138 9.31482541 13 13 C13.30675232 15.89967757 13.51173371 18.71783178 13.625 21.625 C13.66367187 22.42679688 13.70234375 23.22859375 13.7421875 24.0546875 C13.83653931 26.03607556 13.91936215 28.01800645 14 30 C4.71194363 30.58971786 -6.54846825 29.22576588 -15 25 C-13.53584697 19.44841974 -10.78417653 15.41628751 -7.5 10.8125 C-6.75169922 9.74612305 -6.75169922 9.74612305 -5.98828125 8.65820312 C-5.06395843 7.34110506 -4.13658254 6.0261401 -3.20507812 4.71411133 C-2.11224688 3.15966072 -1.05401749 1.58102623 0 0 Z " fill="#F7F7F7" transform="translate(48,107)"/>
<path d="M0 0 C1.37955845 14.681227 1.37955845 14.681227 -1.93359375 20.25 C-4.18172618 22.66719199 -6.51192778 24.83528735 -9 27 C-9.66 27.99 -10.32 28.98 -11 30 C-11.66 30 -12.32 30 -13 30 C-14.17333984 28.62646484 -14.17333984 28.62646484 -15.4609375 26.7109375 C-15.93273438 26.01613281 -16.40453125 25.32132813 -16.890625 24.60546875 C-17.62539063 23.50138672 -17.62539063 23.50138672 -18.375 22.375 C-18.85710938 21.66214844 -19.33921875 20.94929688 -19.8359375 20.21484375 C-20.78602139 18.80779016 -21.73111029 17.39734944 -22.67089844 15.98339844 C-23.51322565 14.72640611 -24.36914268 13.47832861 -25.24316406 12.24316406 C-28 8.3155837 -28 8.3155837 -28 5 C-25.60468067 4.35220924 -23.20878252 3.70670991 -20.8125 3.0625 C-20.13896484 2.88009766 -19.46542969 2.69769531 -18.77148438 2.50976562 C-12.23717772 0.75665896 -6.74216133 -0.11427392 0 0 Z " fill="#F7F7F7" transform="translate(61,74)"/>
<path d="M0 0 C0.66 0 1.32 0 2 0 C3.17333984 1.35766602 3.17333984 1.35766602 4.4609375 3.25390625 C4.93273437 3.94419922 5.40453125 4.63449219 5.890625 5.34570312 C6.38046875 6.07724609 6.8703125 6.80878906 7.375 7.5625 C7.85710937 8.26697266 8.33921875 8.97144531 8.8359375 9.69726562 C17 21.73260233 17 21.73260233 17 25 C14.81426438 25.65177969 12.6263177 26.29614674 10.4375 26.9375 C9.21933594 27.29714844 8.00117188 27.65679687 6.74609375 28.02734375 C0.4080773 29.67298097 -5.49548766 30.11411425 -12 30 C-12.64072111 13.92543802 -12.64072111 13.92543802 -7.40185547 7.96801758 C-5.338338 5.89910952 -3.18161635 3.94300206 -1 2 C-0.67 1.34 -0.34 0.68 0 0 Z " fill="#F8F8F8" transform="translate(141,107)"/>
<path d="M0 0 C9.48603566 0.56141844 18.96145563 1.98715188 28 5 C26.2117286 14.02357636 18.80622012 23.12145994 13 30 C12.34 30 11.68 30 11 30 C9.44038399 28.25998065 7.95050425 26.45696803 6.5 24.625 C3.39240862 20.68517459 3.39240862 20.68517459 0 17 C-0.14517744 14.0906442 -0.18630796 11.280054 -0.125 8.375 C-0.11597656 7.57320313 -0.10695312 6.77140625 -0.09765625 5.9453125 C-0.07406223 3.96341477 -0.03819065 1.98167019 0 0 Z " fill="#F8F8F8" transform="translate(130,74)"/>
<path d="M0 0 C0.66 0.66 1.32 1.32 2 2 C1.79732876 4.73606173 1.45532704 7.30176571 1 10 C0.76023437 11.546875 0.76023437 11.546875 0.515625 13.125 C-0.84242958 21.68485915 -0.84242958 21.68485915 -2 24 C0.87919183 23.79779261 3.75007458 23.56433455 6.625 23.3125 C7.83736328 23.23225586 7.83736328 23.23225586 9.07421875 23.15039062 C15.0397267 22.59263988 17.70220298 21.15200154 22 17 C24.88725213 15.12659213 27.92104464 13.53947768 31 12 C31.721875 12.61875 32.44375 13.2375 33.1875 13.875 C35.81847833 16.06278729 35.81847833 16.06278729 38.5625 17 C41 18 41 18 42.76171875 20.015625 C45.64548317 22.57226082 47.44637434 22.58462497 51.25 22.75 C52.32765625 22.80671875 53.4053125 22.8634375 54.515625 22.921875 C55.33546875 22.94765625 56.1553125 22.9734375 57 23 C57 23.33 57 23.66 57 24 C50.83389294 24.76472607 44.82260311 25.04562564 38.609375 24.8515625 C36.67964844 24.79935547 36.67964844 24.79935547 34.7109375 24.74609375 C32.72061708 24.68524569 30.73008889 24.62402719 28.74121094 24.52685547 C20.77984647 23.94583229 20.77984647 23.94583229 13.52148438 26.58496094 C11.79767201 28.30444211 10.34919797 29.97750411 9 32 C8.34 31.67 7.68 31.34 7 31 C8.98 29.02 10.96 27.04 13 25 C8.05 25 3.1 25 -2 25 C-2 29.95 -2 34.9 -2 40 C-0.35 38.68 1.3 37.36 3 36 C1.32284497 39.74134583 1.32284497 39.74134583 -0.54223633 41.2355957 C-2.7121284 43.86192463 -2.43558341 46.0527868 -2.51171875 49.41796875 C-2.54716797 50.67158203 -2.58261719 51.92519531 -2.61914062 53.21679688 C-2.65297852 55.18229492 -2.65297852 55.18229492 -2.6875 57.1875 C-2.72067666 58.52282013 -2.75516666 59.85810832 -2.79101562 61.19335938 C-2.87362057 64.46215504 -2.94273229 67.73067812 -3 71 C-6.61342236 68.11027428 -9.67543811 65.4797417 -12.375 61.6875 C-12.87773438 60.99011719 -13.38046875 60.29273438 -13.8984375 59.57421875 C-14.26195312 59.05472656 -14.62546875 58.53523438 -15 58 C-11.25 52.25 -11.25 52.25 -9 50 C-8.67 49.175 -8.34 48.35 -8 47.5 C-7 45 -7 45 -5 43 C-4.69324768 40.10032243 -4.48826629 37.28216822 -4.375 34.375 C-4.33632813 33.57320312 -4.29765625 32.77140625 -4.2578125 31.9453125 C-4.16346069 29.96392444 -4.08063785 27.98199355 -4 26 C-5.65 25.67 -7.3 25.34 -9 25 C-9 24.67 -9 24.34 -9 24 C-7.02 24 -5.04 24 -3 24 C-2.94465088 23.45061768 -2.88930176 22.90123535 -2.83227539 22.33520508 C-2.57818747 19.82737577 -2.32037701 17.31994239 -2.0625 14.8125 C-1.97548828 13.94818359 -1.88847656 13.08386719 -1.79882812 12.19335938 C-1.3732769 8.0796975 -0.92796186 4.03788809 0 0 Z " fill="#494949" transform="translate(65,48)"/>
<path d="M0 0 C3.66855979 -0.05970531 7.33131446 -0.03987702 11 0 C12.7634375 -0.0309375 12.7634375 -0.0309375 14.5625 -0.0625 C19.40624895 1.43465877 22.26135277 4.48265689 25.86328125 7.96875 C27.8306219 10.03703104 27.8306219 10.03703104 30 11 C28.68935941 14.93192177 26.24544707 16.18425483 22.9375 18.375 C22.34984863 18.77130615 21.76219727 19.1676123 21.15673828 19.57592773 C19.44353069 20.72614359 17.72272562 21.86410852 16 23 C15.16339844 23.56074219 14.32679687 24.12148437 13.46484375 24.69921875 C8.40490688 28 8.40490688 28 5 28 C2.45111638 18.65804514 0.36868599 9.73331009 0 0 Z " fill="#F9F9F9" transform="translate(64,140)"/>
<path d="M0 0 C0.66 0 1.32 0 2 0 C2 0.99 2 1.98 2 3 C2.94875 3.309375 3.8975 3.61875 4.875 3.9375 C8 5 8 5 10 6 C10 5.34 10 4.68 10 4 C10.66 4 11.32 4 12 4 C12.33 7.3 12.66 10.6 13 14 C13.99 14 14.98 14 16 14 C16 14.99 16 15.98 16 17 C15.01 17 14.02 17 13 17 C12.67 19.97 12.34 22.94 12 26 C7.05 26.495 7.05 26.495 2 27 C2 27.99 2 28.98 2 30 C1.34 30 0.68 30 0 30 C0 29.01 0 28.02 0 27 C-3.3 26.67 -6.6 26.34 -10 26 C-10.33 23.03 -10.66 20.06 -11 17 C-11.99 17 -12.98 17 -14 17 C-14 16.01 -14 15.02 -14 14 C-13.01 14 -12.02 14 -11 14 C-10.67 11.03 -10.34 8.06 -10 5 C-7.39583333 4.47916667 -4.79166667 3.95833333 -2.1875 3.4375 C-1.465625 3.293125 -0.74375 3.14875 0 3 C0 2.01 0 1.02 0 0 Z " fill="#3F3F3F" transform="translate(146,141)"/>
<path d="M0 0 C0.66 0 1.32 0 2 0 C2.99 1.98 3.98 3.96 5 6 C5.61875 5.505 6.2375 5.01 6.875 4.5 C9 3 9 3 11 3 C10.34 5.64 9.68 8.28 9 11 C11.31 11.33 13.62 11.66 16 12 C14.71034824 13.37562854 13.37310707 14.70766393 12 16 C11.34 16 10.68 16 10 16 C10.66 16.78375 11.32 17.5675 12 18.375 C14 21 14 21 14 23 C11.69 22.67 9.38 22.34 7 22 C7 24.31 7 26.62 7 29 C6.4225 28.67 5.845 28.34 5.25 28 C2.80116138 26.72924102 2.80116138 26.72924102 -1 27 C-1.99 27.66 -2.98 28.32 -4 29 C-4 26.69 -4 24.38 -4 22 C-7.96 22.495 -7.96 22.495 -12 23 C-10.68 20.69 -9.36 18.38 -8 16 C-10.475 15.01 -10.475 15.01 -13 14 C-13 13.34 -13 12.68 -13 12 C-11.02 11.67 -9.04 11.34 -7 11 C-7.33 8.69 -7.66 6.38 -8 4 C-6.02 4.66 -4.04 5.32 -2 6 C-1.34 4.02 -0.68 2.04 0 0 Z " fill="#1B1B1B" transform="translate(147,38)"/>
<path d="M0 0 C0.66 0 1.32 0 2 0 C2.556875 1.2065625 2.556875 1.2065625 3.125 2.4375 C4.69222824 5.13237187 4.69222824 5.13237187 6.97265625 5.5546875 C8.97373565 5.78761738 10.98784139 5.90104138 13 6 C12.83242188 6.58007812 12.66484375 7.16015625 12.4921875 7.7578125 C11.164722 12.8492308 10.70874724 16.03561901 13 21 C11.741875 21.04125 10.48375 21.0825 9.1875 21.125 C6.99010474 21.30764489 6.99010474 21.30764489 5 22 C2.91367303 24.91841857 2.91367303 24.91841857 2 28 C1.34 28 0.68 28 0 28 C-0.33 27.030625 -0.66 26.06125 -1 25.0625 C-2.60746443 21.89278582 -2.60746443 21.89278582 -4.98046875 21.37890625 C-6.97777644 21.14912749 -8.99059814 21.06588203 -11 21 C-10.83242188 20.41992188 -10.66484375 19.83984375 -10.4921875 19.2421875 C-9.164722 14.1507692 -8.70874724 10.96438099 -11 6 C-9.741875 5.938125 -8.48375 5.87625 -7.1875 5.8125 C-4.99117898 5.6157972 -4.99117898 5.6157972 -3 5 C-1.08255407 2.55690423 -1.08255407 2.55690423 0 0 Z " fill="#363636" transform="translate(43,41)"/>
<path d="M0 0 C2.6645814 1.01070329 3.95195872 1.9399484 5.75 4.1875 C7.81989649 8.84476709 7.57601591 12.45385204 5.8125 17.1875 C3.38188862 20.95913835 1.30939655 23.33834295 -3.11328125 24.60546875 C-7.24973055 25.30762233 -9.45183554 25.25856814 -13.3125 23.4375 C-16.71653774 20.35011693 -19.60760625 17.62903814 -20.3125 12.90625 C-20.375 10.75 -20.375 10.75 -20 7 C-19.34 6.34 -18.68 5.68 -18 5 C-17.01 5 -16.02 5 -15 5 C-14.195625 4.896875 -13.39125 4.79375 -12.5625 4.6875 C-10 5 -10 5 -7.8125 7.125 C-5.9742531 10.0408399 -4.92366548 12.69019869 -4 16 C-0.58357241 16.25015873 -0.58357241 16.25015873 3 16 C5.32911899 13.14080976 5.32911899 13.14080976 4.875 9.6875 C3.88426099 5.51224275 2.55547107 3.37981657 0 0 Z " fill="#0C0C0C" transform="translate(52,146)"/>
<path d="M0 0 C3.80625982 1.49531636 5.77940501 3.58980056 8 7 C8.5 9.5 8.5 9.5 8 12 C6.125 14.8125 6.125 14.8125 4 17 C3.34 17 2.68 17 2 17 C2 17.66 2 18.32 2 19 C5.08842997 18.1059808 6.63399045 17.58228792 8.375 14.8125 C9.1567051 11.29482705 8.68853474 8.51152719 8 5 C8.66 5 9.32 5 10 5 C11.81863862 7.67446856 11.99685079 9.08502854 11.875 12.375 C10.9153369 16.35074712 9.55483169 18.82581517 7 22 C6.34 22 5.68 22 5 22 C4.67 22.66 4.34 23.32 4 24 C3.67 23.67 3.34 23.34 3 23 C2.67 23.99 2.34 24.98 2 26 C1.34 26 0.68 26 0 26 C-0.33 25.34 -0.66 24.68 -1 24 C-1.66 24.33 -2.32 24.66 -3 25 C-2.67 23.68 -2.34 22.36 -2 21 C-2.99 21.33 -3.98 21.66 -5 22 C-8.5099925 16.73501125 -10.04285097 13.36139095 -9 7 C-6.1875 4.6875 -6.1875 4.6875 -3 3 C-1.20605554 1.37648891 -1.20605554 1.37648891 0 0 Z " fill="#0C0C0C" transform="translate(168,92)"/>
<path d="M0 0 C5.625 -0.25 5.625 -0.25 9 2 C9.1875 5.125 9.1875 5.125 9 8 C9.99 7.34 10.98 6.68 12 6 C12.99 6 13.98 6 15 6 C15.226875 5.360625 15.45375 4.72125 15.6875 4.0625 C17 2 17 2 19.625 1.25 C20.800625 1.12625 20.800625 1.12625 22 1 C24.78989877 4.71986503 25.48241371 7.53415477 25.28515625 12.0625 C24.8510886 15.01178159 23.99697016 16.79644672 22 19 C19.3125 19.3125 19.3125 19.3125 17 19 C15.14223235 15.86501708 14.79859524 13.62528568 15 10 C13.68 10 12.36 10 11 10 C11.33 10.515625 11.66 11.03125 12 11.5625 C13.34292714 14.8358849 13.25952656 17.49639145 13 21 C11 23 11 23 7.25 23.5625 C4.60792664 23.49512472 3.33191717 23.24023127 1.17578125 21.6796875 C-2.54549239 17.66107238 -3.77845822 14.42777372 -4 9 C-2 12 -2 12 -0.5 15.125 C0.68898301 18.08870808 0.68898301 18.08870808 3 19 C6.04173894 19.16670273 6.04173894 19.16670273 9 19 C9.33 18.67 9.66 18.34 10 18 C9.71269945 15.66055264 9.38063221 13.3260857 9 11 C7.35 11.33 5.7 11.66 4 12 C3.67 11.01 3.34 10.02 3 9 C4.32 8.67 5.64 8.34 7 8 C7 6.35 7 4.7 7 3 C4.69 3 2.38 3 0 3 C0 2.01 0 1.02 0 0 Z " fill="#242424" transform="translate(85,170)"/>
<path d="M0 0 C0 0.66 0 1.32 0 2 C0.66 2 1.32 2 2 2 C2.67511469 5.7068465 3.33858041 9.41568744 4 13.125 C4.19078125 14.17171875 4.3815625 15.2184375 4.578125 16.296875 C4.75859375 17.31523438 4.9390625 18.33359375 5.125 19.3828125 C5.29257813 20.31496582 5.46015625 21.24711914 5.6328125 22.20751953 C6.0221472 25.1684306 6.06158415 28.01701762 6 31 C6.66902344 31.03738281 7.33804688 31.07476562 8.02734375 31.11328125 C17.15511467 31.73813537 26.02292051 33.30882033 35 35 C34.67 35.99 34.34 36.98 34 38 C25.09 36.35 16.18 34.7 7 33 C7 38.61 7 44.22 7 50 C5.68 49.34 4.36 48.68 3 48 C3.495 47.01 3.495 47.01 4 46 C4.33 46.33 4.66 46.66 5 47 C5 42.05 5 37.1 5 32 C3.68 31.67 2.36 31.34 1 31 C1.99 31 2.98 31 4 31 C3.35550919 27.10394334 2.70917197 23.20819517 2.0625 19.3125 C1.78889648 17.65831055 1.78889648 17.65831055 1.50976562 15.97070312 C1.33251953 14.90400391 1.15527344 13.83730469 0.97265625 12.73828125 C0.81031494 11.75899658 0.64797363 10.77971191 0.48071289 9.77075195 C0.02956586 7.1704129 -0.46974671 4.5852427 -1 2 C-8.53367448 6.1258388 -15.72844029 10.19237077 -22.328125 15.75 C-24 17 -24 17 -26 17 C-26 17.66 -26 18.32 -26 19 C-25.38125 19.268125 -24.7625 19.53625 -24.125 19.8125 C-22 21 -22 21 -20 24 C-22.66666667 22.66666667 -25.33333333 21.33333333 -28 20 C-29.65 21.32 -31.3 22.64 -33 24 C-33.66 23.67 -34.32 23.34 -35 23 C-34.175 22.38125 -33.35 21.7625 -32.5 21.125 C-31.675 20.42375 -30.85 19.7225 -30 19 C-30 18.34 -30 17.68 -30 17 C-31.67830483 15.61238591 -31.67830483 15.61238591 -33.8671875 14.25 C-34.67027344 13.7240625 -35.47335938 13.198125 -36.30078125 12.65625 C-37.15027344 12.1096875 -37.99976562 11.563125 -38.875 11 C-40.54036061 9.91866325 -42.20448165 8.83541438 -43.8671875 7.75 C-44.61081543 7.27046875 -45.35444336 6.7909375 -46.12060547 6.296875 C-48 5 -48 5 -50 3 C-43.82878152 3.30174728 -40.27980624 6.37990013 -35.625 10.0625 C-34.88894531 10.63033203 -34.15289062 11.19816406 -33.39453125 11.78320312 C-31.58829392 13.17893197 -29.79076566 14.58451211 -28 16 C-23.74877951 13.21674584 -19.53267881 10.41733167 -15.4609375 7.375 C-14.84814941 6.9217334 -14.23536133 6.4684668 -13.60400391 6.00146484 C-12.38285541 5.09484972 -11.16872905 4.1786868 -9.96240234 3.25244141 C-6.5383234 0.7242927 -4.29859809 -0.5979253 0 0 Z " fill="#292929" transform="translate(123,41)"/>
<path d="M0 0 C4.22701819 4.00783947 7.75001351 8.35050815 11.25 13 C11.79140625 13.69867188 12.3328125 14.39734375 12.890625 15.1171875 C17.6811026 21.46457032 17.6811026 21.46457032 18 26 C32.98935584 20.63510127 32.98935584 20.63510127 45.671875 11.29296875 C47 10 47 10 49 10 C49 12.31 49 14.62 49 17 C27.70546318 28 27.70546318 28 21 28 C21.58910156 29.12019531 22.17820313 30.24039063 22.78515625 31.39453125 C23.54479489 32.86691725 24.3038809 34.33958845 25.0625 35.8125 C25.45244141 36.55048828 25.84238281 37.28847656 26.24414062 38.04882812 C26.79038086 39.11713867 26.79038086 39.11713867 27.34765625 40.20703125 C27.68804932 40.8616333 28.02844238 41.51623535 28.37915039 42.19067383 C29 44 29 44 28 47 C27.01 47.33 26.02 47.66 25 48 C24.49339844 46.55367187 24.49339844 46.55367187 23.9765625 45.078125 C23.52617788 43.80203525 23.07564947 42.52599624 22.625 41.25 C22.29242188 40.29867187 22.29242188 40.29867187 21.953125 39.328125 C20.11791292 33.13411662 20.11791292 33.13411662 15.875 28.75 C15.25625 28.5025 14.6375 28.255 14 28 C14.99 28 15.98 28 17 28 C17 27.01 17 26.02 17 25 C16.34 25 15.68 25 15 25 C13.47821262 22.65004935 12.06549088 20.30755249 10.6875 17.875 C8.42145181 13.89107882 6.20834467 10.11336278 3.20703125 6.6328125 C1 4 1 4 1 2 C0.34 2 -0.32 2 -1 2 C-1.268125 2.61875 -1.53625 3.2375 -1.8125 3.875 C-3 6 -3 6 -6 8 C-4.55746343 4.63408134 -2.66735273 2.48952921 0 0 Z " fill="#161616" transform="translate(142,105)"/>
<path d="M0 0 C0.03738281 0.71285156 0.07476563 1.42570313 0.11328125 2.16015625 C0.51691607 8.04056153 0.92284349 12.90677543 4 18 C8.47153344 20.77248244 12.16110562 21.44156159 17.375 21.6875 C19.24285156 21.78611328 19.24285156 21.78611328 21.1484375 21.88671875 C22.08945312 21.92410156 23.03046875 21.96148437 24 22 C23.65234375 23.921875 23.65234375 23.921875 23 26 C17.4476489 28.84735954 10.68784671 28.99773935 4.71875 27.3828125 C0.18507513 25.47122571 -2.45054609 23.034547 -4.37890625 18.4921875 C-5.63962476 13.43345538 -5.78136915 8.14577339 -5 3 C-2.77018634 0 -2.77018634 0 0 0 Z " fill="#090909" transform="translate(22,157)"/>
<path d="M0 0 C3.36241563 0.45438049 6.04009971 1.35561095 9 3 C9 2.34 9 1.68 9 1 C9.66 1 10.32 1 11 1 C11.33 4.3 11.66 7.6 12 11 C12.99 11 13.98 11 15 11 C15 11.99 15 12.98 15 14 C14.01 14 13.02 14 12 14 C11.67 16.97 11.34 19.94 11 23 C6.05 23.495 6.05 23.495 1 24 C1 24.99 1 25.98 1 27 C0.34 27 -0.32 27 -1 27 C-1 26.01 -1 25.02 -1 24 C-4.3 23.67 -7.6 23.34 -11 23 C-11.33 19.7 -11.66 16.4 -12 13 C-11.34 13 -10.68 13 -10 13 C-9.67 12.34 -9.34 11.68 -9 11 C-7.66667905 13.6666419 -8.32897967 15.16680303 -9 18 C-8.01 18 -7.02 18 -6 18 C-6 18.99 -6 19.98 -6 21 C-4.35 21.33 -2.7 21.66 -1 22 C-1 20.02 -1 18.04 -1 16 C-1.99 15.67 -2.98 15.34 -4 15 C-4 14.34 -4 13.68 -4 13 C-4.66 12.67 -5.32 12.34 -6 12 C-5.01 11.67 -4.02 11.34 -3 11 C-2.67 11.99 -2.34 12.98 -2 14 C-1.01 14.33 -0.02 14.66 1 15 C1 17.31 1 19.62 1 22 C1.99 21.67 2.98 21.34 4 21 C3.67 19.35 3.34 17.7 3 16 C4.65 16 6.3 16 8 16 C8.33 15.34 8.66 14.68 9 14 C7.02 14 5.04 14 3 14 C3 13.01 3 12.02 3 11 C4.98 11 6.96 11 9 11 C8.34 8.69 7.68 6.38 7 4 C4.03 3.505 4.03 3.505 1 3 C1.33 5.31 1.66 7.62 2 10 C0.02 10 -1.96 10 -4 10 C-3.01 9.67 -2.02 9.34 -1 9 C-1.020625 7.700625 -1.04125 6.40125 -1.0625 5.0625 C-1.08399454 3.70834367 -1.07148199 2.35243917 -1 1 C-0.67 0.67 -0.34 0.34 0 0 Z " fill="#191919" transform="translate(147,144)"/>
<path d="M0 0 C0.66 0.33 1.32 0.66 2 1 C-3.24860576 5.12985533 -8.53381887 9.16204304 -14 13 C-13.49290849 18.48644846 -12.08644557 22.47719714 -9.5 27.3125 C-9.17902344 27.93189453 -8.85804687 28.55128906 -8.52734375 29.18945312 C-7.69293789 30.79716818 -6.84722116 32.3990012 -6 34 C-5.67 34.66 -5.34 35.32 -5 36 C-5.99 36 -6.98 36 -8 36 C-8.33 37.32 -8.66 38.64 -9 40 C-18 20.93032787 -18 20.93032787 -18 15 C-19.10859375 15.55429688 -20.2171875 16.10859375 -21.359375 16.6796875 C-25.57291667 18.78645833 -29.78645833 20.89322917 -34 23 C-34.67836914 23.37012207 -35.35673828 23.74024414 -36.05566406 24.12158203 C-38 25 -38 25 -41 25 C-41.66 23.35 -42.32 21.7 -43 20 C-42.26136719 19.84144531 -41.52273437 19.68289062 -40.76171875 19.51953125 C-33.56860918 17.86520745 -26.29683838 15.98348378 -20 12 C-18.67452489 9.95268355 -18.67452489 9.95268355 -18 8 C-17.40977051 8.20431641 -16.81954102 8.40863281 -16.21142578 8.61914062 C-13.00741189 9.17094695 -11.3486513 7.59015567 -8.76953125 5.83984375 C-8.14433594 5.39769531 -7.51914063 4.95554688 -6.875 4.5 C-4.61278521 2.9196748 -2.35796159 1.44196147 0 0 Z " fill="#151515" transform="translate(86,158)"/>
<path d="M0 0 C1.65 0 3.3 0 5 0 C5 2.64 5 5.28 5 8 C7.31 8 9.62 8 12 8 C12 9.65 12 11.3 12 13 C9.69 13 7.38 13 5 13 C5 18.61 5 24.22 5 30 C3.35 30 1.7 30 0 30 C0 24.39 0 18.78 0 13 C-2.31 13 -4.62 13 -7 13 C-7 11.35 -7 9.7 -7 8 C-4.69 8 -2.38 8 0 8 C0 5.36 0 2.72 0 0 Z " fill="#1D1D1D" transform="translate(93,18)"/>
<path d="M0 0 C-0.6496875 0.70576172 -0.6496875 0.70576172 -1.3125 1.42578125 C-1.869375 2.04839844 -2.42625 2.67101562 -3 3.3125 C-3.556875 3.92738281 -4.11375 4.54226562 -4.6875 5.17578125 C-6.29201498 7.03131335 -6.29201498 7.03131335 -6 10 C-7.8125 12.1875 -7.8125 12.1875 -10 14 C-10.99 14 -11.98 14 -13 14 C-15.17032476 15.43990623 -15.17032476 15.43990623 -17 17 C-17.11138159 11.54230189 -16.91657981 6.38490641 -16 1 C-10.63904667 -0.12862175 -5.44693314 -0.09688221 0 0 Z M2 0 C2.99 0 3.98 0 5 0 C5 0.66 5 1.32 5 2 C4.01 2.33 3.02 2.66 2 3 C2 2.01 2 1.02 2 0 Z M-1 3 C-0.34 3.66 0.32 4.32 1 5 C0.01 5.66 -0.98 6.32 -2 7 C-2 4 -2 4 -1 3 Z " fill="#F0F0F0" transform="translate(79,72)"/>
<path d="M0 0 C7.59 0 15.18 0 23 0 C22.01 1.32 21.02 2.64 20 4 C20.33 4.66 20.66 5.32 21 6 C20.06553465 8.03144641 19.06775224 10.03533587 18 12 C18.99 13.485 18.99 13.485 20 15 C16.47967572 15 15.5614657 14.29648649 13 12 C13 11.34 13 10.68 13 10 C12.34 9.814375 11.68 9.62875 11 9.4375 C6.710473 7.38210165 3.36916896 4.33572808 0 1 C0 0.67 0 0.34 0 0 Z " fill="#F7F7F7" transform="translate(84,141)"/>
<path d="M0 0 C-0.33 0.99 -0.66 1.98 -1 3 C-0.01 3.763125 0.98 4.52625 2 5.3125 C3.6875 6.61328125 3.6875 6.61328125 5 8 C5 8.99 5 9.98 5 11 C6.32 11 7.64 11 9 11 C8 14 8 14 5.4375 15.9375 C4.2309375 16.9584375 4.2309375 16.9584375 3 18 C3 19.32 3 20.64 3 22 C2.34 22 1.68 22 1 22 C0.67 20.02 0.34 18.04 0 16 C-2.97 15.01 -5.94 14.02 -9 13 C-8.67 11.35 -8.34 9.7 -8 8 C-8.99 7.67 -9.98 7.34 -11 7 C-9.54634731 5.82750647 -8.08692581 4.66216184 -6.625 3.5 C-5.40683594 2.52546875 -5.40683594 2.52546875 -4.1640625 1.53125 C-2 0 -2 0 0 0 Z " fill="#EEEEEE" transform="translate(93,156)"/>
<path d="M0 0 C0.78246094 -0.01417969 1.56492187 -0.02835937 2.37109375 -0.04296875 C4.5625 0.1875 4.5625 0.1875 7.5625 2.1875 C6.88703125 2.27386719 6.2115625 2.36023438 5.515625 2.44921875 C-0.22331017 3.34118326 -0.22331017 3.34118326 -5.0625 6.375 C-6.8379335 10.00656852 -6.99943629 12.18370393 -6.4375 16.1875 C-4.1787063 20.42778619 -4.1787063 20.42778619 -0.4375 23.1875 C0.93592831 23.2564472 2.31252102 23.27217708 3.6875 23.25 C5.605625 23.2190625 5.605625 23.2190625 7.5625 23.1875 C7.2325 23.8475 6.9025 24.5075 6.5625 25.1875 C2.94319302 26.39393566 0.37018995 26.51018559 -3.4375 26.1875 C-8.30737836 23.75256082 -10.65461438 21.33805847 -12.4375 16.1875 C-13.36879227 9.66845408 -13.36879227 9.66845408 -11.16015625 6.15625 C-7.66936298 1.99119593 -5.54799324 0.04555003 0 0 Z " fill="#0F0F0F" transform="translate(22.4375,92.8125)"/>
<path d="M0 0 C1.1055189 0.93590504 2.20935453 1.87379858 3.3125 2.8125 C4.23482422 3.59560547 4.23482422 3.59560547 5.17578125 4.39453125 C6.85424679 5.87172469 8.43882034 7.40039131 10 9 C9.67 9.66 9.34 10.32 9 11 C8.34 10.34 7.68 9.68 7 9 C7 13.95 7 18.9 7 24 C11.95 24.33 16.9 24.66 22 25 C22 25.33 22 25.66 22 26 C17.38 26 12.76 26 8 26 C8.41572266 28.16949219 8.41572266 28.16949219 8.83984375 30.3828125 C9.20576611 32.29686794 9.57164948 34.21093083 9.9375 36.125 C10.11990234 37.07632813 10.30230469 38.02765625 10.49023438 39.0078125 C11.3794961 43.66431024 12.25124594 48.31831669 13 53 C11.515 53.495 11.515 53.495 10 54 C9.32821737 49.91749118 8.66346058 45.83386883 8 41.75 C7.80921875 40.59113281 7.6184375 39.43226563 7.421875 38.23828125 C7.24140625 37.12324219 7.0609375 36.00820312 6.875 34.859375 C6.70742188 33.83295898 6.53984375 32.80654297 6.3671875 31.74902344 C6 29 6 29 6 25 C5.11699219 24.95101562 4.23398437 24.90203125 3.32421875 24.8515625 C-4.25029197 24.37968106 -11.57192807 23.56141104 -19 22 C-16 20 -16 20 -13.3984375 20.2421875 C-11.90183594 20.55542969 -11.90183594 20.55542969 -10.375 20.875 C-5.11464312 21.87331591 -0.34294228 22.17809808 5 22 C4.93986576 19.41422773 4.85282878 16.8341319 4.75 14.25 C4.73582031 13.52039063 4.72164062 12.79078125 4.70703125 12.0390625 C4.54188999 8.40595478 4.35576134 6.41550752 1.953125 3.609375 C0.98632812 2.81273438 0.98632812 2.81273438 0 2 C0 1.34 0 0.68 0 0 Z " fill="#313131" transform="translate(56,114)"/>
<path d="M0 0 C1.11115605 5.33354906 1.11083416 10.56912592 1 16 C-3.69350812 14.75760079 -5.77517676 12.22992078 -8.66796875 8.55859375 C-9.93649295 6.86950777 -9.93649295 6.86950777 -12 6 C-12 5.34 -12 4.68 -12 4 C-12.66 4 -13.32 4 -14 4 C-14 3.34 -14 2.68 -14 2 C-14.66 2 -15.32 2 -16 2 C-16 1.01 -16 0.02 -16 -1 C-14.41773035 -1.19627391 -12.83410729 -1.38165538 -11.25 -1.5625 C-10.36828125 -1.66691406 -9.4865625 -1.77132812 -8.578125 -1.87890625 C-5.25819586 -2.03484232 -2.95269177 -1.47634589 0 0 Z " fill="#E4E4E4" transform="translate(128,73)"/>
<path d="M0 0 C1.625 1.6875 1.625 1.6875 3 4 C2.34375 6.4140625 2.34375 6.4140625 1 9 C0.39671875 10.31097656 0.39671875 10.31097656 -0.21875 11.6484375 C-0.6415625 12.54820313 -1.064375 13.44796875 -1.5 14.375 C-3.41448921 18.54847353 -4.91097247 22.54488739 -6 27 C-4.68 28.32 -3.36 29.64 -2 31 C-3.98 30.67 -5.96 30.34 -8 30 C-8.66 32.31 -9.32 34.62 -10 37 C-10.33 37 -10.66 37 -11 37 C-11 34.03 -11 31.06 -11 28 C-15.455 26.02 -15.455 26.02 -20 24 C-19.505 22.515 -19.505 22.515 -19 21 C-15.04179141 21.56545837 -12.3340947 22.80902348 -9 25 C-8.814375 23.845 -8.62875 22.69 -8.4375 21.5 C-6.80113541 13.94848045 -3.20658818 6.98761863 0 0 Z " fill="#161616" transform="translate(77,13)"/>
<path d="M0 0 C0.66 0 1.32 0 2 0 C2.66 0.99 3.32 1.98 4 3 C4.99 2.67 5.98 2.34 7 2 C6.67 3.65 6.34 5.3 6 7 C7.32 7.33 8.64 7.66 10 8 C9.01 8.33 8.02 8.66 7 9 C7 9.99 7 10.98 7 12 C7.66 12 8.32 12 9 12 C9 12.66 9 13.32 9 14 C7.68 14 6.36 14 5 14 C4.01 15.485 4.01 15.485 3 17 C-1 17 -1 17 -2.5625 15.5625 C-3.036875 15.046875 -3.51125 14.53125 -4 14 C-4.99 13.67 -5.98 13.34 -7 13 C-6.34 11.68 -5.68 10.36 -5 9 C-5.99 8.67 -6.98 8.34 -8 8 C-6.68 7.67 -5.36 7.34 -4 7 C-4.33 5.35 -4.66 3.7 -5 2 C-3.68 2.33 -2.36 2.66 -1 3 C-0.67 2.01 -0.34 1.02 0 0 Z " fill="#ECECEC" transform="translate(147,44)"/>
<path d="M0 0 C6.86952601 5.0066037 12.45716174 9.76510943 17 17 C15.64595503 17.02763357 14.29173445 17.04667422 12.9375 17.0625 C12.18339844 17.07410156 11.42929688 17.08570313 10.65234375 17.09765625 C7.41635123 16.97851072 4.20563978 16.45794854 1 16 C0.67 10.72 0.34 5.44 0 0 Z " fill="#E2E2E2" transform="translate(62,122)"/>
<path d="M0 0 C4.97209562 1.76429199 9.43438061 4.3939166 14 7 C14.474375 6.175 14.94875 5.35 15.4375 4.5 C15.953125 3.675 16.46875 2.85 17 2 C17.33 2 17.66 2 18 2 C18 4.31 18 6.62 18 9 C18.99902344 9.37511719 19.99804688 9.75023437 21.02734375 10.13671875 C22.33113979 10.65260927 23.63450338 11.16959367 24.9375 11.6875 C25.59685547 11.93177734 26.25621094 12.17605469 26.93554688 12.42773438 C28.83984375 13.19921875 28.83984375 13.19921875 32 15 C32.94140625 17.70703125 32.94140625 17.70703125 33 20 C26.83643195 18.3341708 21.51740344 15.12194714 16 12 C15.67 14.31 15.34 16.62 15 19 C13.35 19.66 11.7 20.32 10 21 C11.485 15.555 11.485 15.555 13 10 C12.22914062 9.52949219 11.45828125 9.05898437 10.6640625 8.57421875 C9.66117188 7.95160156 8.65828125 7.32898438 7.625 6.6875 C6.62726563 6.07261719 5.62953125 5.45773438 4.6015625 4.82421875 C2 3 2 3 0 0 Z " fill="#181818" transform="translate(107,161)"/>
<path d="M0 0 C3.875 1.875 3.875 1.875 5 3 C7.0708472 3.1584265 9.14678029 3.25124422 11.22265625 3.31640625 C12.48271484 3.35830078 13.74277344 3.40019531 15.04101562 3.44335938 C16.38150736 3.48317596 17.7220022 3.52288814 19.0625 3.5625 C20.40691523 3.60568042 21.7513166 3.64929456 23.09570312 3.69335938 C26.3970234 3.79985358 29.69842236 3.9018646 33 4 C32.67 4.66 32.34 5.32 32 6 C24.41 6.33 16.82 6.66 9 7 C10.44375 8.155 11.8875 9.31 13.375 10.5 C14.73431641 11.58861328 14.73431641 11.58861328 16.12109375 12.69921875 C18.00605797 14.20565555 19.89397372 15.70840835 21.78515625 17.20703125 C23.09806641 18.24923828 23.09806641 18.24923828 24.4375 19.3125 C25.24058594 19.94800781 26.04367188 20.58351562 26.87109375 21.23828125 C28.69432355 22.74704573 30.36550915 24.29193078 32 26 C28.19654123 26 27.22298985 24.86213669 24.3125 22.5 C23.50425781 21.8503125 22.69601563 21.200625 21.86328125 20.53125 C21.24839844 20.0259375 20.63351563 19.520625 20 19 C17.36 20.65 14.72 22.3 12 24 C11.67 23.34 11.34 22.68 11 22 C11.969375 21.38125 12.93875 20.7625 13.9375 20.125 C17.02835362 18.34321154 17.02835362 18.34321154 18 16 C17.12794922 15.61521484 17.12794922 15.61521484 16.23828125 15.22265625 C13.80634601 13.89421693 12.16663168 12.36826187 10.1875 10.4375 C6.41659821 7.0274162 4.04200847 6.10504184 -1 6 C-0.01 5.01 0.98 4.02 2 3 C1.34 2.01 0.68 1.02 0 0 Z " fill="#606060" transform="translate(76,135)"/>
<path d="M0 0 C3.96 0.33 7.92 0.66 12 1 C12.97796553 4.9118621 13.2226431 7.99242418 13 12 C11 14 11 14 8 15 C7.46375 14.071875 6.9275 13.14375 6.375 12.1875 C3.82105369 8.75983521 1.90189922 7.5962315 -2 6 C-1.34 4.02 -0.68 2.04 0 0 Z " fill="#F6F6F6" transform="translate(50,138)"/>
<path d="M0 0 C0.4846875 0.37511719 0.969375 0.75023438 1.46875 1.13671875 C10.46418403 8.00438665 19.54952776 12.7288098 30 17 C29.67 17.66 29.34 18.32 29 19 C20.05312783 17.95144938 6.26722526 15.14083848 0 8 C-0.67172587 5.04881093 -0.41535162 3.06321819 0 0 Z " fill="#171717" transform="translate(0,114)"/>
<path d="M0 0 C0.66 0 1.32 0 2 0 C2 2.31 2 4.62 2 7 C-19.29453682 18 -19.29453682 18 -26 18 C-26 17.01 -26 16.02 -26 15 C-24.94941406 14.57589844 -23.89882812 14.15179688 -22.81640625 13.71484375 C-14.28752896 10.18306197 -6.63409101 6.63409101 0 0 Z " fill="#0F0F0F" transform="translate(189,115)"/>
<path d="M0 0 C5.625 -0.25 5.625 -0.25 9 2 C9.1875 5.125 9.1875 5.125 9 8 C9.99 7.67 10.98 7.34 12 7 C12.22127098 9.29045368 12.4266504 11.58244764 12.625 13.875 C12.79902344 15.78925781 12.79902344 15.78925781 12.9765625 17.7421875 C12.98429687 18.81726563 12.99203125 19.89234375 13 21 C11 23 11 23 7.25 23.5625 C4.60792664 23.49512472 3.33191717 23.24023127 1.17578125 21.6796875 C-2.54549239 17.66107238 -3.77845822 14.42777372 -4 9 C-2 12 -2 12 -0.5 15.125 C0.68898301 18.08870808 0.68898301 18.08870808 3 19 C6.04173894 19.16670273 6.04173894 19.16670273 9 19 C9.33 18.67 9.66 18.34 10 18 C9.71269945 15.66055264 9.38063221 13.3260857 9 11 C7.35 11.33 5.7 11.66 4 12 C3.67 11.01 3.34 10.02 3 9 C4.32 8.67 5.64 8.34 7 8 C7 6.35 7 4.7 7 3 C4.69 3 2.38 3 0 3 C0 2.01 0 1.02 0 0 Z " fill="#232323" transform="translate(85,170)"/>
<path d="M0 0 C3.62819486 3.62819486 6.79441627 7.06171141 10 11 C7.5635551 15.46681566 4.52231888 19.34058488 1 23 C0.67 23 0.34 23 0 23 C0 15.41 0 7.82 0 0 Z " fill="#F6F6F6" transform="translate(131,94)"/>
<path d="M0 0 C0.66 0.99 1.32 1.98 2 3 C0.41845837 5.23045661 -1.16516641 7.45938423 -2.75 9.6875 C-3.1934375 10.31333984 -3.636875 10.93917969 -4.09375 11.58398438 C-11.3580163 21.78600543 -11.3580163 21.78600543 -15 23 C-17.97 19.37 -20.94 15.74 -24 12 C-24.33 19.59 -24.66 27.18 -25 35 C-25.99 35.495 -25.99 35.495 -27 36 C-27 26.76 -27 17.52 -27 8 C-23.14654122 9.92672939 -21.5208493 11.33917932 -18.75 14.5 C-18.04359375 15.2940625 -17.3371875 16.088125 -16.609375 16.90625 C-15 19 -15 19 -15 21 C-8.43305447 15.22904786 -4.44063336 7.42796853 0 0 Z " fill="#4F4F4F" transform="translate(156,83)"/>
<path d="M0 0 C0.33 0 0.66 0 1 0 C1 7.59 1 15.18 1 23 C-2.62819486 19.37180514 -5.79441627 15.93828859 -9 12 C-6.2534186 7.72754004 -3.36007505 3.81413925 0 0 Z " fill="#F7F7F7" transform="translate(59,94)"/>
<path d="M0 0 C4.46681566 2.4364449 8.34058488 5.47768112 12 9 C12 9.33 12 9.66 12 10 C4.41 10 -3.18 10 -11 10 C-7.27419609 5.34274511 -4.76861112 3.2096421 0 0 Z " fill="#F6F6F6" transform="translate(95,60)"/>
<path d="M0 0 C1 2 1 2 0.8125 4.8125 C1.05100696 8.86711831 1.99126999 10.30797841 5 13 C8.50226752 13.42884908 10.65521839 13.1149272 14 12 C16.45297884 7.82993597 15.90765496 4.6290403 15 0 C15.66 0 16.32 0 17 0 C18.81863862 2.67446856 18.99685079 4.08502854 18.875 7.375 C17.9153369 11.35074712 16.55483169 13.82581517 14 17 C13.34 17 12.68 17 12 17 C11.67 17.66 11.34 18.32 11 19 C10.67 18.67 10.34 18.34 10 18 C9.67 18.99 9.34 19.98 9 21 C8.34 21 7.68 21 7 21 C6.67 20.34 6.34 19.68 6 19 C5.34 19.33 4.68 19.66 4 20 C4.33 18.68 4.66 17.36 5 16 C4.01 16.33 3.02 16.66 2 17 C-1.56483487 11.65274769 -2.65460854 8.43698402 -2 2 C-1.34 1.34 -0.68 0.68 0 0 Z " fill="#202020" transform="translate(161,97)"/>
<path d="M0 0 C0.33 0 0.66 0 1 0 C1.33 4.62 1.66 9.24 2 14 C4.4440625 14.1546875 4.4440625 14.1546875 6.9375 14.3125 C15.05649497 14.97368761 23.00409299 16.49366207 31 18 C30.505 19.485 30.505 19.485 30 21 C21.09 19.35 12.18 17.7 3 16 C3 21.61 3 27.22 3 33 C1.68 32.34 0.36 31.68 -1 31 C-0.67 30.34 -0.34 29.68 0 29 C0.33 29.33 0.66 29.66 1 30 C1 25.05 1 20.1 1 15 C-0.32 14.67 -1.64 14.34 -3 14 C-2.01 14 -1.02 14 0 14 C-0.08378906 13.24074219 -0.16757813 12.48148438 -0.25390625 11.69921875 C-0.35574219 10.70535156 -0.45757812 9.71148437 -0.5625 8.6875 C-0.66691406 7.70136719 -0.77132812 6.71523437 -0.87890625 5.69921875 C-1 3 -1 3 0 0 Z " fill="#323232" transform="translate(127,58)"/>
<path d="M0 0 C2.875 0.25 2.875 0.25 6 1 C7.86790938 3.54714915 8 4.80869 8 8 C6.02 8 4.04 8 2 8 C2 8.99 2 9.98 2 11 C3.98 11 5.96 11 8 11 C7.67 11.99 7.34 12.98 7 14 C5.68 14 4.36 14 3 14 C3.33 15.32 3.66 16.64 4 18 C2.68 18.33 1.36 18.66 0 19 C0 16.69 0 14.38 0 12 C-0.99 12 -1.98 12 -3 12 C-2.625 9.5625 -2.625 9.5625 -2 7 C-1.34 6.67 -0.68 6.34 0 6 C0 4.02 0 2.04 0 0 Z " fill="#9F9F9F" transform="translate(148,147)"/>
<path d="M0 0 C2.9375 -0.4375 2.9375 -0.4375 6 0 C7.9375 1.6875 7.9375 1.6875 9 4 C8.75925978 7.37036311 8.41201979 8.58798021 6 11 C2.375 11.125 2.375 11.125 -1 11 C-2.34110539 8.79112053 -3.06609767 7.54530581 -2.75 4.9375 C-2 3 -2 3 0 0 Z " fill="#EEEEEE" transform="translate(41,49)"/>
<path d="M0 0 C0.66 0.33 1.32 0.66 2 1 C2.625 3.0625 2.625 3.0625 3 5 C-14.87896254 17 -14.87896254 17 -22 17 C-22.66 15.35 -23.32 13.7 -24 12 C-23.26136719 11.84144531 -22.52273437 11.68289062 -21.76171875 11.51953125 C-14.62945489 9.87920119 -7.17233157 8.08786688 -1 4 C-0.1333449 1.93237909 -0.1333449 1.93237909 0 0 Z " fill="#101010" transform="translate(67,166)"/>
<path d="M0 0 C2.475 0.99 2.475 0.99 5 2 C4.67 4.31 4.34 6.62 4 9 C3.01 9.33 2.02 9.66 1 10 C1.66 10.33 2.32 10.66 3 11 C2.67 12.32 2.34 13.64 2 15 C2.99 15.66 3.98 16.32 5 17 C5 17.99 5 18.98 5 20 C5.99 20 6.98 20 8 20 C6.25 23.875 6.25 23.875 4 25 C4 22.69 4 20.38 4 18 C0.04 18.495 0.04 18.495 -4 19 C-2.68 16.69 -1.36 14.38 0 12 C-2.475 11.01 -2.475 11.01 -5 10 C-5 9.34 -5 8.68 -5 8 C-3.02 7.67 -1.04 7.34 1 7 C0.67 4.69 0.34 2.38 0 0 Z " fill="#1D1D1D" transform="translate(139,42)"/>
<path d="M0 0 C-2.47740912 2.73512618 -5.24093031 4.50983248 -8.375 6.4375 C-12.13203398 8.75071514 -15.59905839 11.18649376 -19 14 C-19 11.36 -19 8.72 -19 6 C-16.77890472 4.7947778 -14.5502135 3.61112596 -12.3125 2.4375 C-11.68666016 2.09525391 -11.06082031 1.75300781 -10.41601562 1.40039062 C-6.54907986 -0.60393733 -4.18405921 -1.46402072 0 0 Z " fill="#1B1B1B" transform="translate(19,83)"/>
<path d="M0 0 C0.66 0.66 1.32 1.32 2 2 C1.625 4.625 1.625 4.625 1 7 C1.99 7 2.98 7 4 7 C4 7.99 4 8.98 4 10 C5.65 10.33 7.3 10.66 9 11 C9 9.02 9 7.04 9 5 C8.01 4.67 7.02 4.34 6 4 C6 3.34 6 2.68 6 2 C5.34 1.67 4.68 1.34 4 1 C4.99 0.67 5.98 0.34 7 0 C7.33 0.99 7.66 1.98 8 3 C8.99 3.33 9.98 3.66 11 4 C11 6.31 11 8.62 11 11 C11.99 11 12.98 11 14 11 C14 11.66 14 12.32 14 13 C13.01 13 12.02 13 11 13 C11 13.99 11 14.98 11 16 C10.34 16 9.68 16 9 16 C9 15.01 9 14.02 9 13 C5.7 12.67 2.4 12.34 -1 12 C-1.33 8.7 -1.66 5.4 -2 2 C-1.34 2 -0.68 2 0 2 C0 1.34 0 0.68 0 0 Z " fill="#030303" transform="translate(137,155)"/>
<path d="M0 0 C0 0.99 0 1.98 0 3 C-0.33 3.33 -0.66 3.66 -1 4 C5.6 4 12.2 4 19 4 C18.01 2.68 17.02 1.36 16 0 C19.7336293 1.67369589 19.7336293 1.67369589 21.25 3.53125 C23.78320845 5.65733566 25.9295764 5.51234282 29.1875 5.6875 C30.27417969 5.75324219 31.36085937 5.81898437 32.48046875 5.88671875 C33.72763672 5.94279297 33.72763672 5.94279297 35 6 C35 6.33 35 6.66 35 7 C26.21473531 8.09858767 17.64423537 7.94610508 8.8125 7.5625 C7.46552046 7.50911411 6.11851509 7.45637575 4.77148438 7.40429688 C1.51401278 7.2758661 -1.74305095 7.14096717 -5 7 C-4.2578125 3.21875 -4.2578125 3.21875 -1.9375 1.25 C-1.298125 0.8375 -0.65875 0.425 0 0 Z " fill="#6E6E6E" transform="translate(87,65)"/>
<path d="M0 0 C3.66060821 0.58536753 5.54535164 2.083239 8.25 4.5625 C8.95640625 5.20316406 9.6628125 5.84382812 10.390625 6.50390625 C10.92171875 6.99761719 11.4528125 7.49132812 12 8 C11.67 9.65 11.34 11.3 11 13 C9.68 13.33 8.36 13.66 7 14 C0.13785558 7.10284464 0.13785558 7.10284464 -0.4375 2.5 C-0.293125 1.675 -0.14875 0.85 0 0 Z " fill="#0E0E0E" transform="translate(78,194)"/>
<path d="M0 0 C1.32 0.33 2.64 0.66 4 1 C2.26017005 6.81261371 0.1889511 11.83169994 -3 17 C-2.01 17.33 -1.02 17.66 0 18 C-0.556875 18.2475 -1.11375 18.495 -1.6875 18.75 C-4.39971127 20.21606015 -6.63587365 22.02989471 -9 24 C-8.979375 23.05125 -8.95875 22.1025 -8.9375 21.125 C-8.77448174 18.09333717 -8.77448174 18.09333717 -10 16 C-9.11054688 15.98646484 -9.11054688 15.98646484 -8.203125 15.97265625 C-5.60374093 15.10371893 -5.60374093 15.10371893 -4.296875 11.62109375 C-3.76537012 10.23253726 -3.25030889 8.83759912 -2.75 7.4375 C-2.3478125 6.37112305 -2.3478125 6.37112305 -1.9375 5.28320312 C-1.2775869 3.52736291 -0.63693359 1.76430603 0 0 Z " fill="#171717" transform="translate(166,61)"/>
<path d="M0 0 C0.66 0.33 1.32 0.66 2 1 C1.67 1.33 1.34 1.66 1 2 C0.76298761 4.85877909 0.57780818 7.69883297 0.4375 10.5625 C0.39431641 11.36880859 0.35113281 12.17511719 0.30664062 13.00585938 C0.20024738 15.00368805 0.09959112 17.0018207 0 19 C-3.32141645 17.4353658 -5.1786641 16.27840462 -7 13 C-7.1875 9.75 -7.1875 9.75 -7 7 C-6.34 7 -5.68 7 -5 7 C-4.731875 6.401875 -4.46375 5.80375 -4.1875 5.1875 C-3.01506533 3.02775192 -1.80630718 1.64209744 0 0 Z " fill="#2B2B2B" transform="translate(168,92)"/>
<path d="M0 0 C0.33 0.66 0.66 1.32 1 2 C1.98742188 1.91621094 2.97484375 1.83242188 3.9921875 1.74609375 C5.27351563 1.64425781 6.55484375 1.54242188 7.875 1.4375 C9.78925781 1.28087891 9.78925781 1.28087891 11.7421875 1.12109375 C15 1 15 1 17 2 C17 2.66 17 3.32 17 4 C15.741875 4.04125 14.48375 4.0825 13.1875 4.125 C10.99010474 4.30764489 10.99010474 4.30764489 9 5 C6.91367303 7.91841857 6.91367303 7.91841857 6 11 C5.34 11 4.68 11 4 11 C3.67 10.030625 3.34 9.06125 3 8.0625 C1.39253557 4.89278582 1.39253557 4.89278582 -0.98046875 4.37890625 C-2.97777644 4.14912749 -4.99059814 4.06588203 -7 4 C-7 3.34 -7 2.68 -7 2 C-4.69 2 -2.38 2 0 2 C0 1.34 0 0.68 0 0 Z " fill="#212121" transform="translate(39,58)"/>
<path d="M0 0 C0.33 0.66 0.66 1.32 1 2 C0.01 2 -0.98 2 -2 2 C-0.68 2.66 0.64 3.32 2 4 C1.34 4 0.68 4 0 4 C-0.33 5.98 -0.66 7.96 -1 10 C-4.10551666 10 -5.35261084 9.4606285 -8 8 C-8.33 8.66 -8.66 9.32 -9 10 C-9 7.36 -9 4.72 -9 2 C-9.66 1.67 -10.32 1.34 -11 1 C-3.29268293 -1.51969981 -3.29268293 -1.51969981 0 0 Z " fill="#EBEBEB" transform="translate(147,34)"/>
<path d="M0 0 C0.66 0.33 1.32 0.66 2 1 C4.3400417 0.71758117 6.67504723 0.38749213 9 0 C8.875 3.25 8.875 3.25 8 7 C5.40760595 9.09597817 2.96240263 10.51879869 0 12 C-1.12256131 9.75487738 -1.13413762 8.48543351 -1.125 6 C-1.12886719 4.948125 -1.12886719 4.948125 -1.1328125 3.875 C-1 2 -1 2 0 0 Z " fill="#303030" transform="translate(33,151)"/>
<path d="M0 0 C0.63019694 8.19256018 0.63019694 8.19256018 -2 11.5625 C-2.66 12.036875 -3.32 12.51125 -4 13 C-4.99 12.34 -5.98 11.68 -7 11 C-6.34 11 -5.68 11 -5 11 C-5.66 10.01 -6.32 9.02 -7 8 C-9.64 10.64 -12.28 13.28 -15 16 C-15.66 15.67 -16.32 15.34 -17 15 C-14.71240451 12.68344197 -12.41925113 10.37246517 -10.125 8.0625 C-9.47402344 7.40314453 -8.82304688 6.74378906 -8.15234375 6.06445312 C-7.52714844 5.43603516 -6.90195313 4.80761719 -6.2578125 4.16015625 C-5.6817627 3.57886963 -5.10571289 2.99758301 -4.51220703 2.39868164 C-1.918834 0 -1.918834 0 0 0 Z " fill="#B8B8B8" transform="translate(129,122)"/>
<path d="M0 0 C0.99 0 1.98 0 3 0 C3.81571218 2.56151683 4.62766131 5.12412628 5.4375 7.6875 C5.66759766 8.40873047 5.89769531 9.12996094 6.13476562 9.87304688 C7.2969767 13.56180375 8.34442773 17.17959607 9 21 C6 20 6 20 4.92504883 18.44946289 C4.60560303 17.7971167 4.28615723 17.14477051 3.95703125 16.47265625 C3.60576172 15.76302734 3.25449219 15.05339844 2.89257812 14.32226562 C2.53615234 13.57654297 2.17972656 12.83082031 1.8125 12.0625 C1.44447266 11.32064453 1.07644531 10.57878906 0.69726562 9.81445312 C-2 4.29481679 -2 4.29481679 -2 2 C-1.34 2 -0.68 2 0 2 C0 1.34 0 0.68 0 0 Z " fill="#1E1E1E" transform="translate(21,56)"/>
<path d="M0 0 C0.66 0 1.32 0 2 0 C2.99 1.98 3.98 3.96 5 6 C5.61875 5.505 6.2375 5.01 6.875 4.5 C9 3 9 3 11 3 C10.01 6.3 9.02 9.6 8 13 C7.34 13 6.68 13 6 13 C6.33 11.35 6.66 9.7 7 8 C5.02 8.99 5.02 8.99 3 10 C2.67 8.68 2.34 7.36 2 6 C1.34 6 0.68 6 0 6 C-0.33 7.32 -0.66 8.64 -1 10 C-1.99 9.01 -2.98 8.02 -4 7 C-3.34 6.67 -2.68 6.34 -2 6 C-1.27306096 4.02111039 -0.60183749 2.02045442 0 0 Z " fill="#1A1A1A" transform="translate(147,38)"/>
<path d="M0 0 C3.42039001 2.28026001 3.12406247 2.3867577 4 6 C4.515625 6.45375 5.03125 6.9075 5.5625 7.375 C7 9 7 9 7.1875 12.1875 C7.125625 13.115625 7.06375 14.04375 7 15 C5.35 14.67 3.7 14.34 2 14 C2 13.01 2 12.02 2 11 C1.01 11 0.02 11 -1 11 C-1.02688151 9.35425434 -1.04634123 7.70838587 -1.0625 6.0625 C-1.07410156 5.14597656 -1.08570313 4.22945312 -1.09765625 3.28515625 C-1 1 -1 1 0 0 Z " fill="#989898" transform="translate(139,151)"/>
<path d="M0 0 C3.53571429 0.53571429 3.53571429 0.53571429 5 2 C5.27314815 7.73611111 5.27314815 7.73611111 5 10 C4.34 10.66 3.68 11.32 3 12 C0.875 11.625 0.875 11.625 -1 11 C-1.22174933 9.54364629 -1.42698698 8.08477044 -1.625 6.625 C-1.74101563 5.81289062 -1.85703125 5.00078125 -1.9765625 4.1640625 C-1.98429687 3.44992188 -1.99203125 2.73578125 -2 2 C-1.34 1.34 -0.68 0.68 0 0 Z " fill="#F4F4F4" transform="translate(103,174)"/>
<path d="M0 0 C4.32448087 4.06773989 7.79990263 8.53656263 11.3125 13.3125 C12.13717773 14.42334961 12.13717773 14.42334961 12.97851562 15.55664062 C14.32272179 17.36839676 15.66308744 19.182859 17 21 C16.34 22.32 15.68 23.64 15 25 C14.40832031 23.98679688 13.81664062 22.97359375 13.20703125 21.9296875 C12.40913579 20.57795872 11.61094279 19.22640555 10.8125 17.875 C10.42513672 17.20984375 10.03777344 16.5446875 9.63867188 15.859375 C7.68660867 12.56829324 5.70034541 9.53535455 3.19921875 6.6328125 C1 4 1 4 1 2 C0.34 2 -0.32 2 -1 2 C-1.268125 2.61875 -1.53625 3.2375 -1.8125 3.875 C-3 6 -3 6 -6 8 C-4.55746343 4.63408134 -2.66735273 2.48952921 0 0 Z " fill="#2B2B2B" transform="translate(142,105)"/>
<path d="M0 0 C0.99 0.33 1.98 0.66 3 1 C3.625 4.375 3.625 4.375 4 8 C2 10 2 10 -0.9375 10.25 C-4 10 -4 10 -7 8 C-7.1875 5.375 -7.1875 5.375 -7 3 C-6.01 4.485 -6.01 4.485 -5 6 C-3.68 5.67 -2.36 5.34 -1 5 C-1.66 4.01 -2.32 3.02 -3 2 C-2.01 1.34 -1.02 0.68 0 0 Z " fill="#EBEBEB" transform="translate(92,180)"/>
<path d="M0 0 C0 4.38968456 -2.12805101 5.76905739 -5 9 C-4.54625 9.7425 -4.0925 10.485 -3.625 11.25 C-2.31359204 13.46930578 -1.11719197 15.67967822 0 18 C-2.04119788 16.38405168 -4.04072937 14.7143618 -6 13 C-6 12.34 -6 11.68 -6 11 C-6.66 11 -7.32 11 -8 11 C-8.2475 11.53625 -8.495 12.0725 -8.75 12.625 C-10.29696975 15.56424252 -12.13014369 18.25754408 -14 21 C-14.66 20.34 -15.32 19.68 -16 19 C-15.48308594 18.40832031 -14.96617188 17.81664063 -14.43359375 17.20703125 C-13.77488281 16.41683594 -13.11617187 15.62664062 -12.4375 14.8125 C-11.44556641 13.64654297 -11.44556641 13.64654297 -10.43359375 12.45703125 C-8.71551594 10.06640431 -8.71551594 10.06640431 -9.28515625 7.19921875 C-9.52105469 6.47347656 -9.75695313 5.74773437 -10 5 C-9.34 5.33 -8.68 5.66 -8 6 C-8 6.66 -8 7.32 -8 8 C-7.236875 7.236875 -6.47375 6.47375 -5.6875 5.6875 C-3.79166667 3.79166667 -1.89583333 1.89583333 0 0 Z " fill="#303030" transform="translate(56,96)"/>
<path d="M0 0 C1 3.875 1 3.875 1 5 C-2.68427919 5.70555768 -6.37275512 6.38615838 -10.0625 7.0625 C-11.10083984 7.26166016 -12.13917969 7.46082031 -13.20898438 7.66601562 C-18.81266349 8.6800147 -23.42141899 9.25814806 -29 8 C-29 7.67 -29 7.34 -29 7 C-27.11667969 6.70996094 -27.11667969 6.70996094 -25.1953125 6.4140625 C-16.75896605 5.10469842 -8.35263993 3.7800708 0 2 C0 1.34 0 0.68 0 0 Z " fill="#393939" transform="translate(158,130)"/>
<path d="M0 0 C0.66 0.33 1.32 0.66 2 1 C0.64730134 2.06436833 -0.70725216 3.12637941 -2.0625 4.1875 C-2.87976563 4.82816406 -3.69703125 5.46882812 -4.5390625 6.12890625 C-6.62897462 7.71790292 -8.74841808 9.179467 -10.9375 10.625 C-14.02201641 13.01707395 -15.0438419 14.28160739 -16 18 C-16.66 18 -17.32 18 -18 18 C-18.85908818 15.5945531 -19.1520119 14.40799049 -18.24609375 11.9765625 C-16.80760422 9.69482048 -15.88886345 9.16497237 -13.4375 8.125 C-8.60951285 5.910327 -4.353876 3.023525 0 0 Z " fill="#202020" transform="translate(86,158)"/>
<path d="M0 0 C2.64 0 5.28 0 8 0 C7.34 0.66 6.68 1.32 6 2 C5.01 2 4.02 2 3 2 C3.95865509 4.33075929 3.95865509 4.33075929 7 6 C7.1875 9.625 7.1875 9.625 7 13 C5.02 13 3.04 13 1 13 C1.20625 11.96875 1.4125 10.9375 1.625 9.875 C2.01194403 5.8765784 1.51883076 3.66306243 0 0 Z " fill="#454545" transform="translate(32,47)"/>
<path d="M0 0 C0.66 0 1.32 0 2 0 C3.5056121 7.02618978 2.64057643 13.89452919 2 21 C1.67 21 1.34 21 1 21 C1 17.37 1 13.74 1 10 C-1.475 11.485 -1.475 11.485 -4 13 C-3.52343588 11.20763933 -3.04366502 9.41613103 -2.5625 7.625 C-2.29566406 6.62726563 -2.02882813 5.62953125 -1.75390625 4.6015625 C-1 2 -1 2 0 0 Z " fill="#2A2A2A" transform="translate(21,147)"/>
<path d="M0 0 C2.25 0.125 2.25 0.125 5 1 C7.3125 4.0625 7.3125 4.0625 9 7 C8.01 7.495 8.01 7.495 7 8 C7 7.34 7 6.68 7 6 C6.01 6 5.02 6 4 6 C4.515625 6.4125 5.03125 6.825 5.5625 7.25 C6.036875 7.8275 6.51125 8.405 7 9 C6.58984375 11.109375 6.58984375 11.109375 6 13 C4.98528829 11.78294994 3.9887539 10.55073116 3 9.3125 C2.443125 8.62800781 1.88625 7.94351563 1.3125 7.23828125 C-0.22741897 4.61216944 -0.25168194 2.99396644 0 0 Z " fill="#EDEDED" transform="translate(78,185)"/>
<path d="M0 0 C1.27609323 0.90933009 2.54565553 1.82782853 3.8125 2.75 C4.87404297 3.51570313 4.87404297 3.51570313 5.95703125 4.296875 C8.02977691 6.02482358 9.47375854 7.78526476 11 10 C7.59068103 11.13643966 6.99664544 10.86747764 3.8125 9.5625 C3.09707031 9.27503906 2.38164063 8.98757812 1.64453125 8.69140625 C1.10183594 8.46324219 0.55914062 8.23507813 0 8 C0 5.36 0 2.72 0 0 Z " fill="#131313" transform="translate(0,114)"/>
<path d="M0 0 C0.598125 0.78375 1.19625 1.5675 1.8125 2.375 C4.76213803 5.92208919 4.76213803 5.92208919 9.04296875 7.1953125 C9.75066406 7.17210938 10.45835938 7.14890625 11.1875 7.125 C12.445625 7.08375 13.70375 7.0425 15 7 C14.67 7.66 14.34 8.32 14 9 C10.38069302 10.20643566 7.80768995 10.32268559 4 10 C0.5625 8 0.5625 8 -2 6 C-1.34 4.02 -0.68 2.04 0 0 Z " fill="#202020" transform="translate(15,109)"/>
<path d="M0 0 C0 0.99 0 1.98 0 3 C-0.64582031 3.55429688 -1.29164063 4.10859375 -1.95703125 4.6796875 C-4.80547484 7.91482228 -4.63227744 11.00907849 -4.6875 15.125 C-4.91235902 22.82471805 -4.91235902 22.82471805 -6 25 C-4.68 25.33 -3.36 25.66 -2 26 C-3.32 26 -4.64 26 -6 26 C-6.33 26.66 -6.66 27.32 -7 28 C-7 27.34 -7 26.68 -7 26 C-7.99 25.67 -8.98 25.34 -10 25 C-9.01 25 -8.02 25 -7 25 C-7 23.95199219 -7 22.90398437 -7 21.82421875 C-7 7 -7 7 -5.46875 5.17578125 C-4.8190625 4.56089844 -4.169375 3.94601563 -3.5 3.3125 C-2.8503125 2.68988281 -2.200625 2.06726563 -1.53125 1.42578125 C-1.0259375 0.95527344 -0.520625 0.48476562 0 0 Z " fill="#262626" transform="translate(135,113)"/>
<path d="M0 0 C0.4125 0.495 0.825 0.99 1.25 1.5 C3.12202338 3.43386092 3.12202338 3.43386092 7 3 C7.66 2.01 8.32 1.02 9 0 C9.66 0.33 10.32 0.66 11 1 C11 4 11 7 11 10 C9.66666667 9.33333333 8.33333333 8.66666667 7 8 C5.948125 7.566875 4.89625 7.13375 3.8125 6.6875 C1 5 1 5 0.125 2.3125 C0.08375 1.549375 0.0425 0.78625 0 0 Z " fill="#353535" transform="translate(143,57)"/>
<path d="M0 0 C2 3 2 3 3.5 6.125 C4.68898301 9.08870808 4.68898301 9.08870808 7 10 C8.99954746 10.04254356 11.00041636 10.04080783 13 10 C13.99 10 14.98 10 16 10 C15.34 10.66 14.68 11.32 14 12 C14.33 12.66 14.66 13.32 15 14 C8.15339686 14.82631417 8.15339686 14.82631417 5.16796875 12.6875 C1.46494404 8.65111297 0.22175642 5.4330323 0 0 Z " fill="#1F1F1F" transform="translate(81,179)"/>
<path d="M0 0 C0.6875 1.75 0.6875 1.75 1 4 C0 6.25 0 6.25 -2 8 C-5.6875 8.25 -5.6875 8.25 -9 8 C-8.67 7.401875 -8.34 6.80375 -8 6.1875 C-6.79212012 3.94613529 -6.79212012 3.94613529 -7 1 C-5.68 1 -4.36 1 -3 1 C-3 1.66 -3 2.32 -3 3 C-2.01 2.01 -1.02 1.02 0 0 Z " fill="#C6C6C6" transform="translate(57,155)"/>
<path d="M0 0 C1.35304209 4.05912626 0.15216503 5.77149591 -1.4375 9.6875 C-1.91058594 10.86699219 -2.38367188 12.04648438 -2.87109375 13.26171875 C-3.24363281 14.16535156 -3.61617187 15.06898438 -4 16 C-4.66 16 -5.32 16 -6 16 C-7.00399407 12.91078748 -7.37402175 10.83481656 -6.0234375 7.8203125 C-4.77144592 5.76294623 -3.57155054 3.82652186 -2 2 C-1.34 2 -0.68 2 0 2 C0 1.34 0 0.68 0 0 Z " fill="#131313" transform="translate(29,134)"/>
<path d="M0 0 C0.66 0.66 1.32 1.32 2 2 C1.625 4.625 1.625 4.625 1 7 C1.99 7 2.98 7 4 7 C4 7.99 4 8.98 4 10 C4.99 10.33 5.98 10.66 7 11 C6.34 11.66 5.68 12.32 5 13 C1.875 12.625 1.875 12.625 -1 12 C-1.33 8.7 -1.66 5.4 -2 2 C-1.34 2 -0.68 2 0 2 C0 1.34 0 0.68 0 0 Z " fill="#0D0D0D" transform="translate(137,155)"/>
<path d="M0 0 C0.598125 0.226875 1.19625 0.45375 1.8125 0.6875 C0.8225 2.6675 -0.1675 4.6475 -1.1875 6.6875 C-0.1975 8.1725 -0.1975 8.1725 0.8125 9.6875 C-2.70466303 9.6875 -3.55871748 8.86304415 -6.1875 6.6875 C-5.78066505 4.32785727 -5.28935661 2.82815912 -3.875 0.875 C-2.1875 -0.3125 -2.1875 -0.3125 0 0 Z " fill="#B8B8B8" transform="translate(103.1875,146.3125)"/>
<path d="M0 0 C2.29013653 3.4352048 2.17842973 4.985331 2 9 C-0.31 9.33 -2.62 9.66 -5 10 C-4.979375 9.05125 -4.95875 8.1025 -4.9375 7.125 C-4.77448174 4.09333717 -4.77448174 4.09333717 -6 2 C-4.35 2 -2.7 2 -1 2 C-0.67 1.34 -0.34 0.68 0 0 Z " fill="#191919" transform="translate(156,158)"/>
<path d="M0 0 C3.36241563 0.45438049 6.04009971 1.35561095 9 3 C8.67 3.99 8.34 4.98 8 6 C7.67 5.34 7.34 4.68 7 4 C3.97065509 3.34227572 3.97065509 3.34227572 1 3 C1.33 5.31 1.66 7.62 2 10 C0.02 10 -1.96 10 -4 10 C-3.01 9.67 -2.02 9.34 -1 9 C-1.020625 7.700625 -1.04125 6.40125 -1.0625 5.0625 C-1.08399454 3.70834367 -1.07148199 2.35243917 -1 1 C-0.67 0.67 -0.34 0.34 0 0 Z " fill="#040404" transform="translate(147,144)"/>
<path d="M0 0 C2.0625 0.4375 2.0625 0.4375 4 1 C3.01 1 2.02 1 1 1 C-1.03165952 5.33420699 -1.52060632 9.28596212 -2 14 C-2.33 14 -2.66 14 -3 14 C-3 12.35 -3 10.7 -3 9 C-3.99 9 -4.98 9 -6 9 C-6 7.68 -6 6.36 -6 5 C-5.01 5 -4.02 5 -3 5 C-2.5359375 4.0409375 -2.5359375 4.0409375 -2.0625 3.0625 C-1 1 -1 1 0 0 Z " fill="#2E2E2E" transform="translate(103,171)"/>
<path d="M0 0 C-2.31 0.66 -4.62 1.32 -7 2 C-7 2.66 -7 3.32 -7 4 C-7.66 4 -8.32 4 -9 4 C-8.67 4.99 -8.34 5.98 -8 7 C-8.66 7 -9.32 7 -10 7 C-10 6.34 -10 5.68 -10 5 C-10.66 5 -11.32 5 -12 5 C-12 4.34 -12 3.68 -12 3 C-12.66 3 -13.32 3 -14 3 C-14 2.01 -14 1.02 -14 0 C-12.41773035 -0.19627391 -10.83410729 -0.38165538 -9.25 -0.5625 C-8.36828125 -0.66691406 -7.4865625 -0.77132812 -6.578125 -0.87890625 C-4.11567549 -0.99456676 -2.33461936 -0.73638695 0 0 Z " fill="#A9A9A9" transform="translate(126,72)"/>
<path d="M0 0 C1.32 0 2.64 0 4 0 C4.66 1.65 5.32 3.3 6 5 C5.030625 5.12375 4.06125 5.2475 3.0625 5.375 C1.5465625 5.684375 1.5465625 5.684375 0 6 C-0.33 6.66 -0.66 7.32 -1 8 C-2.65 7.67 -4.3 7.34 -6 7 C-6 6.34 -6 5.68 -6 5 C-4.35 4.67 -2.7 4.34 -1 4 C-0.67 2.68 -0.34 1.36 0 0 Z " fill="#5E5E5E" transform="translate(41,44)"/>
<path d="M0 0 C0.66 0.33 1.32 0.66 2 1 C2 3.64 2 6.28 2 9 C0.68 9 -0.64 9 -2 9 C-2.33 6.69 -2.66 4.38 -3 2 C-2.01 1.34 -1.02 0.68 0 0 Z " fill="#050505" transform="translate(13,103)"/>
<path d="M0 0 C0.33 0.66 0.66 1.32 1 2 C1.66 2 2.32 2 3 2 C4.40454548 8.11980533 5.23268915 13.71739294 5 20 C2.83614399 16.75421598 2.2255829 14.34716433 1.375 10.5625 C0.98441406 8.86287109 0.98441406 8.86287109 0.5859375 7.12890625 C0 4 0 4 0 0 Z " fill="#232323" transform="translate(122,41)"/>
<path d="M0 0 C3.7336293 1.67369589 3.7336293 1.67369589 5.25 3.53125 C7.78320845 5.65733566 9.9295764 5.51234282 13.1875 5.6875 C14.27417969 5.75324219 15.36085938 5.81898437 16.48046875 5.88671875 C17.72763672 5.94279297 17.72763672 5.94279297 19 6 C19 6.33 19 6.66 19 7 C12.43507888 7.78441153 6.53162622 8.10914408 0 7 C0 6.34 0 5.68 0 5 C0.99 4.67 1.98 4.34 3 4 C2.01 2.68 1.02 1.36 0 0 Z " fill="#3E3E3E" transform="translate(103,65)"/>
<path d="M0 0 C3 1 3 1 4.6875 4.3125 C6 8 6 8 6 12 C3 11 3 11 1.796875 9.2578125 C1.45140625 8.55398437 1.1059375 7.85015625 0.75 7.125 C0.39421875 6.42632812 0.0384375 5.72765625 -0.328125 5.0078125 C-1 3 -1 3 0 0 Z " fill="#161616" transform="translate(24,65)"/>
<path d="M0 0 C2.6645814 1.01070329 3.95195872 1.9399484 5.75 4.1875 C7.73177438 8.64649236 7.55986899 12.35538483 6 16.9375 C5.505 17.9584375 5.505 17.9584375 5 19 C2.69 18.67 0.38 18.34 -2 18 C-2 17.67 -2 17.34 -2 17 C-0.02 16.34 1.96 15.68 4 15 C4.98014913 11.2576124 5.1832348 9.4449988 3.6875 5.8125 C2.5069865 3.84497749 1.27276283 1.90914424 0 0 Z " fill="#424242" transform="translate(52,146)"/>
<path d="M0 0 C0.99 0 1.98 0 3 0 C3 0.66 3 1.32 3 2 C2.01 2.33 1.02 2.66 0 3 C0 2.01 0 1.02 0 0 Z M-3 3 C-2.34 3.66 -1.68 4.32 -1 5 C-1.99 5.66 -2.98 6.32 -4 7 C-4 4 -4 4 -3 3 Z M-10 8 C-9.01 8.33 -8.02 8.66 -7 9 C-8.65 10.65 -10.3 12.3 -12 14 C-12.33 13.01 -12.66 12.02 -13 11 C-12.01 10.01 -11.02 9.02 -10 8 Z " fill="#D5D5D5" transform="translate(81,72)"/>
<path d="M0 0 C2.97 0.495 2.97 0.495 6 1 C6.33 1.99 6.66 2.98 7 4 C5.1875 5.5625 5.1875 5.5625 3 7 C2.01 6.67 1.02 6.34 0 6 C0 4.02 0 2.04 0 0 Z " fill="#6B6B6B" transform="translate(148,147)"/>
<path d="M0 0 C0.99 0.33 1.98 0.66 3 1 C3.81163525 4.76303616 4.32502401 7.18743997 2.875 10.8125 C0.74711947 13.29502729 -0.89668743 14.07739356 -4 15 C-4 14.34 -4 13.68 -4 13 C-3.34 13 -2.68 13 -2 13 C-1.690625 12.360625 -1.38125 11.72125 -1.0625 11.0625 C0 9 0 9 1 8 C0.8981629 6.08575543 0.8981629 6.08575543 0.5625 3.9375 C0.376875 2.638125 0.19125 1.33875 0 0 Z " fill="#D6D6D6" transform="translate(174,96)"/>
<path d="M0 0 C1.67542976 0.28604898 3.34385343 0.61781233 5 1 C2.81482901 3.40575607 0.74080329 4.79535581 -2.1875 6.1875 C-2.90292969 6.53167969 -3.61835938 6.87585938 -4.35546875 7.23046875 C-4.89816406 7.48441406 -5.44085938 7.73835938 -6 8 C-6.33 7.01 -6.66 6.02 -7 5 C-5.68 5 -4.36 5 -3 5 C-2.690625 4.360625 -2.38125 3.72125 -2.0625 3.0625 C-1 1 -1 1 0 0 Z " fill="#080808" transform="translate(14,82)"/>
<path d="M0 0 C1.32 0.33 2.64 0.66 4 1 C3.01 3.97 2.02 6.94 1 10 C0.01 10 -0.98 10 -2 10 C-3 8 -3 8 -2.44140625 6.0546875 C-2.15136719 5.33539063 -1.86132812 4.61609375 -1.5625 3.875 C-1.27503906 3.15054688 -0.98757812 2.42609375 -0.69140625 1.6796875 C-0.46324219 1.12539063 -0.23507813 0.57109375 0 0 Z " fill="#1D1D1D" transform="translate(166,61)"/>
<path d="M0 0 C4.40114397 0.50298788 6.71195019 2.08772731 10 5 C9.34 5.66 8.68 6.32 8 7 C3.545 5.02 3.545 5.02 -1 3 C-0.67 2.01 -0.34 1.02 0 0 Z " fill="#1D1D1D" transform="translate(58,34)"/>
<path d="M0 0 C3.1268791 1.38132461 5.19920392 2.97903763 7.5625 5.4375 C8.14128906 6.03433594 8.72007813 6.63117188 9.31640625 7.24609375 C10.14978516 8.11427734 10.14978516 8.11427734 11 9 C11.9977247 10.00227014 12.99695588 11.00305341 14 12 C9.30985915 10.35211268 9.30985915 10.35211268 7.625 8.4375 C5.07970846 6.18589594 2.28925887 6.31030744 -1 6 C-0.01 5.01 0.98 4.02 2 3 C1.34 2.01 0.68 1.02 0 0 Z " fill="#545454" transform="translate(76,135)"/>
<path d="M0 0 C0 2.31 0 4.62 0 7 C-1.65 7.33 -3.3 7.66 -5 8 C-5.75 6.25 -5.75 6.25 -6 4 C-2.77777778 0 -2.77777778 0 0 0 Z " fill="#0D0D0D" transform="translate(191,115)"/>
<path d="M0 0 C4.71403788 0.47939368 8.66579301 0.96834048 13 3 C12.34 3.66 11.68 4.32 11 5 C6.61481795 4.70765453 3.57979093 3.52691125 0 1 C0 0.67 0 0.34 0 0 Z " fill="#0E0E0E" transform="translate(163,79)"/>
<path d="M0 0 C2.0625 1.75 2.0625 1.75 4 4 C3.9375 6.125 3.9375 6.125 3 8 C2.01 8.66 1.02 9.32 0 10 C-1.125 3.375 -1.125 3.375 0 0 Z " fill="#DDDDDD" transform="translate(171,96)"/>
<path d="M0 0 C2 2 2 2 2.1953125 3.9453125 C2.13020833 5.96354167 2.06510417 7.98177083 2 10 C0.68 9.34 -0.64 8.68 -2 8 C-2.125 5.125 -2.125 5.125 -2 2 C-1.34 1.34 -0.68 0.68 0 0 Z " fill="#E1E1E1" transform="translate(166,96)"/>
<path d="M0 0 C0.66 0.66 1.32 1.32 2 2 C1.76577661 4.71699137 1.43036348 7.31490612 1 10 C0.80687167 11.49928573 0.61908272 12.99927219 0.4375 14.5 C0.293125 15.655 0.14875 16.81 0 18 C-2.25676604 14.61485094 -2.17329248 13.97622233 -1.6875 10.125 C-1.57921875 9.24328125 -1.4709375 8.3615625 -1.359375 7.453125 C-0.99210268 4.94609222 -0.57591762 2.46821837 0 0 Z " fill="#3C3C3C" transform="translate(65,48)"/>
<path d="M0 0 C1.0725 0.165 2.145 0.33 3.25 0.5 C7.03028752 1.08810915 7.03028752 1.08810915 11 1 C10.67 1.99 10.34 2.98 10 4 C6.6868604 5.04127245 5.39801692 5.18574123 2.1875 3.6875 C1.465625 3.130625 0.74375 2.57375 0 2 C0 1.34 0 0.68 0 0 Z " fill="#1C1C1C" transform="translate(91,166)"/>
<path d="M0 0 C-2.08164312 2.39003469 -3.55953918 3.8388558 -6.5625 4.9375 C-9 5 -9 5 -10.65234375 3.50390625 C-11.09707031 3.00761719 -11.54179687 2.51132813 -12 2 C-10.37787941 1.47026689 -8.75218416 0.95146893 -7.125 0.4375 C-6.22007813 0.14746094 -5.31515625 -0.14257812 -4.3828125 -0.44140625 C-2 -1 -2 -1 0 0 Z " fill="#232323" transform="translate(28,79)"/>
<path d="M0 0 C0.33 0.66 0.66 1.32 1 2 C-0.43359375 4.8203125 -0.43359375 4.8203125 -2.4375 8.125 C-3.09621094 9.22070312 -3.75492188 10.31640625 -4.43359375 11.4453125 C-4.95050781 12.28835937 -5.46742187 13.13140625 -6 14 C-6.66 13.67 -7.32 13.34 -8 13 C-6.40956621 7.91061189 -3.2553049 4.12543357 0 0 Z " fill="#232323" transform="translate(40,116)"/>
<path d="M0 0 C0.33 0.66 0.66 1.32 1 2 C3.02463255 2.65213292 3.02463255 2.65213292 5 3 C2.53846154 6.81538462 2.53846154 6.81538462 -0.1875 7.75 C-0.785625 7.8325 -1.38375 7.915 -2 8 C-2.33 6.02 -2.66 4.04 -3 2 C-2.01 2 -1.02 2 0 2 C0 1.34 0 0.68 0 0 Z " fill="#1D1D1D" transform="translate(30,102)"/>
<path d="M0 0 C0.66 0.33 1.32 0.66 2 1 C-0.71777222 4.82501275 -2.62254464 6.42860577 -7 8 C-8.77277259 9.52007842 -8.77277259 9.52007842 -10 11 C-10.66 10.67 -11.32 10.34 -12 10 C-10.56458334 8.70601853 -9.12658648 7.41489889 -7.6875 6.125 C-6.88699219 5.40570313 -6.08648437 4.68640625 -5.26171875 3.9453125 C-3 2 -3 2 0 0 Z " fill="#D9D9D9" transform="translate(12,87)"/>
<path d="M0 0 C1.6304522 4.89135659 2.10026423 8.78625982 2 14 C0.68 14.33 -0.64 14.66 -2 15 C-1.649375 14.43539062 -1.29875 13.87078125 -0.9375 13.2890625 C0.22040131 10.46185347 -0.14927839 9.26552001 -1 6.375 C-1.6875 4.0234375 -1.6875 4.0234375 -2 2 C-1.34 1.34 -0.68 0.68 0 0 Z " fill="#070707" transform="translate(96,177)"/>
<path d="M0 0 C1.32 0 2.64 0 4 0 C4.66 2.97 5.32 5.94 6 9 C4.68 9 3.36 9 2 9 C1.34 6.03 0.68 3.06 0 0 Z " fill="#D8D8D8" transform="translate(96,180)"/>
<path d="M0 0 C1.1446875 0.3403125 1.1446875 0.3403125 2.3125 0.6875 C-0.26534846 3.33502004 -2.60398098 5.63182065 -5.6875 7.6875 C-5.91482116 4.88387237 -6.02831872 3.22563483 -4.5 0.8125 C-2.6875 -0.3125 -2.6875 -0.3125 0 0 Z " fill="#0B0B0B" transform="translate(5.6875,89.3125)"/>
<path d="M0 0 C0.66 0.33 1.32 0.66 2 1 C1.67 2.32 1.34 3.64 1 5 C1.66 5 2.32 5 3 5 C3 6.98 3 8.96 3 11 C2.01 10.67 1.02 10.34 0 10 C-0.5625 8.1875 -0.5625 8.1875 -1 6 C-1.63654342 4.6520257 -2.29605388 3.31403276 -3 2 C-2.01 1.34 -1.02 0.68 0 0 Z " fill="#E9E9E9" transform="translate(160,52)"/>
<path d="M0 0 C0.99 0 1.98 0 3 0 C3.66 1.65 4.32 3.3 5 5 C4 6 4 6 1.4375 6.0625 C0.2309375 6.0315625 0.2309375 6.0315625 -1 6 C-1.33 5.34 -1.66 4.68 -2 4 C-1.0625 1.875 -1.0625 1.875 0 0 Z " fill="#4D4D4D" transform="translate(50,54)"/>
<path d="M0 0 C1.4370809 -0.05422947 2.87475462 -0.09289723 4.3125 -0.125 C5.11300781 -0.14820312 5.91351563 -0.17140625 6.73828125 -0.1953125 C9 0 9 0 12 2 C11.30132812 2.13277344 10.60265625 2.26554687 9.8828125 2.40234375 C8.97273438 2.57894531 8.06265625 2.75554687 7.125 2.9375 C6.22007813 3.11152344 5.31515625 3.28554687 4.3828125 3.46484375 C2.00043683 3.89963701 2.00043683 3.89963701 0 5 C0 3.35 0 1.7 0 0 Z " fill="#292929" transform="translate(18,93)"/>
<path d="M0 0 C0.33 0.66 0.66 1.32 1 2 C-1.97 2.66 -4.94 3.32 -8 4 C-8 3.01 -8 2.02 -8 1 C-3.375 -1.125 -3.375 -1.125 0 0 Z " fill="#1B1B1B" transform="translate(171,129)"/>
<path d="M0 0 C2.64 0 5.28 0 8 0 C7.34 0.66 6.68 1.32 6 2 C5.01 2 4.02 2 3 2 C3.66 3.32 4.32 4.64 5 6 C4.01 7.485 4.01 7.485 3 9 C2.01 6.03 1.02 3.06 0 0 Z " fill="#202020" transform="translate(32,47)"/>
<path d="M0 0 C-0.99 3.3 -1.98 6.6 -3 10 C-3.66 10 -4.32 10 -5 10 C-5.29296875 3.9453125 -5.29296875 3.9453125 -5 2 C-2 0 -2 0 0 0 Z " fill="#292929" transform="translate(158,41)"/>
<path d="M0 0 C1.485 0.99 1.485 0.99 3 2 C3.6875 5.625 3.6875 5.625 4 9 C3.67 8.34 3.34 7.68 3 7 C0.97536745 6.34786708 0.97536745 6.34786708 -1 6 C-1.042721 4.33388095 -1.04063832 2.66617115 -1 1 C-0.67 0.67 -0.34 0.34 0 0 Z " fill="#858585" transform="translate(139,151)"/>
<path d="M0 0 C2.0625 0.4375 2.0625 0.4375 4 1 C4 4 4 4 3 7 C1.68 6.34 0.36 5.68 -1 5 C-1 1 -1 1 0 0 Z " fill="#FCFCFC" transform="translate(17,119)"/>
<path d="M0 0 C0 1.32 0 2.64 0 4 C-1.65 4.33 -3.3 4.66 -5 5 C-5.66 3.35 -6.32 1.7 -7 0 C-2.25 -1.125 -2.25 -1.125 0 0 Z " fill="#252525" transform="translate(50,178)"/>
<path d="M0 0 C3.875 1.75 3.875 1.75 5 4 C3.35 4.66 1.7 5.32 0 6 C-0.99 5.01 -1.98 4.02 -3 3 C-2.01 2.01 -1.02 1.02 0 0 Z " fill="#1D1D1D" transform="translate(183,120)"/>
<path d="M0 0 C3 1 6 2 9 3 C9 3.66 9 4.32 9 5 C7.68 5.33 6.36 5.66 5 6 C3.35 4.02 1.7 2.04 0 0 Z " fill="#272727" transform="translate(80,202)"/>
<path d="M0 0 C0.99 0 1.98 0 3 0 C2.67 2.31 2.34 4.62 2 7 C1.01 7.33 0.02 7.66 -1 8 C-1.93065133 5.39417629 -2.14917407 4.35801776 -1.0625 1.75 C-0.711875 1.1725 -0.36125 0.595 0 0 Z " fill="#2F2F2F" transform="translate(69,168)"/>
<path d="M0 0 C4.67105792 1.55701931 8.08705685 4.08447373 12 7 C11.34 7.66 10.68 8.32 10 9 C8.33043913 7.69118353 6.66441696 6.37785174 5 5.0625 C4.071875 4.33160156 3.14375 3.60070312 2.1875 2.84765625 C1.465625 2.23792969 0.74375 1.62820312 0 1 C0 0.67 0 0.34 0 0 Z " fill="#323232" transform="translate(96,153)"/>
<path d="M0 0 C0.268125 0.5775 0.53625 1.155 0.8125 1.75 C1.95053246 4.05747896 1.95053246 4.05747896 3.625 6.125 C5 8 5 8 5 10 C5.66 10 6.32 10 7 10 C7 10.66 7 11.32 7 12 C3.63629679 10.60812281 1.78093669 9.20568604 0 6 C-0.1875 2.75 -0.1875 2.75 0 0 Z " fill="#E4E4E4" transform="translate(161,99)"/>
<path d="M0 0 C0.9075 0.391875 1.815 0.78375 2.75 1.1875 C1.43 1.5175 0.11 1.8475 -1.25 2.1875 C-1.25 2.8475 -1.25 3.5075 -1.25 4.1875 C-3.23 3.5275 -5.21 2.8675 -7.25 2.1875 C-4.52596974 -0.53653026 -3.86366821 -0.96591705 0 0 Z " fill="#242424" transform="translate(179.25,82.8125)"/>
<path d="M0 0 C2.49361571 1.20381448 4.68143083 2.45428722 7 4 C6.67 4.99 6.34 5.98 6 7 C3.53199953 5.84826645 1.95216435 4.95216435 0 3 C-0.66 2.67 -1.32 2.34 -2 2 C-1.34 1.34 -0.68 0.68 0 0 Z " fill="#EDEDED" transform="translate(147,63)"/>
<path d="M0 0 C0.66 0 1.32 0 2 0 C0.74874616 3.75376152 -0.5652404 4.24073289 -4 6 C-4.66 6 -5.32 6 -6 6 C-6.33 4.68 -6.66 3.36 -7 2 C-3.86650268 0.95550089 -3.01031744 1.06576355 0 2 C0 1.34 0 0.68 0 0 Z " fill="#EAEAEA" transform="translate(129,32)"/>
<path d="M0 0 C-0.66 0.66 -1.32 1.32 -2 2 C-1.67 2.66 -1.34 3.32 -1 4 C-3.64 4 -6.28 4 -9 4 C-8.67 3.01 -8.34 2.02 -8 1 C-2.59770115 -1.29885057 -2.59770115 -1.29885057 0 0 Z " fill="#2E2E2E" transform="translate(97,189)"/>
<path d="M0 0 C2.475 0.495 2.475 0.495 5 1 C5.33 3.97 5.66 6.94 6 10 C5.34 8.68 4.68 7.36 4 6 C3.29875 5.29875 2.5975 4.5975 1.875 3.875 C1.25625 3.25625 0.6375 2.6375 0 2 C0 1.34 0 0.68 0 0 Z " fill="#131313" transform="translate(104,172)"/>
<path d="M0 0 C0 0.66 0 1.32 0 2 C-0.66 2 -1.32 2 -2 2 C-2.66 3.32 -3.32 4.64 -4 6 C-4.66 4.02 -5.32 2.04 -6 0 C-3 -1 -3 -1 0 0 Z " fill="#E8E8E8" transform="translate(169,133)"/>
<path d="M0 0 C0.66 0.33 1.32 0.66 2 1 C2 1.66 2 2.32 2 3 C2.99 3 3.98 3 5 3 C4.67 4.98 4.34 6.96 4 9 C3.34 8.34 2.68 7.68 2 7 C0.68252676 6.30251417 -0.64914193 5.63040043 -2 5 C-1.01 5 -0.02 5 1 5 C0.67 3.35 0.34 1.7 0 0 Z " fill="#090909" transform="translate(158,128)"/>
<path d="M0 0 C2.375 0.3125 2.375 0.3125 5 1 C5.66 1.99 6.32 2.98 7 4 C3.37673261 5.2077558 2.35853631 4.54311128 -1 3 C-0.67 2.01 -0.34 1.02 0 0 Z " fill="#0D0D0D" transform="translate(4,120)"/>
<path d="M0 0 C0.99 0.33 1.98 0.66 3 1 C2.25 2.9375 2.25 2.9375 1 5 C-1 5.6875 -1 5.6875 -3 6 C-3.99 6.495 -3.99 6.495 -5 7 C-3.70700306 4.11562221 -2.34058637 2.12780579 0 0 Z " fill="#1A1A1A" transform="translate(16,94)"/>
<path d="M0 0 C0.66 0.33 1.32 0.66 2 1 C-1.625 4 -1.625 4 -5 4 C-5 4.66 -5 5.32 -5 6 C-6.32 5.34 -7.64 4.68 -9 4 C-7.54618103 3.30300448 -6.08677047 2.61766134 -4.625 1.9375 C-3.40683594 1.36322266 -3.40683594 1.36322266 -2.1640625 0.77734375 C-1.44992188 0.52082031 -0.73578125 0.26429688 0 0 Z " fill="#DBDBDB" transform="translate(59,177)"/>
<path d="M0 0 C0.66 0.33 1.32 0.66 2 1 C2 2.32 2 3.64 2 5 C0.35 5.33 -1.3 5.66 -3 6 C-2.42655063 3.13275314 -2.1385485 2.1385485 0 0 Z " fill="#FBFBFB" transform="translate(98,171)"/>
<path d="M0 0 C3.59391114 1.33488128 6.75490696 2.96022723 10 5 C9.34 5.66 8.68 6.32 8 7 C6.66382648 6.02471263 5.3311249 5.04466681 4 4.0625 C3.2575 3.51722656 2.515 2.97195312 1.75 2.41015625 C1.1725 1.94480469 0.595 1.47945312 0 1 C0 0.67 0 0.34 0 0 Z " fill="#202020" transform="translate(107,161)"/>
<path d="M0 0 C0.66 0 1.32 0 2 0 C2.33 2.64 2.66 5.28 3 8 C2.34 8 1.68 8 1 8 C0.67 8.66 0.34 9.32 0 10 C-0.74926071 6.33694766 -1.2380014 3.57644848 0 0 Z " fill="#272727" transform="translate(156,145)"/>
<path d="M0 0 C1.5625 1.75 1.5625 1.75 3 4 C2.6875 6.25 2.6875 6.25 2 8 C0.68 6.68 -0.64 5.36 -2 4 C-1.34 2.68 -0.68 1.36 0 0 Z " fill="#E7E7E7" transform="translate(52,102)"/>
<path d="M0 0 C0.99 0.33 1.98 0.66 3 1 C3 1.99 3 2.98 3 4 C3.99 4 4.98 4 6 4 C4.25 7.875 4.25 7.875 2 9 C1.855625 7.88625 1.71125 6.7725 1.5625 5.625 C1.21627965 2.17857953 1.21627965 2.17857953 0 0 Z " fill="#050505" transform="translate(141,58)"/>
<path d="M0 0 C0 1.65 0 3.3 0 5 C-2.49092811 6.24546405 -3.41080733 5.7767578 -6 5 C-6 4.34 -6 3.68 -6 3 C-2.53846154 0 -2.53846154 0 0 0 Z " fill="#EFEFEF" transform="translate(103,55)"/>
<path d="M0 0 C0.99 1.32 1.98 2.64 3 4 C2.01 4 1.02 4 0 4 C-0.33 5.32 -0.66 6.64 -1 8 C-2.0625 6.1875 -2.0625 6.1875 -3 4 C-2.67 3.01 -2.34 2.02 -2 1 C-1.67 1.33 -1.34 1.66 -1 2 C-0.67 1.34 -0.34 0.68 0 0 Z " fill="#1E1E1E" transform="translate(78,190)"/>
<path d="M0 0 C-0.33 0.99 -0.66 1.98 -1 3 C-1.99 3.33 -2.98 3.66 -4 4 C-4.99 3.01 -5.98 2.02 -7 1 C-3.375 -1.125 -3.375 -1.125 0 0 Z " fill="#989898" transform="translate(98,164)"/>
<path d="M0 0 C0.66 0 1.32 0 2 0 C2 0.66 2 1.32 2 2 C1.34 2 0.68 2 0 2 C0 1.34 0 0.68 0 0 Z M-7 2 C-4.69 2 -2.38 2 0 2 C-0.33 2.66 -0.66 3.32 -1 4 C-4.0625 4.625 -4.0625 4.625 -7 5 C-7 4.01 -7 3.02 -7 2 Z " fill="#0C0C0C" transform="translate(157,153)"/>
<path d="M0 0 C0.99 0.33 1.98 0.66 3 1 C2.67 2.32 2.34 3.64 2 5 C0.35 5.33 -1.3 5.66 -3 6 C-3 5.01 -3 4.02 -3 3 C-2.01 3 -1.02 3 0 3 C0 2.01 0 1.02 0 0 Z " fill="#282828" transform="translate(135,152)"/>
<path d="M0 0 C3.465 1.485 3.465 1.485 7 3 C7 3.66 7 4.32 7 5 C4.03 4.505 4.03 4.505 1 4 C0.67 2.68 0.34 1.36 0 0 Z " fill="#ECECEC" transform="translate(0,122)"/>
<path d="M0 0 C1.32 0.66 2.64 1.32 4 2 C3.67 2.99 3.34 3.98 3 5 C2.34 5 1.68 5 1 5 C1 5.66 1 6.32 1 7 C0.01 6.67 -0.98 6.34 -2 6 C-1.67 5.38125 -1.34 4.7625 -1 4.125 C0.14193235 2.08981656 0.14193235 2.08981656 0 0 Z " fill="#D7D7D7" transform="translate(171,112)"/>
<path d="M0 0 C0.66 0.33 1.32 0.66 2 1 C1.67 1.66 1.34 2.32 1 3 C0.34 3 -0.32 3 -1 3 C-1 3.66 -1 4.32 -1 5 C-2.65 5.66 -4.3 6.32 -6 7 C-4.60667426 3.63279613 -3.0210714 2.0140476 0 0 Z " fill="#EDEDED" transform="translate(22,95)"/>
<path d="M0 0 C0.99 0.33 1.98 0.66 3 1 C2.1875 3.4375 2.1875 3.4375 1 6 C0.01 6.33 -0.98 6.66 -2 7 C-1.34 4.69 -0.68 2.38 0 0 Z " fill="#0B0B0B" transform="translate(118,181)"/>
<path d="M0 0 C0.99 0 1.98 0 3 0 C2.67 1.65 2.34 3.3 2 5 C1.01 5 0.02 5 -1 5 C-0.67 3.35 -0.34 1.7 0 0 Z " fill="#E2E2E2" transform="translate(146,154)"/>
<path d="M0 0 C5.75 1.875 5.75 1.875 8 3 C7.67 3.99 7.34 4.98 7 6 C6.67 5.34 6.34 4.68 6 4 C3.47266765 3.34444881 3.47266765 3.34444881 1 3 C0.67 2.01 0.34 1.02 0 0 Z " fill="#0D0D0D" transform="translate(148,144)"/>
<path d="M0 0 C0.66 0 1.32 0 2 0 C3.625 2 3.625 2 5 4 C4.34 5.32 3.68 6.64 3 8 C0 3.375 0 3.375 0 0 Z " fill="#343434" transform="translate(154,122)"/>
<path d="M0 0 C0.33 1.65 0.66 3.3 1 5 C-0.98 4.34 -2.96 3.68 -5 3 C-2.25 0 -2.25 0 0 0 Z " fill="#1F1F1F" transform="translate(139,176)"/>
<path d="M0 0 C0.33 0.66 0.66 1.32 1 2 C-0.25 4.625 -0.25 4.625 -2 7 C-2.99 7 -3.98 7 -5 7 C-5 6.34 -5 5.68 -5 5 C-4.34 4.67 -3.68 4.34 -3 4 C-2.67 3.01 -2.34 2.02 -2 1 C-1.34 0.67 -0.68 0.34 0 0 Z " fill="#121212" transform="translate(55,47)"/>
</svg>
