<?xml version="1.0" encoding="UTF-8"?>
<svg version="1.1" xmlns="http://www.w3.org/2000/svg" width="512" height="512">
<path d="M0 0 C1.01790619 0.00215515 2.03581238 0.0043103 3.08456421 0.00653076 C17.69363523 0.05620146 32.02575853 0.30709809 46.375 3.3125 C47.34985352 3.51117676 48.32470703 3.70985352 49.32910156 3.91455078 C108.89482498 16.37463238 165.24866419 48.2648637 202.375 97.3125 C202.79023926 97.85132812 203.20547852 98.39015625 203.63330078 98.9453125 C211.31837664 108.94179469 218.06228061 119.40260449 224.375 130.3125 C224.76929199 130.98974121 225.16358398 131.66698242 225.56982422 132.36474609 C247.19846116 169.96813749 256.85145955 212.87882993 256.6875 255.9375 C256.68534485 256.95540619 256.6831897 257.97331238 256.68096924 259.02206421 C256.63129854 273.63113523 256.38040191 287.96325853 253.375 302.3125 C253.07698486 303.77478027 253.07698486 303.77478027 252.77294922 305.26660156 C242.52138226 354.27446698 220.18217348 398.27864199 185.375 434.3125 C184.77606934 434.93334473 184.17713867 435.55418945 183.56005859 436.19384766 C175.89623497 444.09500259 168.15501606 451.64016955 159.375 458.3125 C158.83472168 458.72918945 158.29444336 459.14587891 157.73779297 459.57519531 C125.8687531 484.07334707 89.31685217 500.56439938 49.9375 508.625 C49.21860596 508.77235596 48.49971191 508.91971191 47.7590332 509.0715332 C33.08339502 511.86090125 18.55831162 512.66142619 3.64770508 512.62817383 C0.70811513 512.6250221 -2.2304558 512.64854926 -5.16992188 512.67382812 C-18.54306192 512.71848737 -31.43916711 511.51301542 -44.625 509.3125 C-46.33055054 509.03031616 -46.33055054 509.03031616 -48.07055664 508.74243164 C-109.33381836 497.7379236 -167.76195468 461.60504511 -204.625 411.3125 C-205.26211914 410.45857666 -205.26211914 410.45857666 -205.91210938 409.58740234 C-212.42768015 400.84658179 -218.26088547 391.80163672 -223.625 382.3125 C-224.0271875 381.60528809 -224.429375 380.89807617 -224.84375 380.16943359 C-237.8691741 357.03404164 -246.61801461 331.86287591 -251.9375 305.875 C-252.08485596 305.15610596 -252.23221191 304.43721191 -252.3840332 303.6965332 C-255.35789088 288.05024391 -255.99800362 272.57681954 -255.9375 256.6875 C-255.93534485 255.66959381 -255.9331897 254.65168762 -255.93096924 253.60293579 C-255.88129854 238.99386477 -255.63040191 224.66174147 -252.625 210.3125 C-252.42632324 209.33764648 -252.22764648 208.36279297 -252.02294922 207.35839844 C-241.90232806 158.9765226 -219.9858123 114.98821731 -185.625 79.3125 C-184.99287598 78.65314453 -184.36075195 77.99378906 -183.70947266 77.31445312 C-174.56502521 67.82619695 -165.26765991 59.0862956 -154.625 51.3125 C-153.47394983 50.45443848 -152.32290823 49.59636549 -151.171875 48.73828125 C-142.98224019 42.70072604 -134.47961724 37.31792698 -125.625 32.3125 C-124.91778809 31.9103125 -124.21057617 31.508125 -123.48193359 31.09375 C-100.34654164 18.0683259 -75.17537591 9.31948539 -49.1875 4 C-48.46860596 3.85264404 -47.74971191 3.70528809 -47.0090332 3.5534668 C-31.36274391 0.57960912 -15.88931954 -0.06050362 0 0 Z " fill="#FFC107" transform="translate(255.625,-0.3125)"/>
<path d="M0 0 C0.65871094 0.49242187 1.31742187 0.98484375 1.99609375 1.4921875 C3.46175781 2.44158203 3.46175781 2.44158203 4.95703125 3.41015625 C5.50383545 3.77407471 6.05063965 4.13799316 6.61401367 4.51293945 C34.14892518 22.79685527 64.73159861 29.45633274 97.46484375 24.2421875 C115.69332412 20.37065185 136.5662593 12.92202195 149.99609375 -0.5078125 C163.21321103 0.52018551 181.03773035 20.69504428 189.27734375 30.1796875 C210.83418403 55.95965146 225.40215558 88.51458789 224.99609375 122.4921875 C215.67223985 124.53773733 206.33828018 126.53240327 196.99609375 128.4921875 C196.06925781 128.68893066 195.14242188 128.88567383 194.1875 129.08837891 C180.77302979 131.89365615 167.21783619 133.54754149 153.62109375 135.1796875 C152.72130798 135.28846222 151.82152222 135.39723694 150.89447021 135.50930786 C148.25452843 135.82597203 145.61381958 136.13511141 142.97265625 136.44140625 C141.8232254 136.57864609 141.8232254 136.57864609 140.65057373 136.71865845 C126.78967976 138.29094816 112.97103155 138.64521091 99.0390625 138.625 C97.35866787 138.62567669 95.67827333 138.62664972 93.99787903 138.62789917 C90.50109919 138.62936023 87.00434516 138.6272743 83.50756836 138.62255859 C79.0841601 138.61687572 74.66081275 138.62014148 70.23740673 138.62613106 C66.77358056 138.62979157 63.30976819 138.62857305 59.84594154 138.62600327 C58.21769516 138.62534837 56.58944741 138.62611042 54.96120262 138.62848282 C39.74502172 138.64579268 24.52150531 138.23692491 9.40234375 136.40625 C8.51985962 136.30379974 7.63737549 136.20134949 6.72814941 136.09579468 C4.8967157 135.88184384 3.06561272 135.66504167 1.23486328 135.4453125 C-1.50145146 135.1174816 -4.23884414 134.80024677 -6.9765625 134.484375 C-22.19195393 132.70507408 -37.3710585 130.597933 -52.37890625 127.4921875 C-53.19907227 127.32557617 -54.01923828 127.15896484 -54.86425781 126.98730469 C-61.60495966 125.6053419 -68.31411702 124.10359658 -75.00390625 122.4921875 C-77.05261615 87.3606066 -58.53081225 52.55381559 -36.04711914 26.87695312 C-27.8589133 17.75830286 -18.60972653 10.00437694 -8.44140625 3.1796875 C-7.85770264 2.77596924 -7.27399902 2.37225098 -6.67260742 1.95629883 C-2.60909058 -0.66117305 -2.60909058 -0.66117305 0 0 Z " fill="#FFFEFE" transform="translate(181.00390625,261.5078125)"/>
<path d="M0 0 C13.92027757 11.05735828 24.51120939 27.10753765 26.89306641 44.92382812 C27.03268773 46.52678838 27.1568413 48.13114755 27.26806641 49.73632812 C27.34541016 50.58582031 27.42275391 51.4353125 27.50244141 52.31054688 C28.36928306 69.57514317 21.44854522 87.30823134 10.01806641 100.04882812 C-3.7441174 114.63891917 -21.78190607 122.57381294 -41.79443359 123.23632812 C-61.55908168 122.51267968 -78.38759281 114.08149447 -91.73193359 99.73632812 C-97.42380704 93.02940391 -101.66277269 85.97888524 -104.73193359 77.73632812 C-105.05162109 76.89457031 -105.37130859 76.0528125 -105.70068359 75.18554688 C-110.91745356 58.49671332 -109.03780149 38.65306202 -101.23193359 23.23632812 C-92.07173811 6.32040009 -76.76402884 -5.43518067 -58.50927734 -11.29882812 C-38.5972819 -16.50062523 -16.66076578 -12.15620576 0 0 Z " fill="#FFFEFD" transform="translate(296.73193359375,124.263671875)"/>
</svg>
